<?xml version="1.0" encoding="utf-8"?>
<!-- Generator: Adobe Illustrator 23.0.6, SVG Export Plug-In . SVG Version: 6.00 Build 0)  -->
<svg version="1.1" id="svg2985" xmlns="http://www.w3.org/2000/svg" xmlns:xlink="http://www.w3.org/1999/xlink" x="0px" y="0px"
	 viewBox="0 0 350 200" style="enable-background:new 0 0 350 200;" xml:space="preserve">
<style type="text/css">
	.st0{fill:#0A73B1;}
	.st1{fill:#FFFFFF;}
	.st2{font-family:'ArialMT';}
	.st3{font-size:4.9386px;}
	.st4{font-size:4.9394px;}
	.st5{fill:#28220B;fill-opacity:0;}
	.st6{fill:#222B00;fill-opacity:0;}
	.st7{fill-opacity:0;}
	.st8{fill:#0D9557;}
	.st9{fill:none;}
	.st10{fill:#333333;}
	.st11{font-size:6.1733px;}
	.st12{font-size:3.704px;}
	.st13{fill:#D4AA00;}
	.st14{fill:#9393AC;}
	.st15{fill:#FFD5D5;}
	.st16{fill:#FFFFFF;stroke:#000000;stroke-width:3;stroke-miterlimit:10;}
	.st17{font-family:'ArialRoundedMTBold';}
	.st18{font-size:16px;}
</style>
<title>bluetooth</title>
<rect id="rect3336" x="15.6" y="51.7" class="st0" width="56.7" height="128"/>
<g id="text3020">
	<text id="tspan3032" transform="matrix(6.368163e-17 1.04 -1 6.123234e-17 64.9805 166.2393)" class="st1 st2 st3">Key</text>
</g>
<g id="text3064">
	<text id="tspan3066" transform="matrix(6.368163e-17 1.04 -1 6.123234e-17 55.8496 164.2495)" class="st1 st2 st3">VCC</text>
</g>
<g id="text3064-1">
	<text id="tspan3066-7" transform="matrix(6.368163e-17 1.04 -1 6.123234e-17 47.1406 163.6797)" class="st1 st2 st3">GND</text>
</g>
<g id="text3064-1-4">
	<text id="tspan3066-7-0" transform="matrix(6.368163e-17 1.04 -1 6.123234e-17 37.3809 164.8193)" class="st1 st2 st3">TXD</text>
</g>
<g id="text3064-1-4-9">
	<text id="tspan3066-7-0-4" transform="matrix(6.368163e-17 1.04 -1 6.123234e-17 28.25 164.2495)" class="st1 st2 st3">RXD</text>
</g>
<g id="text3064-1-4-9-8">
	<text id="tspan3066-7-0-4-8" transform="matrix(5.878305e-17 0.96 -1 6.123234e-17 19.8105 164.0503)" class="st1 st2 st4">State</text>
</g>
<rect id="rect3450" x="34.8" y="90.6" class="st5" width="27.9" height="28.8"/>
<path id="path3452" class="st5" d="M48.6,91.2h13.3V119H35.2V91.2H48.6z M44.6,94.3c0.3,0.2,0.7,0.3,1.1,0.1c0.2-0.1,0.2-0.1,0.3,0
	s0.7,0.1,1-0.1s0.3-0.3,0.3-1v-0.8h-2.8v0.8C44.2,93.9,44.3,94.1,44.6,94.3z M44.5,97c0.1,0,0.2-0.1,0.2-0.3s0.1-0.3,1.2-0.3h1.2
	v-0.5c0-0.4,0-0.5-0.2-0.5s-0.2,0.1-0.3,0.3s-0.2,0.3-1,0.3s-0.9,0-0.9-0.3c0-0.1-0.1-0.3-0.2-0.3s-0.2,0.2-0.2,0.8S44.3,97,44.5,97
	z M45.3,100c0.9,0,1,0,1-0.3s-0.1-0.3-0.7-0.3c-0.6,0-0.7,0-0.8-0.4s-0.2-0.5,0.4-0.5s1.1-0.1,1.1-0.3S46.2,98,45.6,98
	c-1.2,0-1.2,0-1.2,1v0.9C44.3,100,45.3,100,45.3,100z M44.5,102.7c0.1,0,0.2-0.1,0.2-0.5c0-0.6,0.1-0.9,0.3-0.9
	c0.1,0,0.1,0.3,0.1,0.7v0.7h0.4c0.4,0.1,0.8-0.2,0.9-0.7c0-0.1,0-0.1,0-0.2c0-0.7-0.3-1-1.1-1c-0.3,0-0.6,0-0.8,0.2
	c-0.1,0.3-0.1,0.6-0.1,0.9C44.2,102.5,44.3,102.7,44.5,102.7z M44.7,105.4c0.4,0,0.5-0.2,0.2-0.5s-0.1-0.5,0.5-0.5s0.5,0,0.6,0.4
	s0.1,0.4,0.2,0.4c0.1,0,0.2-0.1,0.2-0.4s0.1-0.4,0.3-0.4s0.3-0.1,0.3-0.3c0-0.2-0.1-0.3-0.3-0.3l0,0c-0.2,0-0.3-0.1-0.4-0.2
	c-0.2-0.2-0.2-0.2-0.3,0s-0.3,0.2-0.8,0.2c-0.7,0-0.9,0.2-0.9,0.9S44.3,105.4,44.7,105.4z M44.7,108.2c0.5,0.3,1.1,0.2,1.6-0.1
	c0.2-0.5,0.2-1-0.1-1.4c-0.5-0.3-1-0.3-1.5-0.1c-0.2,0.2-0.3,0.5-0.3,0.8C44.2,107.9,44.3,108,44.7,108.2z M44.5,110.9
	c0.1,0.2,0.4,0.2,0.8,0.2c0.7,0,1-0.3,1-1s-0.5-1-1.2-0.9c-0.2,0-0.5,0.1-0.7,0.2C44.2,109.9,44.3,110.4,44.5,110.9z M44.5,113.7
	c0.2,0.2,0.6,0.2,0.6,0s-0.1-0.2-0.2-0.4c-0.3-0.3-0.1-0.5,0.5-0.5s0.5,0,0.5,0.4c0,0.2,0.1,0.4,0.2,0.4c0.1,0,0.3,0,0.3-0.4
	s0.1-0.4,0.3-0.4c0.4-0.1,0.4-0.5,0-0.5c-0.2,0-0.3-0.1-0.3-0.2s-0.1-0.2-0.2-0.2c-0.1,0-0.2,0.1-0.2,0.2l0,0c0,0.1-0.2,0.2-0.6,0.2
	c-0.7,0-0.9,0.1-0.9,0.8C44.3,113.3,44.3,113.5,44.5,113.7z M45,115.2c0.6,0,0.9,0.2,0.9,0.7c0,0.2-0.1,0.2-0.6,0.2
	c-0.7,0-1,0.1-1,0.3s0.2,0.2,0.9,0.2c1.1,0,1.2-0.1,1.1-0.9c-0.1-0.5-0.1-0.5,0.3-0.5s0.4,0,0.4-0.3s-0.1-0.3-1.4-0.3
	s-1.4,0-1.4,0.3C44.2,115.2,44.3,115.2,45,115.2z M50.1,93.4c0.3,0.1,0.7,0.1,1,0.1h1v1.8h-0.9c-1,0-1.3,0.1-1.1,0.5
	c0.1,0.2,0.4,0.2,2.5,0.2h2.3v-0.3c0-0.4-0.2-0.5-1.2-0.5h-0.8v-1.8h1c1,0,1,0,1-0.3v-0.3h-2.3C50.2,92.8,50,92.8,50.1,93.4
	L50.1,93.4z M50.1,100.4c0,0.1,0.2,0.2,0.4,0.2s0.3,0,0.3-0.7c0-0.9,0.1-0.9,1.1-1.4l0.7-0.4l0.8,0.4l0.8,0.4l0.1,0.8
	c0.1,0.8,0.1,0.8,0.4,0.9H55v-1c0-0.9,0-1-0.3-1.2c-0.6-0.5-1.4-0.8-2.2-1c-0.9,0.2-1.7,0.7-2.4,1.3C49.9,99.3,49.9,99.8,50.1,100.4
	z M50.1,109.4c0.1,0.4,0.6,0.5,2.4,0.5c2.4,0,2.4,0,2.4-1.6c0-1.8,0.1-1.7-2.4-1.7s-2.4,0-2.4,1.5C49.9,108.5,49.9,109,50.1,109.4z
	 M50.2,114.3c0.1,0.2,0.3,0.2,1.3,0.2c1.3,0,1.4-0.1,1.4-1.2v-0.7h1.4v0.9c0,0.9,0.2,1.2,0.5,1.1c0.1-0.2,0.1-0.4,0.1-1.5v-1.3h-2.8
	v1.9h-1.4v-0.6c0-0.3,0.1-0.8,0.1-1.1c0.1-0.5,0.1-0.6,0-0.7c-0.3-0.2-0.4-0.1-0.6,0.4C49.8,112.5,49.8,113.5,50.2,114.3z
	 M52.5,104.8h0.4v-2.4h-0.3c-0.2,0-0.4,0-0.4,0.1c-0.1,0.4-0.1,0.8-0.1,1.2v1.1C52.1,104.8,52.5,104.8,52.5,104.8z"/>
<rect id="rect3454" x="34.8" y="125.6" class="st6" width="27.9" height="21.6"/>
<path id="path3456" class="st6" d="M48.5,125.6h13.4v21.1H35.1v-21.1H48.5z"/>
<rect id="rect3494" x="34.7" y="90.6" class="st7" width="28.2" height="28.6"/>
<path id="path4264" class="st7" d="M48.6,91.2h13.3V119H35.2V91.2H48.6z M44.5,94.1c0.2,0.2,0.3,0.3,1.3,0.3c1.4,0,1.5-0.1,1.5-1.2
	v-0.8h-3v0.7C44.2,93.4,44.3,93.8,44.5,94.1z M44.5,97c0.1,0,0.2-0.1,0.2-0.3c0-0.2,0.1-0.3,1.2-0.3h1.2V96c0-0.5-0.3-0.6-0.4-0.2
	c-0.1,0.4-0.1,0.3-1,0.3s-1,0-1-0.2c0-0.1-0.1-0.2-0.1-0.3c-0.3-0.2-0.4,0.1-0.3,0.8C44.2,96.8,44.3,97,44.5,97z M44.3,99.3
	c0.1,0.2,0.1,0.2,0,0.2s-0.1,0.1-0.1,0.2s0.2,0.2,1,0.2c0.4,0,0.7,0,1.1-0.1c0.1-0.2-0.3-0.4-0.8-0.4c-0.4,0-0.7-0.2-0.8-0.6v-0.1
	c0-0.2,0.1-0.2,0.8-0.2c0.5,0,0.8-0.1,0.8-0.2c0.1-0.3,0-0.3-0.9-0.3c-0.3,0-0.7,0-1,0.2C44.2,98.5,44.2,98.9,44.3,99.3z
	 M44.5,102.7c0.1,0,0.2-0.2,0.2-0.6c0.1-0.9,0.3-1,0.3-0.2s0,0.7,0.3,0.8c0.5,0.1,1-0.2,1.1-0.7c0.1-0.3,0.1-0.6-0.1-0.8
	c-0.2-0.3-0.4-0.3-0.9-0.4c-0.9-0.1-1.1,0.2-1.1,1.2C44.2,102.5,44.3,102.7,44.5,102.7z M44.5,105.3c0.3,0.3,0.5,0.2,0.5-0.1
	c0-0.1-0.1-0.2-0.1-0.3c-0.1,0-0.1-0.1-0.1-0.3c0-0.2,0.1-0.3,0.6-0.3H46v0.5c0,0.4,0,0.4,0.2,0.4s0.2-0.2,0.2-0.4s0.1-0.4,0.3-0.4
	s0.3-0.2,0-0.4c-0.1-0.1-0.3-0.2-0.4-0.3c-0.1-0.1-0.2-0.1-0.3,0s-0.2,0.2-0.6,0.2c-0.7,0-1.1,0.3-1.1,0.8
	C44.3,104.9,44.3,105.1,44.5,105.3z M44.5,108c0.2,0.2,0.5,0.3,0.8,0.3s0.5,0,0.8-0.1c0.4-0.4,0.5-1.1,0.2-1.6
	c-0.5-0.2-1.2-0.2-1.7,0C44.2,107,44.1,107.6,44.5,108z M44.5,110.8c0.2,0.3,1.5,0.3,1.7,0.1c0.3-0.5,0.3-1.2-0.2-1.6
	c-0.1-0.1-0.4-0.1-0.8-0.1s-0.7,0-0.8,0.3C44.1,109.9,44.2,110.4,44.5,110.8z M44.6,113.7c0.3,0.3,0.6,0.1,0.4-0.3s-0.2-0.6,0.5-0.6
	h0.6v0.4c0,0.3,0.1,0.4,0.2,0.4c0.1,0,0.3-0.3,0.3-0.6c0-0.1,0.1-0.2,0.3-0.3c0.3,0,0.4-0.4,0-0.5c-0.2,0-0.3-0.1-0.4-0.3
	c-0.1-0.2-0.2-0.2-0.3,0s-0.3,0.2-0.8,0.2c-0.7,0-1,0.2-1,0.8S44.4,113.6,44.6,113.7z M44.8,115.2c0.6,0,0.7,0,0.8,0.4
	s0.1,0.6-0.8,0.7c-0.5,0-0.7,0.1-0.7,0.2s0.2,0.2,0.9,0.2c1.2,0,1.4-0.3,1-1.2c-0.1-0.2,0-0.2,0.3-0.2c0.5,0,0.6-0.1,0.4-0.3
	c0.1-0.3-0.2-0.3-1.1-0.3c-1.2,0-1.4,0-1.4,0.3C44.2,115.1,44.5,115.2,44.8,115.2z M50.2,93.4c0.1,0,0.6,0.1,1,0.1H52v1.8h-2v0.6
	h2.3c2.4,0,2.7,0,2.5-0.5c-0.1-0.2-0.3-0.2-1.1-0.2h-1v-1.8h0.8c0.9,0,1.3-0.1,1.3-0.4c0-0.1-0.1-0.2-0.2-0.3
	c-1.5-0.1-3-0.2-4.5-0.1c-0.1,0-0.2,0.2-0.2,0.4C49.9,93.2,50,93.3,50.2,93.4z M50.2,100.6c0.3,0.1,0.4-0.2,0.4-1v-0.7l0.7-0.4
	c0.3-0.2,0.6-0.3,1-0.4c0.6,0.2,1.2,0.5,1.7,0.9c0,0.1,0.1,0.5,0.1,0.8c0,0.7,0.2,0.9,0.5,0.6c0.2-0.6,0.2-1.3,0-1.9
	c-0.6-0.7-1.4-1.1-2.3-1.2c-0.9,0.1-1.7,0.5-2.3,1.1c-0.1,0.4-0.1,0.8-0.1,1.2C50.1,100.5,50.1,100.6,50.2,100.6z M50.2,109.7
	c0.2,0.2,0.5,0.2,2.3,0.2c2.5,0,2.5,0,2.5-1.6s0.1-1.6-2.5-1.6c-1.5,0-2.2,0-2.3,0.2C49.9,107.8,49.9,108.8,50.2,109.7z M50.2,114.3
	c0.1,0.1,0.4,0.2,1.2,0.2c1.3,0,1.4-0.1,1.4-1.1v-0.7h1.4v0.9c0,0.8,0.1,0.9,0.3,0.9c0.4,0.1,0.4-0.2,0.4-1.4v-1.2H52v1.8h-1.4
	l0.1-0.8c0-0.5,0.1-1,0.1-1.2s0-0.4-0.2-0.4c-0.4-0.1-0.6,0.5-0.6,1.7C50,113.9,50,114.2,50.2,114.3z M52.4,104.8h0.4v-1
	c0-1.1-0.1-1.4-0.6-1.2c-0.2,0.1-0.2,0.3-0.2,1.2v1.1L52.4,104.8z"/>
<rect id="rect4270" x="19.4" y="51.9" class="st7" width="52" height="25.6"/>
<path id="path4272" class="st7" d="M44.5,52.9h22.1v24.8H65v1.6c0,1.8,0,1.9,1,1.9h0.6V83H65v1.7c0,1.9,0,2,1,2h0.6v0.6
	c0,0.5,0,0.6-0.2,0.6c-0.1,0-0.2,0.1-0.2,0.2s-0.1,0.2-0.3,0.2c-0.1,0-0.2,0-0.3,0.1s-0.2,0.1-0.3,0.1H65v1.6c0,1.9,0.1,2.1,1,2.1
	h0.6v0.6c0,0.5,0,0.6-0.2,0.6c-0.1,0-0.2,0.1-0.2,0.2s-0.1,0.2-0.4,0.2c-0.7,0-0.8,0.2-0.8,1.9s0.1,2,1,2h0.6v0.6
	c0,0.5,0,0.6-0.2,0.6c-0.1,0-0.1,0-0.2,0.1c-0.2,0.1-0.3,0.1-0.5,0.1c-0.3,0-0.5,0.1-0.5,0.2s0,0.1-0.1,0.2c-0.1,0-0.1,0.6-0.1,1.6
	c0,1.8,0,1.9,1,1.9h0.6v1.3l-0.5,0.1c-0.3,0-0.5,0.1-0.5,0.2s0,0.1-0.1,0.1c-0.4,0-0.5,0.4-0.5,1.9c0,1,0,1.6,0.1,1.6
	s0.1,0.1,0.1,0.2s0.2,0.2,0.7,0.2h0.7v1.2H66c-0.5,0-0.6,0-0.7,0.3s-0.1,0.3-0.2,0.3S65,111,65,112c0,1.9,0.1,2.1,1,2.1h0.6v0.5
	c0,0.6-0.1,0.7-0.9,0.7c-0.2,0-0.3,0.1-0.4,0.3c-0.1,0.2-0.1,0.3-0.2,0.3s-0.1,0.6-0.1,1.4s0,1.4,0.1,1.4s0.1,0.1,0.1,0.3
	s0,0.3,0.7,0.3h0.7v0.6c0,0.7-0.1,0.8-0.9,0.8c-0.2,0-0.3,0.1-0.4,0.3s-0.1,0.3-0.2,0.3c-0.1,0.5-0.2,1-0.1,1.5
	c-0.1,0.5,0,1,0.1,1.5c0.1,0,0.1,0.1,0.2,0.3s0.1,0.3,0.7,0.3h0.6v1.2H66c-0.5,0-0.6,0-0.7,0.3s-0.1,0.3-0.2,0.3
	c-0.1,0.5-0.2,1-0.1,1.5c-0.1,0.5,0,1,0.1,1.5c0.1,0,0.1,0.1,0.2,0.3s0.2,0.3,0.4,0.3c0.7,0,0.9,0.1,0.9,0.6s-0.2,0.6-0.9,0.6
	c-0.2,0-0.3,0.1-0.4,0.3s-0.1,0.3-0.2,0.3c-0.1,0.5-0.2,1-0.1,1.5c-0.1,0.5,0,1,0.1,1.5c0.1,0,0.1,0.1,0.2,0.3s0.2,0.3,0.4,0.3
	c0.7,0,0.9,0.1,0.9,0.8v0.6H66c-0.5,0-0.6,0-0.7,0.3s-0.1,0.3-0.2,0.3c-0.1,0.5-0.2,1-0.1,1.5c-0.1,0.5,0,1,0.1,1.5
	c0.1,0,0.1,0.1,0.2,0.3s0.2,0.3,0.4,0.3c0.7,0,0.9,0.1,0.9,0.7s-0.1,0.7-0.9,0.7c-0.2,0-0.3,0.1-0.4,0.3s-0.1,0.3-0.2,0.3
	s-0.1,0.6-0.1,1.4c0,0.8,0,1.4,0.1,1.4s0.1,0.1,0.1,0.2s0.1,0.2,0.5,0.2c0.2,0,0.3,0,0.5,0.1c0,0.1,0.1,0.1,0.2,0.1s0.2,0.3,0.2,1.6
	s0,1.6-0.2,1.6c-0.1,0-0.1,0-0.2,0.1c0,0.1-0.4,0.1-0.9,0.1h-0.9v-0.6c0-0.5,0-0.6-0.2-0.6c-0.1,0-0.2-0.1-0.2-0.2
	c0-0.1-0.1-0.2-0.2-0.2c-0.1,0-0.1,0-0.2-0.1c0-0.1-0.5-0.1-1.3-0.1c-1.6,0-1.7,0.1-1.7,1.2v0.7h-1.5v-0.6c0-0.2,0-0.4-0.1-0.6
	c-0.1,0-0.1-0.1-0.1-0.2c0-0.1-0.1-0.2-0.2-0.2c-0.1,0-0.1,0-0.2-0.1c0-0.1-0.5-0.1-1.4-0.1h-1.4v1.8h-0.9c-1.1,0-1.3-0.1-1.3-1
	c0-0.5,0-0.6-0.2-0.6c-0.1,0-0.1,0-0.2-0.1c0-0.1-0.5-0.1-1.4-0.1h-1.4v0.8c0,0.6,0,0.8-0.2,0.8c-0.1,0-0.1,0-0.2,0.1
	c0,0.1-0.4,0.1-0.9,0.1h-0.9v-0.8c0-0.6,0-0.8-0.2-0.8c-0.1,0-0.1,0-0.2-0.1c0-0.1-0.5-0.1-1.3-0.1c-1.6,0-1.7,0.1-1.7,1.2v0.7h-1.8
	v-0.8c0-0.6,0-0.8-0.2-0.8c-0.1,0-0.1,0-0.2-0.1c0-0.1-0.5-0.1-1.3-0.1c-1.6,0-1.8,0.1-1.8,1.2v0.7h-1.5v-0.8c0-0.6,0-0.8-0.2-0.8
	c-0.1,0-0.1,0-0.2-0.1c0-0.1-0.5-0.1-1.4-0.1s-1.4,0-1.4,0.1s-0.1,0.2-0.2,0.3c-0.2,0.2-0.2,0.5-0.2,0.8v0.6h-0.6
	c-0.2,0-0.4,0-0.6-0.1c0-0.1-0.1-0.1-0.2-0.1c-0.1,0-0.2-0.1-0.2-0.5c0-0.2,0-0.3-0.1-0.5c-0.1,0-0.1,0-0.1-0.1
	c0-0.4-0.4-0.5-1.7-0.5c-1.7,0-1.8,0.1-1.8,1.2v0.7h-0.5c-0.7,0-0.9-0.2-0.9-0.8c0-0.3-0.1-0.4-0.2-0.4s-0.1,0-0.2-0.1
	c0-0.4-0.4-0.5-1.7-0.5c-0.8,0-1.3,0-1.3,0.1s-0.1,0.1-0.2,0.1s-0.2,0.2-0.2,0.8v0.8h-1.6v-3.8H23c0.3,0,0.7-0.1,1-0.2
	c0.2-0.2,0.4-0.2,0.4-0.1c0,0.1,0.1,0.2,0.3,0.2s0.3,0.1,0.3,0.2c1,0.1,1.9,0.2,2.9,0.1c1,0.1,1.9,0,2.9-0.1c0-0.1,0.1-0.1,0.2-0.1
	s0.2-0.2,0.2-1.1c0-0.4,0-0.9-0.1-1.3c-0.1-0.2-0.5-0.2-3.3-0.2s-3.2,0-3.2,0.2c0,0.1,0,0.1-0.1,0.2c-0.1,0-0.1-0.2-0.1-0.4
	c0-0.3-0.1-0.6-0.4-0.8c-0.3-0.3-0.4-0.4-1.1-0.4h-0.7v-1.4H23c0.3,0,0.5,0,0.8-0.1c0.1-0.7,0.2-0.7,0.3-0.7c0.1,0,0.1,0,0.2-0.1
	c0-0.1,0-0.1,0.1-0.1s0.1,0.3,0.1,0.8c0,0.3,0,0.5,0.1,0.8c0.1,0,0.1,0.1,0.1,0.2c0,0.2,0.1,0.3,0.2,0.4c0.2,0.2,0.6,0.2,3.1,0.2
	c2.9,0,2.9,0,2.9-0.3c0-0.1,0.1-0.3,0.2-0.3s0.2-0.2,0.2-1.3s0-1.3-0.2-1.3c-0.1,0-0.1,0-0.2-0.1c0-0.1-0.5-0.1-1.1-0.2h-0.1
	c0.5,0,1-0.1,1-0.2c-0.9-0.1-1.9-0.2-2.8-0.1c-0.9-0.1-1.9,0-2.8,0.1c0,0.1,0.4,0.1,0.9,0.2l0,0c-0.5,0-0.9,0.1-0.9,0.2
	c0,0.1-0.1,0.1-0.2,0.1s-0.2,0.1-0.2,0.2c0,0.1,0,0.1-0.1,0.2c-0.1,0-0.1-0.4-0.1-1c0-1,0-1,0.3-0.9c0.1,0,0.3,0.1,0.3,0.2
	c2,0.2,3.9,0.2,5.9,0c0-0.1,0.1-0.1,0.2-0.1c0.3,0,0.3-2.3,0-2.6s-0.6-0.2-3.3-0.2c-3,0-3.1,0-3.1,0.3c0,0.1-0.1,0.3-0.2,0.3
	s-0.1,0.3-0.1,0.8c0,0.3,0,0.5-0.1,0.8c-0.1,0-0.1,0-0.1-0.1s-0.1-0.1-0.2-0.1s-0.2-0.4-0.2-0.5s-0.2-0.2-0.8-0.2h-0.8v-1.4h0.8
	c0.3,0,0.5,0,0.8-0.1c0-0.1,0-0.1,0.1-0.1c0.3,0,0.5-0.4,0.5-0.8s0.2-0.6,0.3-0.1l0.1,0.3H28c2.6,0,3.1,0,3.1-0.2
	c0-0.1,0.1-0.2,0.2-0.2s0.2-0.2,0.2-1.3s0-1.3-0.2-1.3c-0.1,0-0.1,0-0.2-0.1c0-0.1-0.5-0.1-1.1-0.2h-0.1c0.5,0,1-0.1,1-0.2
	c-0.9-0.1-1.9-0.2-2.8-0.1c-0.9-0.1-1.9,0-2.8,0.1c0,0.1,0.4,0.1,1,0.2l0,0c-0.5,0-1,0.1-1,0.2s-0.1,0.1-0.2,0.1s-0.2,0.1-0.2,0.2
	c0,0.2-0.2,0.2-0.4,0c-0.1-0.1-0.3-0.1-0.4-0.1s-0.1,0-0.1-0.1s-0.3-0.1-0.8-0.1h-0.8v-1.2h0.8c0.3,0,0.5,0,0.8-0.1
	c0-0.1,0-0.1,0.1-0.1c0.4,0,0.5-0.4,0.5-1.8c0-1.4-0.1-1.8-0.5-1.8c-0.1,0-0.1-0.1-0.1-0.2s-0.2-0.2-0.8-0.2h-0.8v-1.2h0.7
	c0.6,0,0.8,0,1.1-0.4s0.4-0.4,0.4-1.8s-0.1-1.8-0.5-1.8c-0.1,0-0.1,0-0.1-0.1s-0.3-0.1-0.8-0.1h-0.8v-1.4h0.7c0.6,0,0.8,0,1.1-0.4
	s0.4-0.4,0.4-1.8c0-0.9,0-1.4-0.1-1.4c-0.3-0.1-0.4-0.2-0.5-0.5c0-0.1-0.3-0.1-0.8-0.1h-0.8v-1h0.8c0.6,0,0.8-0.1,0.9-0.2
	s0.2-0.3,0.3-0.4c0.2-1,0.2-2.1,0-3.1c-0.3-0.1-0.4-0.2-0.5-0.5c0-0.1-0.3-0.1-0.8-0.1h-0.8v-1.2h0.9c0.7,0,0.9,0,0.9-0.2
	c0-0.1,0.1-0.2,0.2-0.2c0.2,0,0.2-0.3,0.2-1.5s0-1.5-0.2-1.8c-0.1-0.1-0.3-0.2-0.5-0.2c-0.1,0-0.1,0-0.2-0.1
	c-0.2-0.1-0.4-0.1-0.6-0.1h-0.6V103h0.8c0.7,0,0.9,0,1.1-0.3s0.2-0.4,0.2-1.1c0-0.9,0.1-1,0.4-0.7s0.8,0.2,4,0.2
	c1.3,0.1,2.7,0,4-0.1c0.2-0.1,0.2-0.7,0.2-6v-5.9h-4c-3.4,0-4,0-4.2,0.2s-0.4,0.2-0.4-0.2c0-0.3-0.2-0.6-0.4-0.6c-0.1,0-0.1,0-0.2,0
	s-0.1,0-0.2-0.1c-0.2-0.1-0.5-0.1-0.7-0.1h-0.7v-1.6h0.8c0.3,0,0.5,0,0.8-0.1c0-0.1,0.1-0.1,0.3-0.2c0.2-0.1,0.3-0.1,0.3-1.6
	c0-1.8,0.1-1.7-1.3-1.7h-0.9v-1.8h0.8c0.3,0,0.5,0,0.8-0.1c0-0.1,0.1-0.1,0.3-0.2c0.2-0.1,0.3-0.1,0.3-1.6v-1.6h-2.2v-21h1.6v4.6
	c0,5,0,5,0.6,5c0.1,0,0.1,0,0.2,0.1c0.9,0.1,1.8,0.2,2.7,0.1c0.9,0.1,1.8,0,2.7-0.1c0-0.1,0.3-0.1,0.7-0.1h0.7v-0.5
	c0-0.4,0.1-0.5,0.2-0.5s0.2-0.5,0.2-4c-0.1-1.3,0-2.7,0.1-4c0.1,0,0.1-0.1,0.1-0.2c0-0.1,0.1-0.2,0.2-0.2c0.1,0,0.1,0,0.2-0.1
	c0-0.1,0.1-0.1,0.3-0.1s0.3,0.1,0.3,0.2c0,0.1,0,0.1-0.1,0.2c-0.1,1.3-0.2,2.5-0.1,3.8c-0.1,1.3,0,2.5,0.1,3.8
	c0.1,0,0.1,0.4,0.1,0.8c0,0.6,0,0.8,0.2,0.8c0.1,0,0.1,0,0.2,0.1c0,0.1,0.2,0.1,0.5,0.1s0.5,0.1,0.5,0.2s0.4,0.2,2.6,0.2
	s2.6,0,2.6-0.2s0.1-0.2,0.3-0.2c0.1,0,0.2,0,0.3-0.1c0-0.1,0.2-0.1,0.4-0.1h0.4v-0.8c0-0.3,0-0.5,0.1-0.8c0.1-1.3,0.2-2.7,0.1-4
	c-0.1-1.3,0-2.7,0.1-4c0.1,0,0.1,1.9,0.2,4.6c0,3.5,0.1,4.6,0.2,4.6c0.1,0,0.2,0.1,0.2,0.2s0.1,0.2,0.3,0.2c0.1,0,0.2,0,0.3,0.1
	c0,0.1,0.1,0.1,0.2,0.1c0.1,0,0.2,0.1,0.2,0.2c0,0.2,0.4,0.2,2.8,0.2c2.4,0,2.8,0,2.8-0.2s0.1-0.2,0.5-0.2c0.2,0,0.3,0,0.5-0.1
	c0-0.1,0.1-0.1,0.3-0.1c0.1,0,0.3-0.1,0.3-0.2c0,0,0,0,0-0.1s0-0.2,0.1-0.3c0.1-1.4,0.2-2.8,0.1-4.2c-0.1-1.5,0-3,0.1-4.5
	c0-0.2,0.1-0.3,0.3-0.3c0.3,0,0.4,0.5,0.4,5.1c-0.1,1.4,0,2.8,0.1,4.2c0.1,0,0.1,0.1,0.1,0.2s0.1,0.2,0.2,0.2c0.1,0,0.1,0,0.2,0.1
	c0,0.1,0.1,0.1,0.2,0.1c0.1,0,0.2,0.1,0.2,0.2c0,0.2,0.4,0.2,3,0.2h3v-0.4l0.4-0.4v-4.6c0-5.1,0-4.9,0.8-4.9h0.4v6.4
	c0,5.6,0,6.4,0.2,6.4c0.1,0,0.1,0,0.2,0.1c0,0.1,0.5,0.1,1.3,0.1c1.1,0,1.4,0,1.5-0.2s0.2-0.9,0.2-7.8c0-6,0-7.6-0.2-7.7
	c-0.1,0-0.2-0.1-0.2-0.2c0-0.1-0.6-0.2-3.5-0.2h-3.5v9.4h-1.2v-8.8L54.2,54c-0.3-0.3-0.4-0.3-3.9-0.3c-3,0-3.6,0-3.6,0.2
	c0,0.1-0.1,0.2-0.2,0.2c-0.1,0-0.2,1.1-0.2,4.5v4.5h-1.2v-4.4c0-4,0-4.5-0.2-4.7s-0.6-0.2-3.5-0.2h-3.3v2.1c0.1,0.7,0,1.4-0.1,2.1
	c-0.2,0-0.2,0.1-0.2,0.2c0,0.1,0,0.1,0.1,0.2c0.1,0.8,0.2,1.6,0.1,2.4v2.4h-1.8v-4.6c0-3.9,0-4.5-0.2-4.5c-0.1,0-0.2-0.1-0.2-0.2
	c0-0.2-0.5-0.2-3.5-0.2s-3.5,0-3.5,0.2s-0.1,0.2-0.3,0.2h-0.3v9h-1.4v-4.4c0-4.4,0-4.5-0.3-4.7s-0.5-0.2-2.3-0.2h-2v-0.9
	C22.2,52.9,44.5,52.9,44.5,52.9z M25.3,115.5c0.1,0,0.1,0,0.2,0.1c0,0.1,0.1,0.2,0.2,0.3s0.2,0.5,0.2,1.5s0,1.3-0.2,1.5
	s-0.2,0.2-0.2,0.3s-0.1,0.1-0.2,0.1s-0.2,0.3-0.2,2.4s0,2.4,0.2,2.4c0.1,0,0.2,0.1,0.2,0.2s0,0.1,0.1,0.2c0.1,0,0.1,0.1,0.1,0.2
	s0.4,0.2,2.4,0.2s2.5,0,2.5-0.2s0.1-1.4,0.1-2.9c0-2.3,0-2.8-0.2-2.9s-0.2-0.5-0.2-1.4s0-1.2,0.2-1.3s0.3-5.7,0-6s-4.9-0.3-4.9,0
	c0,0.1,0,0.1-0.1,0.2c-0.1,0-0.1,0.1-0.1,0.2s-0.1,0.2-0.2,0.2c-0.2,0-0.2,0.3-0.2,2.4C24.9,115.3,25.1,115.5,25.3,115.5L25.3,115.5
	z M25.8,106.7c0,0.1,0.2,0.2,0.4,0.2c0.1,0,0.2,0,0.3,0.1c0,0.1,0.4,0.1,1,0.1c0.3,0,0.7,0,1-0.1c0-0.1,0.4-0.1,0.8-0.1
	c0.3,0,0.5,0,0.8,0.1c0,0.1,0.4,0.1,0.9,0.1c0.3,0,0.6,0,0.9-0.1c0-0.1,0.1-0.1,0.3-0.1s0.3-0.1,0.3-0.2s0-0.1,0.1-0.2
	c0.1,0,0.1-0.4,0.1-1.1c0-0.9,0-1.1-0.2-1.1c-0.1,0-0.2-0.1-0.2-0.2c-1-0.1-2-0.2-3-0.1c-1-0.1-2,0-3,0.1c0,0.1-0.1,0.1-0.2,0.1
	s-0.3,0-0.3,0.1C25.6,105.1,25.6,105.9,25.8,106.7z M26.4,86.3c0.2,0,0.3,0.1,0.3,0.2c1,0.1,1.9,0.2,2.9,0.1h2.9v-0.3
	c0-0.1,0-0.2,0.1-0.3c0.1,0,0.1-0.5,0.1-1.1s0-1.1-0.1-1.1s-0.1-0.1-0.1-0.3c0-0.2-0.1-0.3-0.2-0.4c-0.1,0-1.4-0.1-2.9-0.1
	c-2.3,0-2.7,0-2.7,0.2c0,0.1-0.1,0.2-0.2,0.2s-0.2,0.1-0.2,0.2s0,0.1-0.1,0.2C26,83.8,26,84.3,26,85C26.1,86.2,26.1,86.3,26.4,86.3z
	 M28.6,81.5c0.1,0,0.3,0.1,0.3,0.2c0,0,0,0,0,0.1v0.3h3.8v-0.3c0-0.2,0.1-0.3,0.1-0.4c0.2-3,0.2-5.9,0-8.9c-0.1,0-0.1-0.1-0.1-0.2
	s-0.4-0.2-2-0.2c-1.6,0-2,0-2,0.2c0,0.1-0.1,0.2-0.2,0.2c-0.2,0-0.2,0.6-0.2,4.5v4.5C28.2,81.5,28.5,81.5,28.6,81.5z M32.8,123.7
	c0.1,0.2,0.4,0.2,3.1,0.2c3.7,0,3.5,0.1,3.5-1.7c0-1.2,0-1.2-0.3-1.2c-0.1,0-0.2,0-0.3-0.1c0-0.1-0.4-0.1-0.8-0.1l0,0
	c0.4,0,0.8-0.1,0.8-0.2c-0.9-0.1-1.9-0.2-2.8-0.1c-0.9-0.1-1.9,0-2.8,0.1c0,0.1,0.4,0.1,0.8,0.2l0,0c-0.3,0-0.5,0-0.8,0.1
	c-0.1,0.1-0.1,0.1-0.2,0.1c-0.1,0-0.2,0.2-0.2,1.2C32.8,122.7,32.8,123.2,32.8,123.7z M34.3,147.2c0.2,0.2,0.4,0.3,14,0.3
	c8.9,0,13.8,0,13.8-0.1s0.1-0.2,0.3-0.2l0.3-0.1v-10.8c0-7.6,0-10.7-0.1-10.7s-0.2-0.1-0.3-0.2s-1.9-0.2-13.9-0.2s-13.8,0-13.9,0.2
	s-0.2,0.2-0.3,0.2s-0.1,3.2-0.1,10.7C34.1,146.7,34.1,146.9,34.3,147.2z M34.4,119.2c0,0.1,0.2,0.2,0.4,0.2c0.1,0,0.2,0,0.3,0.1
	c0,0.1,4.5,0.1,13.4,0.1s13.4,0,13.4-0.1s0.2-0.1,0.5-0.1h0.5v-14.2c0-12.9,0-14.2-0.2-14.3c-0.2-0.1-28.1-0.1-28.2,0
	C34.4,91,34.3,118.9,34.4,119.2z M35.4,84.6c0.1,0,0.1,0.4,0.1,0.9c0,0.3,0,0.6-0.1,0.9c-0.1,0-0.1,0.4-0.1,0.9c0,0.8,0,0.9,0.4,1.3
	s0.4,0.4,1.4,0.4c0.3,0,0.7,0,1-0.1c0-0.1,0.1-0.1,0.2-0.1c0.1,0,0.2-0.1,0.2-0.2s0-0.1,0.1-0.2c0.1-1,0.2-1.9,0.1-2.9
	c0.1-1,0-1.9-0.1-2.9c-0.1,0-0.1-0.1-0.1-0.3s-0.1-0.3-0.4-0.4c-0.4-0.1-0.8-0.1-1.2,0c-0.4-0.1-0.8,0.1-1.1,0.4
	c-0.4,0.4-0.4,0.4-0.4,1.4C35.2,84.2,35.4,84.6,35.4,84.6z M38.9,76c1,0.1,2.1,0,3.1-0.1c0-0.1,0.1-0.1,0.2-0.1s0.2-0.2,0.2-1.3
	v-1.3h-1.2c-0.8,0-1.2,0-1.2-0.2s-0.4-0.2-1-0.2c-0.8,0-0.9,0-0.9,0.2s-0.2,0.2-1.1,0.2h-1.2V76H38.9z M36.2,80.2
	c0.4,0.1,0.7,0.1,1.1,0.1c0.6,0,0.8,0,0.8-0.2c0-0.1,0.1-0.2,0.2-0.2c0.1,0,0.2,0,0.2,0.1c0.5,0.2,1.1,0.3,1.7,0.2
	c1.4,0.1,1.7,0.1,1.8-0.1c0.1-0.1,0.2-0.1,0.3-0.2c0.1,0,0.1-0.4,0.1-1.3c0-1.2-0.1-1.6-0.5-1.6c-0.1,0-0.1-0.1-0.1-0.2
	s-0.4-0.2-2.8-0.2c-2.4,0-2.8,0-2.8,0.2c0,0.1-0.1,0.2-0.2,0.2c-0.2,0-0.2,0.3-0.2,1.5C35.8,80.1,36,80.1,36.2,80.2z M47,123.9
	c3.7,0,3.5,0.1,3.5-1.7c0-1.2,0-1.2-0.3-1.2c-0.1,0-0.2,0-0.3-0.1c0-0.1-0.4-0.1-0.9-0.2l0,0c0.5,0,0.9-0.1,0.9-0.2
	c-0.9-0.1-1.9-0.2-2.8-0.1c-0.9-0.1-1.9,0-2.8,0.1c0,0.1,0.4,0.1,0.8,0.2l0,0c-0.3,0-0.7,0.1-1,0.2c-0.1,0.1-0.2,0.5-0.2,1.6v1.4
	C43.9,123.9,47,123.9,47,123.9z M46,87.9c0.1,0,0.1,0.1,0.1,0.2s0.5,0.2,3.4,0.2h3.4v-1.2h1c0.7,0,0.9,0,0.9-0.2
	c0-0.1,0.1-0.2,0.2-0.2c0.1,0,0.2-0.2,0.2-0.8c0-0.6,0-0.8-0.2-0.8c-0.1,0-0.2-0.1-0.2-0.2s-0.3-0.1-0.7-0.1c-1,0-1.1,0-1.1-0.7
	c0-0.2,0-0.4,0.1-0.6c0.1,0,0.1-0.3,0.1-0.6c0-0.3-0.1-0.7-0.4-0.9c-0.3-0.3-0.4-0.4-1.1-0.4H51v0.6c0,0.2,0,0.4-0.1,0.6
	c-0.1,0-0.1-0.3-0.1-0.6v-0.6H50c-0.6,0-0.8,0-0.8,0.2c0,0.1-0.1,0.2-0.2,0.2c-0.1,0-0.2-0.1-0.2-0.2s-0.2-0.2-0.8-0.2
	c-0.3,0-0.5,0-0.8,0.1c0,0.1-0.1,0.2-0.2,0.3s-0.2,0.2-0.3,0.2s-0.1,0.2-0.1,0.4S46.5,83,46.3,83s-0.3,0.1-0.4,0.2
	c-0.1,0.3-0.1,0.3-0.1,2.5C45.8,86.4,45.9,87.2,46,87.9z M56.8,123.9c3.8,0,3.5,0.1,3.5-1.7V121H60c-0.1,0-0.3,0-0.4-0.1
	c-0.2-0.1-0.5-0.2-0.7-0.2l0,0c0.3,0,0.5,0,0.8-0.1c-0.9-0.1-1.9-0.2-2.8-0.1c-0.9-0.1-1.9,0-2.8,0.1c0,0.1,0.4,0.1,0.8,0.2l0,0
	c-0.3,0-0.5,0-0.8,0.1C54,121,54,121,53.9,121c-0.1,0-0.2,0.2-0.2,1.4v1.4C53.7,123.8,56.9,123.9,56.8,123.9z M56.7,76
	c0.2,0,0.3,0.1,0.3,0.2s0.4,0.2,2.9,0.2h2.9v-0.3c0-0.1,0-0.2,0.1-0.3c0.1,0,0.1-0.1,0.1-0.2s0.1-0.2,0.2-0.2c0.1,0,0.2-0.2,0.2-0.8
	c0-0.6,0-0.8-0.3-1.1c-0.2-0.1-0.3-0.3-0.3-0.5c0-0.3-0.1-0.3-2.9-0.3c-2.5,0-2.9,0-2.9,0.2c0,0.1,0,0.1-0.1,0.2
	c-0.4,0-0.5,0.3-0.5,1.6V76C56.3,76,56.7,76,56.7,76z M56.7,79.9c0.2,0,0.3,0.1,0.3,0.2s0.4,0.2,2.8,0.2c2.6,0,2.8,0,3.1-0.2
	c0.1-0.1,0.3-0.3,0.3-0.4s0.1-0.1,0.2-0.1s0.2-0.2,0.2-0.9c0-0.7,0-0.9-0.2-0.9c-0.1,0-0.1,0-0.2-0.1c-0.1-0.1-0.1-0.2-0.2-0.3
	c-0.1-0.1-0.7-0.2-3.1-0.2c-1-0.1-1.9,0-2.9,0.1c0,0.1-0.1,0.1-0.3,0.1h-0.3V80C56.3,79.9,56.7,79.9,56.7,79.9z M56.4,87.1
	c0.1,0.1,0.2,0.2,0.3,0.2s0.1,0.1,0.1,0.2s0.4,0.2,2.8,0.2c1,0.1,1.9,0,2.9-0.1c0.1,0,0.2-0.2,0.2-0.3c0-0.1,0-0.1,0.1-0.2
	c0.1,0,0.1-0.1,0.1-0.2s0.1-0.2,0.2-0.2c0.1,0,0.2-0.2,0.2-0.9c0-0.7,0-0.9-0.2-0.9c-0.1,0-0.2-0.1-0.2-0.2s0-0.1-0.1-0.2
	c-0.1,0-0.1-0.1-0.1-0.2s-0.4-0.2-2.9-0.2s-3,0-3.1,0.2s-0.2,0.2-0.3,0.2C56.2,85.4,56.2,86.2,56.4,87.1z"/>
<path id="path4274" class="st7" d="M66.7,52.9c0.1,0,0.1,4.2,0.1,12.4s0,12.4-0.1,12.4s-0.1-4.2-0.1-12.4S66.6,52.9,66.7,52.9z"/>
<path id="path4276" class="st7" d="M66.7,52.9c0.1,0,0.1,4.2,0.1,12.4s0,12.4-0.1,12.4s-0.1-4.2-0.1-12.4S66.6,52.9,66.7,52.9z"/>
<path id="path4278" class="st7" d="M66.7,52.9c0.1,0,0.1,4.2,0.1,12.4s0,12.4-0.1,12.4s-0.1-4.2-0.1-12.4S66.6,52.9,66.7,52.9z"/>
<path id="path4282" class="st7" d="M42.3,56.8c11.9,0,18.3,2.2,18.3,6.3s-6.3,6.3-18.3,6.3S24,67.2,24,63.1S30.4,56.8,42.3,56.8z"/>
<rect id="rect5807" x="21.7" y="53" class="st8" width="45.2" height="97.8"/>
<rect id="rect4318" x="34.8" y="91.1" class="st9" width="27.4" height="28.4"/>
<rect id="rect3085" x="35.4" y="91.8" class="st10" width="26.1" height="26.8"/>
<g id="text3014">
	<text id="tspan3016" transform="matrix(1.04 0 0 1 40.0796 104.6699)" class="st1 st2 st11">HC-05</text>
	<text id="tspan3018" transform="matrix(1.04 0 0 1 41.2202 110.1201)" class="st1 st2 st12">Bluetooth</text>
</g>
<path id="path4280" class="st7" d="M50.2,98.7c0.1-0.4,1.7-1.2,2.2-1.2c0.8,0.2,1.6,0.6,2.2,1.1c0.2,0.4,0.1,1.8-0.1,1.8
	s-0.2-0.2-0.2-0.8v-0.8l-0.8-0.4c-1-0.5-1.2-0.5-2.1,0c-0.9,0.5-0.8,0.6-0.9,1.5c0,0.5-0.2,0.8-0.4,0.5C50,99.8,50.1,99.3,50.2,98.7
	z"/>
<rect id="rect4318-6" x="34.8" y="125.7" class="st9" width="27.4" height="21.5"/>
<rect id="Antenna" x="26" y="55.8" class="st13" width="37.9" height="19.3"/>
<rect id="rect5811" x="24.4" y="71.7" class="st8" width="37.5" height="3.9"/>
<rect id="rect5813" x="59.6" y="58.2" class="st8" width="2.4" height="13.6"/>
<rect id="rect5813-0" x="55.1" y="55.5" class="st8" width="2.4" height="13.6"/>
<rect id="rect5813-0-3" x="50.8" y="58.1" class="st8" width="2.4" height="13.6"/>
<rect id="rect5813-0-6" x="46.5" y="55.7" class="st8" width="2.4" height="13.6"/>
<rect id="rect5813-0-3-2" x="42.1" y="58.3" class="st8" width="2.4" height="13.6"/>
<rect id="rect5813-0-4" x="37.4" y="55.5" class="st8" width="2.4" height="13.6"/>
<rect id="rect5813-0-3-5" x="32.8" y="58.2" class="st8" width="2.4" height="13.6"/>
<rect id="rect5898" x="65.2" y="77.8" class="st14" width="5.6" height="3.5"/>
<rect id="rect5898-8" x="65.2" y="83.2" class="st14" width="5.6" height="3.5"/>
<rect id="rect5898-1" x="65.3" y="88.9" class="st14" width="5.6" height="3.5"/>
<rect id="rect5898-8-2" x="65.4" y="94.2" class="st14" width="5.6" height="3.5"/>
<rect id="rect5898-14" x="65.3" y="99.7" class="st14" width="5.6" height="3.5"/>
<rect id="rect5898-8-9" x="65.4" y="105.1" class="st14" width="5.6" height="3.5"/>
<rect id="rect5898-1-8" x="65.6" y="110.8" class="st14" width="5.6" height="3.5"/>
<rect id="rect5898-8-2-2" x="65.6" y="116.2" class="st14" width="5.6" height="3.5"/>
<rect id="rect5898-14-4" x="65.3" y="121.2" class="st14" width="5.6" height="3.5"/>
<rect id="rect5898-8-9-5" x="65.4" y="126.6" class="st14" width="5.6" height="3.5"/>
<rect id="rect5898-1-8-2" x="65.6" y="132.3" class="st14" width="5.6" height="3.5"/>
<rect id="rect5898-8-2-2-9" x="65.6" y="137.7" class="st14" width="5.6" height="3.5"/>
<rect id="rect5898-8-2-2-9-9" x="65.4" y="143.1" class="st14" width="5.6" height="3.5"/>
<rect id="rect5898-83" x="17.5" y="77.8" class="st14" width="5.6" height="3.5"/>
<rect id="rect5898-8-8" x="17.6" y="83.2" class="st14" width="5.6" height="3.5"/>
<rect id="rect5898-1-6" x="17.7" y="88.9" class="st14" width="5.6" height="3.5"/>
<rect id="rect5898-8-2-9" x="17.8" y="94.2" class="st14" width="5.6" height="3.5"/>
<rect id="rect5898-14-8" x="17.7" y="99.7" class="st14" width="5.6" height="3.5"/>
<rect id="rect5898-8-9-6" x="17.8" y="105.1" class="st14" width="5.6" height="3.5"/>
<rect id="rect5898-1-8-6" x="17.9" y="110.8" class="st14" width="5.6" height="3.5"/>
<rect id="rect5898-8-2-2-2" x="18" y="116.2" class="st14" width="5.6" height="3.5"/>
<rect id="rect5898-14-4-3" x="17.7" y="121.2" class="st14" width="5.6" height="3.5"/>
<rect id="rect5898-8-9-5-8" x="17.8" y="126.6" class="st14" width="5.6" height="3.5"/>
<rect id="rect5898-1-8-2-2" x="17.9" y="132.3" class="st14" width="5.6" height="3.5"/>
<rect id="rect5898-8-2-2-9-6" x="18" y="137.7" class="st14" width="5.6" height="3.5"/>
<rect id="rect5898-8-2-2-9-9-2" x="17.8" y="143.1" class="st14" width="5.6" height="3.5"/>
<rect id="rect5898-8-9-6-7" x="24.4" y="149.3" transform="matrix(1 -2.443444e-03 2.443444e-03 1 -0.3719 6.422866e-02)" class="st14" width="3.4" height="5.9"/>
<rect id="rect5898-1-8-6-5" x="29.9" y="149.2" transform="matrix(1 -2.443444e-03 2.443444e-03 1 -0.3717 7.766719e-02)" class="st14" width="3.4" height="5.9"/>
<rect id="rect5898-8-2-2-2-7" x="35" y="149.1" transform="matrix(1 -2.443444e-03 2.443444e-03 1 -0.3714 9.012860e-02)" class="st14" width="3.4" height="5.9"/>
<rect id="rect5898-14-4-3-8" x="39.8" y="149.3" transform="matrix(1 -2.443444e-03 2.443444e-03 1 -0.3719 0.1019)" class="st14" width="3.4" height="5.9"/>
<rect id="rect5898-8-9-5-8-2" x="45.1" y="149.2" transform="matrix(1 -2.443444e-03 2.443444e-03 1 -0.3716 0.1148)" class="st14" width="3.4" height="5.9"/>
<rect id="rect5898-1-8-2-2-7" x="50.5" y="149.2" transform="matrix(1 -2.443444e-03 2.443444e-03 1 -0.3716 0.128)" class="st14" width="3.4" height="5.9"/>
<rect id="rect5898-8-2-2-9-6-8" x="55.6" y="149.2" transform="matrix(1 -2.443444e-03 2.443444e-03 1 -0.3716 0.1405)" class="st14" width="3.4" height="5.9"/>
<rect id="rect5898-8-2-2-9-9-2-0" x="60.8" y="149.2" transform="matrix(1 -2.443444e-03 2.443444e-03 1 -0.3716 0.1532)" class="st14" width="3.4" height="5.9"/>
<rect id="rect3085-1" x="35.7" y="126.6" class="st10" width="25.9" height="20"/>
<rect id="rect5813-0-6-8" x="28.1" y="55.7" class="st8" width="2.4" height="13.6"/>
<rect id="KEY_WIRE" x="64.1" y="176.3" class="st15" width="4.5" height="20"/>
<rect id="KEY_VCC" x="55" y="176.3" class="st15" width="4.5" height="20"/>
<rect id="KEY_GND" x="46.2" y="176.3" class="st15" width="4.5" height="20"/>
<rect id="KEY_TXD" x="36.4" y="176.3" class="st15" width="4.5" height="20"/>
<rect id="KEY_RXD" x="27.4" y="176.3" class="st15" width="4.5" height="20"/>
<rect id="KEY_STATE" x="18.9" y="176.3" class="st15" width="4.5" height="20"/>
<path id="MESSAGE_x5F_BUBBLE" class="st16" d="M308.9,7.4H126.4c-5.9,0-10.8,2.9-10.8,6.5V71c0,0-8.1,24.6-32.4,50L157,95.8h151.9
	c5.9,0,10.8-2.9,10.8-6.5V13.8C319.7,10.3,314.8,7.4,308.9,7.4z"/>
<text id="MESSAGE_x5F_LINE_x5F_1" transform="matrix(1 0 0 1 135 49)" class="st17 st18">THIS IS LINE OF MES</text>
<text id="MESSAGE_x5F_LINE_x5F_1_2_" transform="matrix(1 0 0 1 135 69.1)" class="st17 st18">THIS IS LINE OF MES</text>
<text id="MESSAGE_x5F_LINE_x5F_1_1_" transform="matrix(1 0 0 1 135 30)" class="st17 st18">THIS IS LINE OF MES</text>
</svg>
