<svg id="svg2985" xmlns="http://www.w3.org/2000/svg" width="144.6" height="56.7" viewBox="0 0 144.6 56.7">
  <title>bluetooth</title>
  <rect id="rect3336" width="128" height="56.7" style="fill: #0a73b1"/>
  <g id="text3020">
    <text id="tspan3032" transform="translate(114.54 7.37) scale(1.04 1)" style="isolation: isolate;font-size: 4.9386372566223145px;fill: #fff;font-family: ArialMT, Arial">Key</text>
  </g>
  <g id="text3064">
    <text id="tspan3066" transform="translate(112.55 16.5) scale(1.04 1)" style="isolation: isolate;font-size: 4.9386372566223145px;fill: #fff;font-family: ArialMT, Arial">VCC</text>
  </g>
  <g id="text3064-1">
    <text id="tspan3066-7" transform="translate(111.98 25.21) scale(1.04 1)" style="isolation: isolate;font-size: 4.9386372566223145px;fill: #fff;font-family: ArialMT, Arial">GND</text>
  </g>
  <g id="text3064-1-4">
    <text id="tspan3066-7-0" transform="translate(113.12 34.97) scale(1.04 1)" style="isolation: isolate;font-size: 4.9386372566223145px;fill: #fff;font-family: ArialMT, Arial">TXD</text>
  </g>
  <g id="text3064-1-4-9">
    <text id="tspan3066-7-0-4" transform="translate(112.55 44.1) scale(1.04 1)" style="isolation: isolate;font-size: 4.9386372566223145px;fill: #fff;font-family: ArialMT, Arial">RXD</text>
  </g>
  <g id="text3064-1-4-9-8">
    <text id="tspan3066-7-0-4-8" transform="translate(112.35 52.54) scale(0.96 1)" style="isolation: isolate;font-size: 4.939407825469971px;fill: #fff;font-family: ArialMT, Arial">State</text>
  </g>
  <rect id="rect3450" x="38.9" y="9.7" width="28.8" height="27.9" style="fill: #28220b;fill-opacity: 0"/>
  <path id="path3452" d="M39.5,25.3V12H67.3V38.6H39.5Zm3.1,4a1.07,1.07,0,0,0,.1-1.1c-.1-.2-.1-.2,0-.3s.1-.7-.1-1-.3-.3-1-.3h-.8v2.8h.8C42.2,29.6,42.4,29.5,42.6,29.3Zm2.7.1c0-.1-.1-.2-.3-.2s-.3-.1-.3-1.2V26.8h-.5c-.4,0-.5,0-.5.2s.1.2.3.3.3.2.3,1,0,.9-.3.9c-.1,0-.3.1-.3.2s.2.2.8.2.8-.1.8-.2Zm3-.9c0-.9,0-1-.3-1s-.3.1-.3.7,0,.7-.4.8-.5.2-.5-.4-.1-1.1-.3-1.1-.2.2-.2.8c0,1.2,0,1.2,1,1.2h.9C48.3,29.5,48.3,28.5,48.3,28.5Zm2.7.9c0-.1-.1-.2-.5-.2q-.9,0-.9-.3c0-.1.3-.1.7-.1H51v-.4a.8.8,0,0,0-.9-.9c-.7,0-1,.3-1,1.1a1.29,1.29,0,0,0,.2.8,2,2,0,0,0,.9.1C50.8,29.6,51,29.5,51,29.4Zm2.7-.2c0-.4-.2-.5-.5-.2s-.5.1-.5-.5,0-.5.4-.6.4-.1.4-.2-.1-.2-.4-.2-.4-.1-.4-.3a.3.3,0,1,0-.6,0,.76.76,0,0,1-.2.4c-.2.2-.2.2,0,.3s.2.3.2.8c0,.7.2.9.9.9S53.7,29.5,53.7,29.2Zm2.8,0a1.51,1.51,0,0,0-.1-1.6,1.41,1.41,0,0,0-1.4.1,1.58,1.58,0,0,0-.1,1.5.86.86,0,0,0,.8.3C56.2,29.6,56.3,29.5,56.5,29.2Zm2.7.2c.2-.1.2-.4.2-.8,0-.7-.3-1-1-1s-1,.5-.9,1.2a1.17,1.17,0,0,0,.2.7,2.66,2.66,0,0,0,1.5-.1Zm2.8,0c.2-.2.2-.6,0-.6s-.2.1-.4.2c-.3.3-.5.1-.5-.5s0-.5.4-.5c.2,0,.4-.1.4-.2s0-.3-.4-.3-.4-.1-.4-.3c-.1-.4-.5-.4-.5,0,0,.2-.1.3-.2.3a.2.2,0,1,0,0,.4c.1,0,.2.2.2.6,0,.7.1.9.8.9a.45.45,0,0,0,.6,0Zm1.5-.5c0-.6.2-.9.7-.9.2,0,.2.1.2.6,0,.7.1,1,.3,1s.2-.2.2-.9c0-1.1-.1-1.2-.9-1.1-.5.1-.5.1-.5-.3s0-.4-.3-.4-.3.1-.3,1.4,0,1.4.3,1.4S63.5,29.5,63.5,28.9ZM41.7,23.8a5.85,5.85,0,0,0,.1-1v-1h1.8v.9c0,1,.1,1.3.5,1.1.2-.1.2-.4.2-2.5V19H44c-.4,0-.5.2-.5,1.2V21H41.7V20c0-1,0-1-.3-1h-.3v2.3c0,2.4,0,2.6.5,2.5Zm7,0c.1,0,.2-.2.2-.4s0-.3-.7-.3c-.9,0-.9-.1-1.4-1.1l-.4-.7.4-.8.4-.8.8-.1c.8-.1.8-.1.9-.4v-.3h-1c-.9,0-1,0-1.2.3a5.4,5.4,0,0,0-1,2.2A6.18,6.18,0,0,0,47,23.8a4.84,4.84,0,0,0,1.7,0Zm9,0c.4-.1.5-.6.5-2.4,0-2.4,0-2.4-1.6-2.4-1.8,0-1.7-.1-1.7,2.4s0,2.4,1.5,2.4a2.63,2.63,0,0,0,1.3,0Zm4.9-.1c.2-.1.2-.3.2-1.3,0-1.3-.1-1.4-1.2-1.4h-.7V19.6h.9c.9,0,1.2-.2,1.1-.5-.2-.1-.4-.1-1.5-.1H60.1v2.8H62v1.4h-.6c-.3,0-.8-.1-1.1-.1-.5-.1-.6-.1-.7,0-.2.3-.1.4.4.6a3.86,3.86,0,0,0,2.6,0Zm-9.5-2.3V21H50.7v.3c0,.2,0,.4.1.4a8.37,8.37,0,0,0,1.2.1h1.1v-.4Z" transform="translate(0 -1.5)" style="fill: #28220b;fill-opacity: 0"/>
  <rect id="rect3454" x="73.9" y="9.6" width="21.6" height="27.9" style="fill: #222b00;fill-opacity: 0"/>
  <path id="path3456" d="M73.9,25.4V12H95V38.8H73.9Z" transform="translate(0 -1.5)" style="fill: #222b00;fill-opacity: 0"/>
  <rect id="rect3494" x="38.9" y="9.5" width="28.6" height="28.2" style="fill-opacity: 0"/>
  <path id="path4264" d="M39.5,25.3V12H67.3V38.6H39.5Zm2.9,4.1c.2-.2.3-.3.3-1.3,0-1.4-.1-1.5-1.2-1.5h-.8v3h.7a2.15,2.15,0,0,0,1-.2Zm2.9,0c0-.1-.1-.2-.3-.2s-.3-.1-.3-1.2V26.8h-.4c-.5,0-.6.3-.2.4s.3.1.3,1,0,1-.2,1a1,1,0,0,0-.3.1c-.2.3.1.4.8.3C45.1,29.6,45.3,29.5,45.3,29.4Zm2.3.1c.2-.1.2-.1.2,0s.1.1.2.1.2-.2.2-1a8,8,0,0,0-.1-1.1c-.2-.1-.4.3-.4.8a.71.71,0,0,1-.7.8c-.2,0-.2-.1-.2-.8,0-.5-.1-.8-.2-.8-.3-.1-.3,0-.3.9a1.6,1.6,0,0,0,.2,1,1,1,0,0,0,1.1.1Zm3.4-.1c0-.1-.2-.2-.6-.2-.9-.1-1-.3-.2-.3s.7,0,.8-.3a1,1,0,0,0-.7-1.1.75.75,0,0,0-.8.1c-.3.2-.3.4-.4.9-.1.9.2,1.1,1.2,1.1C50.8,29.6,51,29.5,51,29.4Zm2.6,0c.3-.3.2-.5-.1-.5a1,1,0,0,0-.3.1c0,.1-.1.1-.3.1s-.3-.1-.3-.6v-.6h.5c.4,0,.4,0,.4-.2s-.2-.2-.4-.2-.4-.1-.4-.3-.2-.3-.4,0c-.1.1-.2.3-.3.4s-.1.2,0,.3.2.2.2.6c0,.7.3,1.1.8,1.1a1.07,1.07,0,0,0,.6-.2Zm2.7,0a.86.86,0,0,0,.3-.8,1.72,1.72,0,0,0-.1-.8,1.36,1.36,0,0,0-1.6-.2,2.48,2.48,0,0,0,0,1.7A1.06,1.06,0,0,0,56.3,29.4Zm2.8,0c.3-.2.3-1.5.1-1.7a1.23,1.23,0,0,0-1.6.2c-.1.1-.1.4-.1.8s0,.7.3.8a1.23,1.23,0,0,0,1.3-.1Zm2.9-.1c.3-.3.1-.6-.3-.4s-.6.2-.6-.5v-.6h.4c.3,0,.4-.1.4-.2s-.3-.3-.6-.3q-.15,0-.3-.3c0-.3-.4-.4-.5,0a.54.54,0,0,1-.3.4q-.3.15,0,.3c.2.1.2.3.2.8,0,.7.2,1,.8,1s.7,0,.8-.2Zm1.5-.3c0-.6,0-.7.4-.8s.6-.1.7.8c0,.5.1.7.2.7s.2-.2.2-.9c0-1.2-.3-1.4-1.2-1-.2.1-.2,0-.2-.3,0-.5-.1-.6-.3-.4-.3-.1-.3.2-.3,1.1,0,1.2,0,1.4.3,1.4C63.4,29.6,63.5,29.4,63.5,29ZM41.7,23.7c0-.1.1-.6.1-1v-.8h1.8v2h.6V21.6c0-2.4,0-2.7-.5-2.5-.2.1-.2.3-.2,1.1v1H41.7v-.8c0-.9-.1-1.3-.4-1.3-.1,0-.2.1-.3.2a33.43,33.43,0,0,0-.1,4.5c0,.1.2.2.4.2a.45.45,0,0,0,.4-.3Zm7.2-.1c.1-.3-.2-.4-1-.4h-.7l-.4-.7a3.38,3.38,0,0,1-.4-1,3.93,3.93,0,0,1,.9-1.7c.1,0,.5-.1.8-.1.7,0,.9-.2.6-.5a3,3,0,0,0-1.9,0,3.68,3.68,0,0,0-1.2,2.3,4.15,4.15,0,0,0,1.1,2.3,3.14,3.14,0,0,0,1.2.1c.9-.1,1-.1,1-.3Zm9.1.1c.2-.2.2-.5.2-2.3,0-2.5,0-2.5-1.6-2.5S55,18.8,55,21.4c0,1.5,0,2.2.2,2.3a6.6,6.6,0,0,0,2.8,0Zm4.6,0c.1-.1.2-.4.2-1.2,0-1.3-.1-1.4-1.1-1.4H61V19.7h.9c.8,0,.9-.1.9-.3.1-.4-.2-.4-1.4-.4H60.2v2.8H62v1.4l-.8-.1c-.5,0-1-.1-1.2-.1s-.4,0-.4.2c-.1.4.5.6,1.7.6.9,0,1.2,0,1.3-.1Zm-9.5-2.3V21h-1c-1.1,0-1.4.1-1.2.6.1.2.3.2,1.2.2h1.1l-.1-.4Z" transform="translate(0 -1.5)" style="fill-opacity: 0"/>
  <rect id="rect4270" x="0.2" y="1" width="25.6" height="52" style="fill-opacity: 0"/>
  <path id="path4272" d="M1.2,29.4V7.3H26V8.9h1.6c1.8,0,1.9,0,1.9-1V7.3h1.8V8.9H33c1.9,0,2,0,2-1V7.3h.6c.5,0,.6,0,.6.2a.22.22,0,0,0,.2.2c.1,0,.2.1.2.3a.44.44,0,0,0,.1.3.44.44,0,0,1,.1.3v.3h1.6c1.9,0,2.1-.1,2.1-1V7.3h.6c.5,0,.6,0,.6.2a.22.22,0,0,0,.2.2c.1,0,.2.1.2.4,0,.7.2.8,1.9.8s2-.1,2-1V7.3h.6c.5,0,.6,0,.6.2a.35.35,0,0,0,.1.2,1.21,1.21,0,0,1,.1.5c0,.3.1.5.2.5a.35.35,0,0,1,.2.1c0,.1.6.1,1.6.1,1.8,0,1.9,0,1.9-1V7.3h1.3l.1.5c0,.3.1.5.2.5a.1.1,0,0,1,.1.1c0,.4.4.5,1.9.5,1,0,1.6,0,1.6-.1s.1-.1.2-.1.2-.2.2-.7V7.3h1.2v.6c0,.5,0,.6.3.7s.3.1.3.2.6.1,1.6.1c1.9,0,2.1-.1,2.1-1V7.3h.5c.6,0,.7.1.7.9,0,.2.1.3.3.4s.3.1.3.2.6.1,1.4.1,1.4,0,1.4-.1.1-.1.3-.1.3,0,.3-.7V7.3h.6c.7,0,.8.1.8.9,0,.2.1.3.3.4s.3.1.3.2a4.2,4.2,0,0,0,1.5.1,4.2,4.2,0,0,0,1.5-.1c0-.1.1-.1.3-.2s.3-.1.3-.7V7.3h1.2v.6c0,.5,0,.6.3.7s.3.1.3.2a4.2,4.2,0,0,0,1.5.1A4.2,4.2,0,0,0,78,8.8c0-.1.1-.1.3-.2s.3-.2.3-.4c0-.7.1-.9.6-.9s.6.2.6.9c0,.2.1.3.3.4s.3.1.3.2a4.2,4.2,0,0,0,1.5.1,4.2,4.2,0,0,0,1.5-.1c0-.1.1-.1.3-.2s.3-.2.3-.4c0-.7.1-.9.8-.9h.6v.6c0,.5,0,.6.3.7s.3.1.3.2a4.2,4.2,0,0,0,1.5.1A4.2,4.2,0,0,0,89,8.8c0-.1.1-.1.3-.2s.3-.2.3-.4c0-.7.1-.9.7-.9s.7.1.7.9c0,.2.1.3.3.4s.3.1.3.2.6.1,1.4.1,1.4,0,1.4-.1.1-.1.2-.1.2-.1.2-.5a1.21,1.21,0,0,1,.1-.5c.1,0,.1-.1.1-.2s.3-.2,1.6-.2,1.6,0,1.6.2a.35.35,0,0,0,.1.2c.1,0,.1.4.1.9v.9h-.6c-.5,0-.6,0-.6.2a.22.22,0,0,1-.2.2.22.22,0,0,0-.2.2.35.35,0,0,1-.1.2c-.1,0-.1.5-.1,1.3,0,1.6.1,1.7,1.2,1.7h.7v1.5h-.6a2.18,2.18,0,0,0-.6.1c0,.1-.1.1-.2.1a.22.22,0,0,0-.2.2.35.35,0,0,1-.1.2c-.1,0-.1.5-.1,1.4v1.4h1.8v.9c0,1.1-.1,1.3-1,1.3-.5,0-.6,0-.6.2a.35.35,0,0,1-.1.2c-.1,0-.1.5-.1,1.4v1.4h.8c.6,0,.8,0,.8.2a.35.35,0,0,0,.1.2c.1,0,.1.4.1.9v.9h-.8c-.6,0-.8,0-.8.2a.35.35,0,0,1-.1.2c-.1,0-.1.5-.1,1.3,0,1.6.1,1.7,1.2,1.7h.7V31h-.8c-.6,0-.8,0-.8.2a.35.35,0,0,1-.1.2c-.1,0-.1.5-.1,1.3,0,1.6.1,1.8,1.2,1.8h.7V36h-.8c-.6,0-.8,0-.8.2a.35.35,0,0,1-.1.2c-.1,0-.1.5-.1,1.4s0,1.4.1,1.4.2.1.3.2a1.29,1.29,0,0,0,.8.2h.6v.6a2.18,2.18,0,0,1-.1.6c-.1,0-.1.1-.1.2s-.1.2-.5.2a1.21,1.21,0,0,0-.5.1.1.1,0,0,1-.1.1c-.4,0-.5.4-.5,1.7,0,1.7.1,1.8,1.2,1.8h.7v.5c0,.7-.2.9-.8.9-.3,0-.4.1-.4.2a.35.35,0,0,1-.1.2c-.4,0-.5.4-.5,1.7,0,.8,0,1.3.1,1.3s.1.1.1.2.2.2.8.2h.8v1.6H95v-.8a2.15,2.15,0,0,0-.2-1c-.2-.2-.2-.4-.1-.4s.2-.1.2-.3.1-.3.2-.3a15.06,15.06,0,0,0,.1-2.9,13,13,0,0,0-.1-2.9c-.1,0-.1-.1-.1-.2s-.2-.2-1.1-.2a3.81,3.81,0,0,0-1.3.1c-.2.1-.2.5-.2,3.3s0,3.2.2,3.2a.35.35,0,0,1,.2.1c0,.1-.2.1-.4.1a1,1,0,0,0-.8.4c-.3.3-.4.4-.4,1.1v.7H89.8v-.8a3.78,3.78,0,0,0-.1-.8c-.7-.1-.7-.2-.7-.3a.35.35,0,0,0-.1-.2.1.1,0,0,1-.1-.1c0-.1.3-.1.8-.1a3.78,3.78,0,0,0,.8-.1c0-.1.1-.1.2-.1A.76.76,0,0,0,91,49c.2-.2.2-.6.2-3.1,0-2.9,0-2.9-.3-2.9-.1,0-.3-.1-.3-.2s-.2-.2-1.3-.2-1.3,0-1.3.2a.35.35,0,0,1-.1.2c-.1,0-.1.5-.2,1.1v.1c0-.5-.1-1-.2-1a13,13,0,0,0-.1,2.8,12.31,12.31,0,0,0,.1,2.8c.1,0,.1-.4.2-.9v0c0,.5.1.9.2.9s.1.1.1.2a.22.22,0,0,0,.2.2.35.35,0,0,1,.2.1c0,.1-.4.1-1,.1-1,0-1,0-.9-.3,0-.1.1-.3.2-.3a38.73,38.73,0,0,0,0-5.9c-.1,0-.1-.1-.1-.2,0-.3-2.3-.3-2.6,0s-.2.6-.2,3.3c0,3,0,3.1.3,3.1.1,0,.3.1.3.2s.3.1.8.1a3.78,3.78,0,0,1,.8.1.1.1,0,0,1-.1.1c-.1,0-.1.1-.1.2s-.4.2-.5.2-.2.2-.2.8v.8H83.7v-.8a3.78,3.78,0,0,0-.1-.8.1.1,0,0,1-.1-.1c0-.3-.4-.5-.8-.5s-.6-.2-.1-.3l.3-.1V45.9c0-2.6,0-3.1-.2-3.1a.22.22,0,0,1-.2-.2c0-.1-.2-.2-1.3-.2s-1.3,0-1.3.2a.35.35,0,0,1-.1.2c-.1,0-.1.5-.2,1.1V44c0-.5-.1-1-.2-1a13,13,0,0,0-.1,2.8,12.31,12.31,0,0,0,.1,2.8c.1,0,.1-.4.2-1v0c0,.5.1,1,.2,1s.1.1.1.2a.22.22,0,0,0,.2.2c.2,0,.2.2,0,.4a1,1,0,0,0-.1.4.1.1,0,0,1-.1.1c-.1,0-.1.3-.1.8v.8H78.6v-.8a3.78,3.78,0,0,0-.1-.8.1.1,0,0,1-.1-.1c0-.4-.4-.5-1.8-.5s-1.8.1-1.8.5c0,.1-.1.1-.2.1s-.2.2-.2.8v.8H73.2v-.7c0-.6,0-.8-.4-1.1s-.4-.4-1.8-.4-1.8.1-1.8.5a.1.1,0,0,1-.1.1c-.1,0-.1.3-.1.8v.8H67.6v-.7c0-.6,0-.8-.4-1.1s-.4-.4-1.8-.4c-.9,0-1.4,0-1.4.1a.64.64,0,0,1-.5.5c-.1,0-.1.3-.1.8v.8h-1v-.8c0-.6-.1-.8-.2-.9s-.3-.2-.4-.3a8.06,8.06,0,0,0-3.1,0,.64.64,0,0,1-.5.5c-.1,0-.1.3-.1.8v.8H56.9v-.9c0-.7,0-.9-.2-.9a.22.22,0,0,1-.2-.2c0-.2-.3-.2-1.5-.2s-1.5,0-1.8.2a1.06,1.06,0,0,0-.2.5.35.35,0,0,1-.1.2,2.18,2.18,0,0,0-.1.6v.6H51.3v-.8c0-.7,0-.9-.3-1.1s-.4-.2-1.1-.2c-.9,0-1-.1-.7-.4s.2-.8.2-4a30.64,30.64,0,0,0-.1-4c-.1-.2-.7-.2-6-.2H37.4v4c0,3.4,0,4,.2,4.2s.2.4-.2.4a.53.53,0,0,0-.6.6.35.35,0,0,1-.1.2,2.44,2.44,0,0,0-.1.7v.7H35v-.8a3.78,3.78,0,0,0-.1-.8c-.1,0-.1-.1-.2-.3s-.1-.3-1.6-.3c-1.8,0-1.7-.1-1.7,1.3v.9H29.6v-.8a3.78,3.78,0,0,0-.1-.8c-.1,0-.1-.1-.2-.3s-.1-.3-1.6-.3H26.1v2.2H5.1V50H9.7c5,0,5,0,5-.6a.35.35,0,0,1,.1-.2,11.68,11.68,0,0,0,.1-2.7,11.68,11.68,0,0,0-.1-2.7c-.1,0-.1-.3-.1-.7v-.7h-.5c-.4,0-.5-.1-.5-.2s-.5-.2-4-.2a24.74,24.74,0,0,1-4-.1c0-.1-.1-.1-.2-.1a.22.22,0,0,1-.2-.2.35.35,0,0,0-.1-.2c-.1,0-.1-.1-.1-.3s.1-.3.2-.3a.35.35,0,0,1,.2.1,23,23,0,0,0,3.8.1,23,23,0,0,0,3.8-.1c0-.1.4-.1.8-.1.6,0,.8,0,.8-.2a.35.35,0,0,1,.1-.2c.1,0,.1-.2.1-.5s.1-.5.2-.5.2-.4.2-2.6,0-2.6-.2-2.6-.2-.1-.2-.3a.44.44,0,0,0-.1-.3c-.1,0-.1-.2-.1-.4v-.4h-.8a2.77,2.77,0,0,1-.8-.1,24.74,24.74,0,0,0-4-.1,26.68,26.68,0,0,1-4-.1c0-.1,1.9-.1,4.6-.2,3.5,0,4.6-.1,4.6-.2a.22.22,0,0,1,.2-.2c.1,0,.2-.1.2-.3a.44.44,0,0,1,.1-.3c.1,0,.1-.1.1-.2a.22.22,0,0,1,.2-.2c.2,0,.2-.4.2-2.8s0-2.8-.2-2.8-.2-.1-.2-.5a1.21,1.21,0,0,0-.1-.5c-.1,0-.1-.1-.1-.3a.27.27,0,0,0-.3-.3.44.44,0,0,1-.3-.1,27.57,27.57,0,0,0-4.2-.1,40.47,40.47,0,0,1-4.5-.1.32.32,0,0,1-.3-.3c0-.3.5-.4,5.1-.4a27.57,27.57,0,0,0,4.2-.1c0-.1.1-.1.2-.1a.22.22,0,0,0,.2-.2.35.35,0,0,1,.1-.2c.1,0,.1-.1.1-.2a.22.22,0,0,1,.2-.2c.2,0,.2-.4.2-3v-3H15l-.4-.4H10c-5.1,0-4.9,0-4.9-.8v-.4h6.4c5.6,0,6.4,0,6.4-.2a.35.35,0,0,1,.1-.2c.1,0,.1-.5.1-1.3,0-1.1,0-1.4-.2-1.5s-.9-.2-7.8-.2c-6,0-7.6,0-7.7.2a.22.22,0,0,1-.2.2c-.1,0-.2.6-.2,3.5v3.5h9.4v1.2H2.6l-.3.3c-.3.3-.3.4-.3,3.9,0,3,0,3.6.2,3.6a.22.22,0,0,1,.2.2c0,.1,1.1.2,4.5.2h4.5v1.2H7c-4,0-4.5,0-4.7.2s-.2.6-.2,3.5v3.3H4.2a7.22,7.22,0,0,1,2.1.1c0,.2.1.2.2.2a.35.35,0,0,0,.2-.1,9.31,9.31,0,0,1,2.4-.1h2.4v1.8H6.9c-3.9,0-4.5,0-4.5.2a.22.22,0,0,1-.2.2c-.2,0-.2.5-.2,3.5S2,45,2.2,45s.2.1.2.3v.3h9V47H7c-4.4,0-4.5,0-4.7.3s-.2.5-.2,2.3v2H1.2V29.4ZM63.8,48.6a.35.35,0,0,1,.1-.2c.1,0,.2-.1.3-.2s.5-.2,1.5-.2,1.3,0,1.5.2.2.2.3.2.1.1.1.2.3.2,2.4.2,2.4,0,2.4-.2a.22.22,0,0,1,.2-.2.35.35,0,0,0,.2-.1c0-.1.1-.1.2-.1s.2-.4.2-2.4,0-2.5-.2-2.5-1.4-.1-2.9-.1c-2.3,0-2.8,0-2.9.2s-.5.2-1.4.2-1.2,0-1.3-.2-5.7-.3-6,0-.3,4.9,0,4.9a.35.35,0,0,1,.2.1c0,.1.1.1.2.1a.22.22,0,0,1,.2.2c0,.2.3.2,2.4.2s2.3-.2,2.3-.3ZM55,48.1c.1,0,.2-.2.2-.4a.44.44,0,0,1,.1-.3c.1,0,.1-.4.1-1a4.54,4.54,0,0,0-.1-1c-.1,0-.1-.4-.1-.8a2.77,2.77,0,0,1,.1-.8c.1,0,.1-.4.1-.9a4.13,4.13,0,0,0-.1-.9c-.1,0-.1-.1-.1-.3s-.1-.3-.2-.3a.35.35,0,0,1-.2-.1c0-.1-.4-.1-1.1-.1-.9,0-1.1,0-1.1.2a.22.22,0,0,1-.2.2,15,15,0,0,0-.1,3,14.32,14.32,0,0,0,.1,3c.1,0,.1.1.1.2s0,.3.1.3a9.63,9.63,0,0,0,2.4,0Zm-20.4-.6c0-.2.1-.3.2-.3a15.06,15.06,0,0,0,.1-2.9V41.4h-.3a.44.44,0,0,1-.3-.1c0-.1-.5-.1-1.1-.1s-1.1,0-1.1.1-.1.1-.3.1a.52.52,0,0,0-.4.2c0,.1-.1,1.4-.1,2.9,0,2.3,0,2.7.2,2.7a.22.22,0,0,1,.2.2.22.22,0,0,0,.2.2.35.35,0,0,1,.2.1c0,.1.5.1,1.2.1C34.5,47.8,34.6,47.8,34.6,47.5Zm-4.8-2.2a.27.27,0,0,1,.3-.3h.3V41.2h-.3c-.2,0-.3-.1-.4-.1a66.08,66.08,0,0,0-8.9,0c0,.1-.1.1-.2.1s-.2.4-.2,2,0,2,.2,2a.22.22,0,0,1,.2.2c0,.2.6.2,4.5.2h4.5v-.3ZM72,41c.2-.1.2-.4.2-3.1,0-3.7.1-3.5-1.7-3.5-1.2,0-1.2,0-1.2.3a.44.44,0,0,1-.1.3c-.1,0-.1.4-.1.8v0c0-.4-.1-.8-.2-.8a13,13,0,0,0-.1,2.8,13,13,0,0,0,.1,2.8c.1,0,.1-.4.2-.8v0a3.78,3.78,0,0,0,.1.8.35.35,0,0,1,.1.2c0,.1.2.2,1.2.2A6.61,6.61,0,0,0,72,41Zm23.5-1.5c.2-.2.3-.4.3-14,0-8.9,0-13.8-.1-13.8s-.2-.1-.2-.3l-.1-.3H84.6c-7.6,0-10.7,0-10.7.1s-.1.2-.2.3-.2,1.9-.2,13.9,0,13.8.2,13.9.2.2.2.3,3.2.1,10.7.1c10.4.1,10.6.1,10.9-.2Zm-28-.1c.1,0,.2-.2.2-.4a.44.44,0,0,1,.1-.3c.1,0,.1-4.5.1-13.4s0-13.4-.1-13.4-.1-.2-.1-.5v-.5H53.5c-12.9,0-14.2,0-14.3.2s-.1,28.1,0,28.2,28,.2,28.3.1Zm-34.6-1c0-.1.4-.1.9-.1a4.13,4.13,0,0,1,.9.1c0,.1.4.1.9.1.8,0,.9,0,1.3-.4s.4-.4.4-1.4a4.54,4.54,0,0,0-.1-1c-.1,0-.1-.1-.1-.2a.22.22,0,0,0-.2-.2.35.35,0,0,1-.2-.1,13,13,0,0,0-2.9-.1,13.64,13.64,0,0,0-2.9.1c0,.1-.1.1-.3.1s-.3.1-.4.4a4.74,4.74,0,0,0,0,1.2,1.25,1.25,0,0,0,.4,1.1c.4.4.4.4,1.4.4.5.2.9.1.9,0Zm-8.6-3.5a15,15,0,0,0-.1-3.1c-.1,0-.1-.1-.1-.2s-.2-.2-1.3-.2H21.5v1.2c0,.8,0,1.2-.2,1.2s-.2.4-.2,1c0,.8,0,.9.2.9s.2.2.2,1.1V38h2.8Zm4.2,2.8a10.42,10.42,0,0,0,.1-1.1c0-.6,0-.8-.2-.8a.21.21,0,0,1-.1-.4,4.11,4.11,0,0,0,.2-1.7c.1-1.4.1-1.7-.1-1.8a1.44,1.44,0,0,1-.2-.3c0-.1-.4-.1-1.3-.1-1.2,0-1.6.1-1.6.5,0,.1-.1.1-.2.1s-.2.4-.2,2.8,0,2.8.2,2.8a.22.22,0,0,1,.2.2c0,.2.3.2,1.5.2,1.6-.1,1.6-.2,1.7-.4ZM72.2,26.9c0-3.7.1-3.5-1.7-3.5-1.2,0-1.2,0-1.2.3a.44.44,0,0,1-.1.3c-.1,0-.1.4-.2.9v0c0-.5-.1-.9-.2-.9a13,13,0,0,0-.1,2.8,13,13,0,0,0,.1,2.8c.1,0,.1-.4.2-.8v0a2.15,2.15,0,0,0,.2,1c.1.1.5.2,1.6.2h1.4V26.9Zm-36,1c0-.1.1-.1.2-.1s.2-.5.2-3.4V21H35.4V20c0-.7,0-.9-.2-.9a.22.22,0,0,1-.2-.2c0-.1-.2-.2-.8-.2s-.8,0-.8.2a.22.22,0,0,1-.2.2c-.1,0-.1.3-.1.7,0,1,0,1.1-.7,1.1a2.18,2.18,0,0,1-.6-.1c0-.1-.3-.1-.6-.1a1,1,0,0,0-.9.4c-.3.3-.4.4-.4,1.1v.7h.6a2.18,2.18,0,0,1,.6.1c0,.1-.3.1-.6.1h-.6v.8c0,.6,0,.8.2.8a.2.2,0,0,1,0,.4c-.1,0-.2.2-.2.8a2.77,2.77,0,0,0,.1.8c.1,0,.2.1.3.2s.2.2.2.3.2.1.4.1.4.1.4.2a.76.76,0,0,0,.2.4c.3.1.3.1,2.5.1A19.68,19.68,0,0,0,36.2,27.9ZM72.2,17c0-3.8.1-3.5-1.7-3.5H69.3v.4a1,1,0,0,1-.1.4,3.13,3.13,0,0,0-.2.7v0a3.78,3.78,0,0,0-.1-.8,12.31,12.31,0,0,0-.1,2.8,13,13,0,0,0,.1,2.8c.1,0,.1-.4.2-.8v0a3.78,3.78,0,0,0,.1.8.35.35,0,0,1,.1.2c0,.1.2.2,1.4.2h1.4l.1-3.2Zm-47.9.2c0-.2.1-.3.2-.3s.2-.4.2-2.9V11.1h-.3a.44.44,0,0,1-.3-.1c0-.1-.1-.1-.2-.1a.22.22,0,0,1-.2-.2c0-.1-.2-.2-.8-.2s-.8,0-1.1.3a.91.91,0,0,1-.5.3c-.3,0-.3.1-.3,2.9,0,2.5,0,2.9.2,2.9a.35.35,0,0,1,.2.1c0,.4.3.5,1.6.5h1.3v-.3Zm3.9,0c0-.2.1-.3.2-.3s.2-.4.2-2.8c0-2.6,0-2.8-.2-3.1-.1-.1-.3-.3-.4-.3s-.1-.1-.1-.2-.2-.2-.9-.2-.9,0-.9.2a.35.35,0,0,1-.1.2,1.44,1.44,0,0,0-.3.2c-.1.1-.2.7-.2,3.1a13.64,13.64,0,0,0,.1,2.9c.1,0,.1.1.1.3v.3h2.6C28.2,17.5,28.2,17.2,28.2,17.2Zm7.2.2c.1-.1.2-.2.2-.3s.1-.1.2-.1.2-.4.2-2.8a16.51,16.51,0,0,0-.1-2.9c0-.1-.2-.2-.3-.2a.35.35,0,0,1-.2-.1c0-.1-.1-.1-.2-.1a.22.22,0,0,1-.2-.2c0-.1-.2-.2-.9-.2s-.9,0-.9.2a.22.22,0,0,1-.2.2.35.35,0,0,0-.2.1c0,.1-.1.1-.2.1s-.2.4-.2,2.9,0,3,.2,3.1.2.2.2.3a5.67,5.67,0,0,0,2.6,0Z" transform="translate(0 -1.5)" style="fill-opacity: 0"/>
  <path id="path4274" d="M1.2,7.2c0-.1,4.2-.1,12.4-.1S26,7.1,26,7.2s-4.2.1-12.4.1S1.2,7.3,1.2,7.2Z" transform="translate(0 -1.5)" style="fill-opacity: 0"/>
  <path id="path4276" d="M1.2,7.2c0-.1,4.2-.1,12.4-.1S26,7.1,26,7.2s-4.2.1-12.4.1S1.2,7.3,1.2,7.2Z" transform="translate(0 -1.5)" style="fill-opacity: 0"/>
  <path id="path4278" d="M1.2,7.2c0-.1,4.2-.1,12.4-.1S26,7.1,26,7.2s-4.2.1-12.4.1S1.2,7.3,1.2,7.2Z" transform="translate(0 -1.5)" style="fill-opacity: 0"/>
  <path id="path4282" d="M5.1,31.5c0-11.9,2.2-18.3,6.3-18.3s6.3,6.3,6.3,18.3-2.2,18.3-6.3,18.3S5.1,43.4,5.1,31.5Z" transform="translate(0 -1.5)" style="fill-opacity: 0"/>
  <rect id="rect5807" x="1.3" y="5.4" width="97.8" height="45.2" style="fill: #0d9557"/>
  <rect id="rect4318" x="39.4" y="10.1" width="28.4" height="27.4" style="fill: none"/>
  <rect id="rect3085" x="40.1" y="10.8" width="26.8" height="26.1" style="fill: #333"/>
  <g id="text3014">
    <text id="tspan3016" transform="translate(52.97 32.27) rotate(-90) scale(1.04 1)" style="isolation: isolate;font-size: 6.173296928405762px;fill: #fff;font-family: ArialMT, Arial">HC-05</text>
    <text id="tspan3018" transform="translate(58.42 31.13) rotate(-90) scale(1.04 1)" style="isolation: isolate;font-size: 3.7039780616760254px;fill: #fff;font-family: ArialMT, Arial">Bluetooth</text>
  </g>
  <path id="path4280" d="M47,23.7c-.4-.1-1.2-1.7-1.2-2.2a5.08,5.08,0,0,1,1.1-2.2c.4-.2,1.8-.1,1.8.1s-.2.2-.8.2h-.8l-.4.8c-.5,1-.5,1.2,0,2.1s.6.8,1.5.9c.5,0,.8.2.5.4a10.28,10.28,0,0,1-1.7-.1Z" transform="translate(0 -1.5)" style="fill-opacity: 0"/>
  <rect id="rect4318-6" x="74" y="10.2" width="21.5" height="27.4" style="fill: none"/>
  <rect id="Antenna" x="4.1" y="8.4" width="19.3" height="37.9" style="fill: #d4aa00"/>
  <rect id="rect5811" x="20" y="10.4" width="3.9" height="37.5" style="fill: #0d9557"/>
  <rect id="rect5813" x="6.5" y="10.4" width="13.6" height="2.4" style="fill: #0d9557"/>
  <rect id="rect5813-0" x="3.8" y="14.9" width="13.6" height="2.4" style="fill: #0d9557"/>
  <rect id="rect5813-0-3" x="6.4" y="19.2" width="13.6" height="2.4" style="fill: #0d9557"/>
  <rect id="rect5813-0-6" x="4" y="23.5" width="13.6" height="2.4" style="fill: #0d9557"/>
  <rect id="rect5813-0-3-2" x="6.6" y="27.9" width="13.6" height="2.4" style="fill: #0d9557"/>
  <rect id="rect5813-0-4" x="3.8" y="32.5" width="13.6" height="2.4" style="fill: #0d9557"/>
  <rect id="rect5813-0-3-5" x="6.5" y="37.1" width="13.6" height="2.4" style="fill: #0d9557"/>
  <rect id="rect5898" x="26.1" y="1.6" width="3.5" height="5.6" style="fill: #9393ac"/>
  <rect id="rect5898-8" x="31.5" y="1.5" width="3.5" height="5.6" style="fill: #9393ac"/>
  <rect id="rect5898-1" x="37.2" y="1.4" width="3.5" height="5.6" style="fill: #9393ac"/>
  <rect id="rect5898-8-2" x="42.5" y="1.3" width="3.5" height="5.6" style="fill: #9393ac"/>
  <rect id="rect5898-14" x="48" y="1.4" width="3.5" height="5.6" style="fill: #9393ac"/>
  <rect id="rect5898-8-9" x="53.4" y="1.3" width="3.5" height="5.6" style="fill: #9393ac"/>
  <rect id="rect5898-1-8" x="59.1" y="1.2" width="3.5" height="5.6" style="fill: #9393ac"/>
  <rect id="rect5898-8-2-2" x="64.5" y="1.2" width="3.5" height="5.6" style="fill: #9393ac"/>
  <rect id="rect5898-14-4" x="69.5" y="1.4" width="3.5" height="5.6" style="fill: #9393ac"/>
  <rect id="rect5898-8-9-5" x="74.9" y="1.3" width="3.5" height="5.6" style="fill: #9393ac"/>
  <rect id="rect5898-1-8-2" x="80.6" y="1.2" width="3.5" height="5.6" style="fill: #9393ac"/>
  <rect id="rect5898-8-2-2-9" x="86" y="1.2" width="3.5" height="5.6" style="fill: #9393ac"/>
  <rect id="rect5898-8-2-2-9-9" x="91.4" y="1.3" width="3.5" height="5.6" style="fill: #9393ac"/>
  <rect id="rect5898-83" x="26.1" y="49.3" width="3.5" height="5.6" style="fill: #9393ac"/>
  <rect id="rect5898-8-8" x="31.5" y="49.2" width="3.5" height="5.6" style="fill: #9393ac"/>
  <rect id="rect5898-1-6" x="37.2" y="49.1" width="3.5" height="5.6" style="fill: #9393ac"/>
  <rect id="rect5898-8-2-9" x="42.5" y="49" width="3.5" height="5.6" style="fill: #9393ac"/>
  <rect id="rect5898-14-8" x="48" y="49.1" width="3.5" height="5.6" style="fill: #9393ac"/>
  <rect id="rect5898-8-9-6" x="53.4" y="49" width="3.5" height="5.6" style="fill: #9393ac"/>
  <rect id="rect5898-1-8-6" x="59.1" y="48.9" width="3.5" height="5.6" style="fill: #9393ac"/>
  <rect id="rect5898-8-2-2-2" x="64.5" y="48.8" width="3.5" height="5.6" style="fill: #9393ac"/>
  <rect id="rect5898-14-4-3" x="69.5" y="49.1" width="3.5" height="5.6" style="fill: #9393ac"/>
  <rect id="rect5898-8-9-5-8" x="74.9" y="49" width="3.5" height="5.6" style="fill: #9393ac"/>
  <rect id="rect5898-1-8-2-2" x="80.6" y="48.9" width="3.5" height="5.6" style="fill: #9393ac"/>
  <rect id="rect5898-8-2-2-9-6" x="86" y="48.8" width="3.5" height="5.6" style="fill: #9393ac"/>
  <rect id="rect5898-8-2-2-9-9-2" x="91.4" y="49" width="3.5" height="5.6" style="fill: #9393ac"/>
  <rect id="rect5898-8-9-6-7" x="97.59" y="46.08" width="5.9" height="3.4" transform="translate(-0.12 -1.26) rotate(-0.14)" style="fill: #9393ac"/>
  <rect id="rect5898-1-8-6-5" x="97.5" y="40.59" width="5.9" height="3.4" transform="translate(-0.1 -1.26) rotate(-0.14)" style="fill: #9393ac"/>
  <rect id="rect5898-8-2-2-2-7" x="97.41" y="35.47" width="5.9" height="3.4" transform="translate(-0.09 -1.26) rotate(-0.14)" style="fill: #9393ac"/>
  <rect id="rect5898-14-4-3-8" x="97.63" y="30.61" width="5.9" height="3.4" transform="translate(-0.08 -1.26) rotate(-0.14)" style="fill: #9393ac"/>
  <rect id="rect5898-8-9-5-8-2" x="97.54" y="25.38" width="5.9" height="3.4" transform="translate(-0.07 -1.26) rotate(-0.14)" style="fill: #9393ac"/>
  <rect id="rect5898-1-8-2-2-7" x="97.45" y="19.99" width="5.9" height="3.4" transform="translate(-0.05 -1.26) rotate(-0.14)" style="fill: #9393ac"/>
  <rect id="rect5898-8-2-2-9-6-8" x="97.46" y="14.87" width="5.9" height="3.4" transform="translate(-0.04 -1.26) rotate(-0.14)" style="fill: #9393ac"/>
  <rect id="rect5898-8-2-2-9-9-2-0" x="97.54" y="9.69" width="5.9" height="3.4" transform="translate(-0.03 -1.26) rotate(-0.14)" style="fill: #9393ac"/>
  <rect id="rect3085-1" x="74.9" y="10.8" width="20" height="25.9" style="fill: #333"/>
  <rect id="rect5813-0-6-8" x="4" y="41.8" width="13.6" height="2.4" style="fill: #0d9557"/>
  <rect id="KEY_WIRE" x="124.6" y="3.8" width="20" height="4.5" style="fill: #ffd5d5"/>
  <rect id="KEY_VCC" x="124.6" y="12.9" width="20" height="4.5" style="fill: #ffd5d5"/>
  <rect id="KEY_GND" x="124.6" y="21.6" width="20" height="4.5" style="fill: #ffd5d5"/>
  <rect id="KEY_TXD" x="124.6" y="31.4" width="20" height="4.5" style="fill: #ffd5d5"/>
  <rect id="KEY_RXD" x="124.6" y="40.5" width="20" height="4.5" style="fill: #ffd5d5"/>
  <rect id="KEY_STATE" x="124.6" y="48.9" width="20" height="4.5" style="fill: #ffd5d5"/>
</svg>
