<svg id="Layer_1" data-name="Layer 1" xmlns="http://www.w3.org/2000/svg" width="46" height="57.43" viewBox="0 0 46 57.43">
  <title>built-in-color-led</title>
  <g id="RED_PIN">
    <line x1="7.67" y1="46.46" x2="7.67" y2="56.14" style="fill: none;stroke: #ef401d;stroke-linecap: round;stroke-miterlimit: 10;stroke-width: 2px"/>
  </g>
  <g id="GND_PIN">
    <line x1="17.89" y1="46.75" x2="17.89" y2="56.43" style="fill: none;stroke: #000;stroke-linecap: round;stroke-miterlimit: 10;stroke-width: 2px"/>
  </g>
  <g id="GREEN_PIN">
    <line x1="28.11" y1="46.75" x2="28.11" y2="56.43" style="fill: none;stroke: #4dc16e;stroke-linecap: round;stroke-miterlimit: 10;stroke-width: 2px"/>
  </g>
  <g id="BLUE_PIN">
    <line x1="38.33" y1="46.75" x2="38.33" y2="56.43" style="fill: none;stroke: #4c5dbf;stroke-linecap: round;stroke-miterlimit: 10;stroke-width: 2px"/>
  </g>
  <g id="base">
    <rect x="0.5" y="0.5" width="45" height="45.92" style="fill: #d8d8cb"/>
    <path d="M52,3V47.92H8V3H52m1-1H7V48.92H53V2Z" transform="translate(-7 -2)"/>
  </g>
  <g id="COLOR_LED">
    <path d="M30,37.38A14.84,14.84,0,1,1,44.83,22.55,14.84,14.84,0,0,1,30,37.38Z" transform="translate(-7 -2)" />
    <path d="M30,8.21A14.34,14.34,0,1,1,15.67,22.55,14.35,14.35,0,0,1,30,8.21m0-1A15.34,15.34,0,1,0,45.33,22.55,15.33,15.33,0,0,0,30,7.21Z" transform="translate(-7 -2)"/>
  </g>
  <text transform="translate(5.06 45.11)" style="font-size: 3px;font-family: ArialRoundedMTBold, Arial Rounded MT Bold">RED</text>
  <text transform="translate(14.08 45.11)" style="font-size: 3px;font-family: ArialRoundedMTBold, Arial Rounded MT Bold">GND</text>
  <text transform="translate(22.69 45.11)" style="font-size: 3px;font-family: ArialRoundedMTBold, Arial Rounded MT Bold">GREEN</text>
  <text transform="translate(35.02 45.11)" style="font-size: 3px;font-family: ArialRoundedMTBold, Arial Rounded MT Bold">B<tspan x="2.16" y="0" style="letter-spacing: -0.0498046875em">L</tspan><tspan x="3.82" y="0">UE</tspan></text>
</svg>
