<svg xmlns="http://www.w3.org/2000/svg" width="269.13" height="323.93" viewBox="0 0 269.13 323.93">
  <title>button</title>
  <g id="Layer_1" data-name="Layer 1">
    <path d="M254,224.39" transform="translate(-31.88 -21.07)" style="fill: none;stroke: #000;stroke-miterlimit: 10"/>
    <text transform="translate(0 20.74)" style="font-size: 24px;font-family: ArialRoundedMTBold, Arial Rounded MT Bold">Is <tspan x="26.52" y="0" style="letter-spacing: -0.01318359375em">b</tspan><tspan x="41.2" y="0">utton 7 p</tspan><tspan x="142.95" y="0" style="letter-spacing: -0.02490234375em">r</tspan><tspan x="152.86" y="0">essed?</tspan></text>
    <text transform="translate(69 54.74)" style="font-size: 24px;font-family: ArialRoundedMTBold, Arial Rounded MT Bold">No</text>
    <line x1="74.12" y1="253.93" x2="74.12" y2="323.93" style="fill: none;stroke: blue;stroke-miterlimit: 10;stroke-width: 4px"/>
    <line x1="117.12" y1="253.93" x2="117.12" y2="323.93" style="fill: none;stroke: #000;stroke-miterlimit: 10;stroke-width: 4px"/>
    <text transform="translate(124.44 279.67)" style="font-size: 24px;font-family: ArialRoundedMTBold, Arial Rounded MT Bold">GND</text>
    <text transform="translate(27.44 279.67)" style="font-size: 24px;font-family: ArialRoundedMTBold, Arial Rounded MT Bold">Pin</text>
  </g>
  <g id="button">
    <rect x="65.45" y="123.41" width="61.21" height="130.53" style="fill: #39b54a;stroke: #000;stroke-miterlimit: 10"/>
    <rect x="69.71" y="92.64" width="52.86" height="20.61" style="fill: red;stroke: #000;stroke-miterlimit: 10"/>
    <path d="M52.58,108.52H139.7a10,10,0,0,1,10,10v5.9a7,7,0,0,1-7,7H48.58a6,6,0,0,1-6-6v-6.9A10,10,0,0,1,52.58,108.52Z" style="fill: red;stroke: #000;stroke-miterlimit: 10"/>
  </g>
  <g id="Hand">
    <polygon id="thumb" points="159.41 63.48 68.89 62.93 68.73 88.49 159.25 89.03 158.94 141.13 205.66 141.41 206.13 63.76 159.41 63.48" style="fill: #b2724f;stroke: #000;stroke-linecap: round;stroke-linejoin: round"/>
    <polygon points="268.63 175.43 206.13 175.43 206.13 139.44 51.13 139.44 51.13 236.76 206.13 236.76 206.13 218.43 268.63 218.43 268.63 175.43" style="fill: #b2724f;stroke: #000;stroke-miterlimit: 10"/>
    <line x1="51.71" y1="218.44" x2="153.26" y2="218.44" style="fill: none;stroke: #000;stroke-miterlimit: 10"/>
    <line x1="52.41" y1="190.39" x2="154.65" y2="190.39" style="fill: none;stroke: #000;stroke-miterlimit: 10"/>
    <line x1="52.41" y1="163.48" x2="158.83" y2="163.48" style="fill: none;stroke: #000;stroke-miterlimit: 10"/>
  </g>
</svg>
