<svg xmlns="http://www.w3.org/2000/svg" width="144" height="377.47" viewBox="0 0 144 377.47">
  <title>ir_remote</title>
  <g id="sensor_text">
    <text transform="translate(13.22 20.74)" style="font-size: 24px;font-family: ArialRoundedMTBold, Arial Rounded MT Bold">IR <tspan x="30.77" y="0" style="letter-spacing: -0.02490234375em">R</tspan><tspan x="47.44" y="0">emote</tspan></text>
    <text id="code" transform="translate(35.29 73.74)" style="font-size: 24px;font-family: ArialRoundedMTBold, Arial Rounded MT Bold">E932B</text>
    <text id="title" transform="translate(4.89 45.74)" style="font-size: 18px;font-family: ArialRoundedMTBold, Arial Rounded MT Bold"><tspan style="letter-spacing: -0.02490234375em">R</tspan><tspan x="12.5" y="0">eceiving Code</tspan></text>
  </g>
  <g id="base">
    <g>
      <rect x="0.5" y="87.47" width="143" height="266" style="fill: #bcbcbc"/>
      <path d="M172,94V359H30V94H172m1-1H29V360H173V93Z" transform="translate(-29 -6.03)"/>
    </g>
    <g>
      <circle cx="72" cy="133.97" r="35.5" style="fill: #fcd156"/>
      <path d="M101,105a35,35,0,1,1-35,35,35,35,0,0,1,35-35m0-1a36,36,0,1,0,36,36,36,36,0,0,0-36-36Z" transform="translate(-29 -6.03)"/>
    </g>
    <rect id="GND_WIRE" x="20.36" y="353.95" width="6" height="23.02" style="stroke: #000;stroke-miterlimit: 10"/>
    <rect id="VCC_WIRE" x="68.36" y="353.47" width="6" height="23.02" style="stroke: #000;stroke-miterlimit: 10"/>
    <rect id="SIG_WIRE" x="117.36" y="353.95" width="6" height="23.02" style="stroke: #000;stroke-miterlimit: 10"/>
    <text transform="translate(27.28 350.35) rotate(-90)" style="font-size: 12px;font-family: ArialRoundedMTBold, Arial Rounded MT Bold">GND</text>
    <text transform="translate(75.28 350.35) rotate(-90)" style="font-size: 12px;font-family: ArialRoundedMTBold, Arial Rounded MT Bold"><tspan style="letter-spacing: -0.01318359375em">V</tspan><tspan x="8.1" y="0">CC</tspan></text>
    <text transform="translate(124.28 350.35) rotate(-90)" style="font-size: 12px;font-family: ArialRoundedMTBold, Arial Rounded MT Bold">A0</text>
  </g>
</svg>
