<svg xmlns="http://www.w3.org/2000/svg" width="459.9" height="552.9" viewBox="0 0 459.9 552.9">
  <title>matrix</title>
  <g id="Base">
    <line id="VCC" x1="163.9" y1="501.9" x2="163.9" y2="551.9" style="fill: none;stroke: #000;stroke-miterlimit: 10;stroke-width: 10px"/>
    <line id="GND" x1="209.9" y1="502.9" x2="209.9" y2="552.9" style="fill: none;stroke: #000;stroke-miterlimit: 10;stroke-width: 10px"/>
    <line id="DATA" x1="259.9" y1="502.9" x2="259.9" y2="552.9" style="fill: none;stroke: #000;stroke-miterlimit: 10;stroke-width: 10px"/>
    <line id="CS" x1="309.9" y1="502.9" x2="309.9" y2="552.9" style="fill: none;stroke: #000;stroke-miterlimit: 10;stroke-width: 10px"/>
    <line id="CLK" x1="359.9" y1="502.9" x2="359.9" y2="552.9" style="fill: none;stroke: #000;stroke-miterlimit: 10;stroke-width: 10px"/>
    <rect x="134.9" y="460.9" width="250" height="42" style="fill: #b59191"/>
    <text transform="translate(148.69 497.95)" style="font-size: 14px;font-family: ArialRoundedMTBold, Arial Rounded MT Bold"><tspan style="letter-spacing: -0.01318359375em">V</tspan><tspan x="9.45" y="0">CC</tspan></text>
    <text transform="translate(193.73 497.95)" style="font-size: 14px;font-family: ArialRoundedMTBold, Arial Rounded MT Bold">GND</text>
    <text transform="translate(244.89 481.15) scale(0.82 1)" style="font-size: 14px;font-family: ArialRoundedMTBold, Arial Rounded MT Bold"><tspan style="letter-spacing: -0.03810743242044937em">D<tspan x="9.83" y="0" style="letter-spacing: -0.08786825377304508em">A</tspan><tspan x="18.67" y="0" style="letter-spacing: -0.06294531248020654em">T</tspan><tspan x="26.54" y="0" style="letter-spacing: -0.00008506123308136019em">A</tspan></tspan><tspan x="-2.56" y="16.8">Pin 12</tspan></text>
    <text transform="translate(301.82 481.15) scale(0.82 1)" style="font-size: 14px;font-family: ArialRoundedMTBold, Arial Rounded MT Bold">CS<tspan x="-11.01" y="16.8">Pin 10</tspan></text>
    <text transform="translate(347.93 481.15) scale(0.82 1)" style="font-size: 14px;font-family: ArialRoundedMTBold, Arial Rounded MT Bold">CLK<tspan x="-6.27" y="16.8">Pin 11</tspan></text>
  </g>
  <g id="_8-8" data-name="8-8">
    <rect x="409.9" y="410.9" width="50" height="50"/>
    <circle cx="434.9" cy="435.9" r="17.5" style="fill: #fff"/>
  </g>
  <g id="_8-7" data-name="8-7">
    <rect x="359.9" y="410.9" width="50" height="50"/>
    <circle cx="384.9" cy="435.9" r="17.5" style="fill: #fff"/>
  </g>
  <g id="_8-6" data-name="8-6">
    <rect x="309.9" y="410.9" width="50" height="50"/>
    <circle cx="334.9" cy="435.9" r="17.5" style="fill: #fff"/>
  </g>
  <g id="_8-5" data-name="8-5">
    <rect x="259.9" y="410.9" width="50" height="50"/>
    <circle cx="284.9" cy="435.9" r="17.5" style="fill: #fff"/>
  </g>
  <g id="_8-4" data-name="8-4">
    <rect x="209.9" y="410.9" width="50" height="50"/>
    <circle cx="234.9" cy="435.9" r="17.5" style="fill: #fff"/>
  </g>
  <g id="_8-3" data-name="8-3">
    <rect x="159.9" y="410.9" width="50" height="50"/>
    <circle cx="184.9" cy="435.9" r="17.5" style="fill: #fff"/>
  </g>
  <g id="_8-2" data-name="8-2">
    <rect x="109.9" y="410.9" width="50" height="50"/>
    <circle cx="134.9" cy="435.9" r="17.5" style="fill: #fff"/>
  </g>
  <g id="_8-1" data-name="8-1">
    <rect x="59.9" y="410.9" width="50" height="50"/>
    <circle cx="84.9" cy="435.9" r="17.5" style="fill: #fff"/>
  </g>
  <g id="_7-8" data-name="7-8">
    <rect x="409.9" y="360.9" width="50" height="50"/>
    <circle cx="434.9" cy="385.9" r="17.5" style="fill: #fff"/>
  </g>
  <g id="_7-7" data-name="7-7">
    <rect x="359.9" y="360.9" width="50" height="50"/>
    <circle cx="384.9" cy="385.9" r="17.5" style="fill: #fff"/>
  </g>
  <g id="_7-6" data-name="7-6">
    <rect x="309.9" y="360.9" width="50" height="50"/>
    <circle cx="334.9" cy="385.9" r="17.5" style="fill: #fff"/>
  </g>
  <g id="_7-5" data-name="7-5">
    <rect x="259.9" y="360.9" width="50" height="50"/>
    <circle cx="284.9" cy="385.9" r="17.5" style="fill: #fff"/>
  </g>
  <g id="_7-4" data-name="7-4">
    <rect x="209.9" y="360.9" width="50" height="50"/>
    <circle cx="234.9" cy="385.9" r="17.5" style="fill: #fff"/>
  </g>
  <g id="_7-3" data-name="7-3">
    <rect x="159.9" y="360.9" width="50" height="50"/>
    <circle cx="184.9" cy="385.9" r="17.5" style="fill: #fff"/>
  </g>
  <g id="_7-2" data-name="7-2">
    <rect x="109.9" y="360.9" width="50" height="50"/>
    <circle cx="134.9" cy="385.9" r="17.5" style="fill: #fff"/>
  </g>
  <g id="_7-1" data-name="7-1">
    <rect x="59.9" y="360.9" width="50" height="50"/>
    <circle cx="84.9" cy="385.9" r="17.5" style="fill: #fff"/>
  </g>
  <g id="_6-8" data-name="6-8">
    <rect x="409.9" y="310.9" width="50" height="50"/>
    <circle cx="434.9" cy="335.9" r="17.5" style="fill: #fff"/>
  </g>
  <g id="_6-7" data-name="6-7">
    <rect x="359.9" y="310.9" width="50" height="50"/>
    <circle cx="384.9" cy="335.9" r="17.5" style="fill: #fff"/>
  </g>
  <g id="_6-6" data-name="6-6">
    <rect x="309.9" y="310.9" width="50" height="50"/>
    <circle cx="334.9" cy="335.9" r="17.5" style="fill: #fff"/>
  </g>
  <g id="_6-5" data-name="6-5">
    <rect x="259.9" y="310.9" width="50" height="50"/>
    <circle cx="284.9" cy="335.9" r="17.5" style="fill: #fff"/>
  </g>
  <g id="_6-4" data-name="6-4">
    <rect x="209.9" y="310.9" width="50" height="50"/>
    <circle cx="234.9" cy="335.9" r="17.5" style="fill: #fff"/>
  </g>
  <g id="_6-3" data-name="6-3">
    <rect x="159.9" y="310.9" width="50" height="50"/>
    <circle cx="184.9" cy="335.9" r="17.5" style="fill: #fff"/>
  </g>
  <g id="_6-2" data-name="6-2">
    <rect x="109.9" y="310.9" width="50" height="50"/>
    <circle cx="134.9" cy="335.9" r="17.5" style="fill: #fff"/>
  </g>
  <g id="_6-1" data-name="6-1">
    <rect x="59.9" y="310.9" width="50" height="50"/>
    <circle cx="84.9" cy="335.9" r="17.5" style="fill: #fff"/>
  </g>
  <g id="_5-8" data-name="5-8">
    <rect x="409.9" y="260.9" width="50" height="50"/>
    <circle cx="434.9" cy="285.9" r="17.5" style="fill: #fff"/>
  </g>
  <g id="_5-7" data-name="5-7">
    <rect x="359.9" y="260.9" width="50" height="50"/>
    <circle cx="384.9" cy="285.9" r="17.5" style="fill: #fff"/>
  </g>
  <g id="_5-6" data-name="5-6">
    <rect x="309.9" y="260.9" width="50" height="50"/>
    <circle cx="334.9" cy="285.9" r="17.5" style="fill: #fff"/>
  </g>
  <g id="_5-5" data-name="5-5">
    <rect x="259.9" y="260.9" width="50" height="50"/>
    <circle cx="284.9" cy="285.9" r="17.5" style="fill: #fff"/>
  </g>
  <g id="_5-4" data-name="5-4">
    <rect x="209.9" y="260.9" width="50" height="50"/>
    <circle cx="234.9" cy="285.9" r="17.5" style="fill: #fff"/>
  </g>
  <g id="_5-3" data-name="5-3">
    <rect x="159.9" y="260.9" width="50" height="50"/>
    <circle cx="184.9" cy="285.9" r="17.5" style="fill: #fff"/>
  </g>
  <g id="_5-2" data-name="5-2">
    <rect x="109.9" y="260.9" width="50" height="50"/>
    <circle cx="134.9" cy="285.9" r="17.5" style="fill: #fff"/>
  </g>
  <g id="_5-1" data-name="5-1">
    <rect x="59.9" y="260.9" width="50" height="50"/>
    <circle cx="84.9" cy="285.9" r="17.5" style="fill: #fff"/>
  </g>
  <g id="_4-8" data-name="4-8">
    <rect x="409.9" y="210.9" width="50" height="50"/>
    <circle cx="434.9" cy="235.9" r="17.5" style="fill: #fff"/>
  </g>
  <g id="_4-7" data-name="4-7">
    <rect x="359.9" y="210.9" width="50" height="50"/>
    <circle cx="384.9" cy="235.9" r="17.5" style="fill: #fff"/>
  </g>
  <g id="_4-6" data-name="4-6">
    <rect x="309.9" y="210.9" width="50" height="50"/>
    <circle cx="334.9" cy="235.9" r="17.5" style="fill: #fff"/>
  </g>
  <g id="_4-5" data-name="4-5">
    <rect x="259.9" y="210.9" width="50" height="50"/>
    <circle cx="284.9" cy="235.9" r="17.5" style="fill: #fff"/>
  </g>
  <g id="_4-4" data-name="4-4">
    <rect x="209.9" y="210.9" width="50" height="50"/>
    <circle cx="234.9" cy="235.9" r="17.5" style="fill: #fff"/>
  </g>
  <g id="_4-3" data-name="4-3">
    <rect x="159.9" y="210.9" width="50" height="50"/>
    <circle cx="184.9" cy="235.9" r="17.5" style="fill: #fff"/>
  </g>
  <g id="_4-2" data-name="4-2">
    <rect x="109.9" y="210.9" width="50" height="50"/>
    <circle cx="134.9" cy="235.9" r="17.5" style="fill: #fff"/>
  </g>
  <g id="_4-1" data-name="4-1">
    <rect x="59.9" y="210.9" width="50" height="50"/>
    <circle cx="84.9" cy="235.9" r="17.5" style="fill: #fff"/>
  </g>
  <g id="_3-8" data-name="3-8">
    <rect x="409.9" y="160.9" width="50" height="50"/>
    <circle cx="434.9" cy="185.9" r="17.5" style="fill: #fff"/>
  </g>
  <g id="_3-7" data-name="3-7">
    <rect x="359.9" y="160.9" width="50" height="50"/>
    <circle cx="384.9" cy="185.9" r="17.5" style="fill: #fff"/>
  </g>
  <g id="_3-6" data-name="3-6">
    <rect x="309.9" y="160.9" width="50" height="50"/>
    <circle cx="334.9" cy="185.9" r="17.5" style="fill: #fff"/>
  </g>
  <g id="_3-5" data-name="3-5">
    <rect x="259.9" y="160.9" width="50" height="50"/>
    <circle cx="284.9" cy="185.9" r="17.5" style="fill: #fff"/>
  </g>
  <g id="_3-4" data-name="3-4">
    <rect x="209.9" y="160.9" width="50" height="50"/>
    <circle cx="234.9" cy="185.9" r="17.5" style="fill: #fff"/>
  </g>
  <g id="_3-3" data-name="3-3">
    <rect x="159.9" y="160.9" width="50" height="50"/>
    <circle cx="184.9" cy="185.9" r="17.5" style="fill: #fff"/>
  </g>
  <g id="_3-2" data-name="3-2">
    <rect x="109.9" y="160.9" width="50" height="50"/>
    <circle cx="134.9" cy="185.9" r="17.5" style="fill: #fff"/>
  </g>
  <g id="_3-1" data-name="3-1">
    <rect x="59.9" y="160.9" width="50" height="50"/>
    <circle cx="84.9" cy="185.9" r="17.5" style="fill: #fff"/>
  </g>
  <g id="_2-8" data-name="2-8">
    <rect x="409.9" y="110.9" width="50" height="50"/>
    <circle cx="434.9" cy="135.9" r="17.5" style="fill: #fff"/>
  </g>
  <g id="_2-7" data-name="2-7">
    <rect x="359.9" y="110.9" width="50" height="50"/>
    <circle cx="384.9" cy="135.9" r="17.5" style="fill: #fff"/>
  </g>
  <g id="_2-6" data-name="2-6">
    <rect x="309.9" y="110.9" width="50" height="50"/>
    <circle cx="334.9" cy="135.9" r="17.5" style="fill: #fff"/>
  </g>
  <g id="_2-5" data-name="2-5">
    <rect x="259.9" y="110.9" width="50" height="50"/>
    <circle cx="284.9" cy="135.9" r="17.5" style="fill: #fff"/>
  </g>
  <g id="_2-4" data-name="2-4">
    <rect x="209.9" y="110.9" width="50" height="50"/>
    <circle cx="234.9" cy="135.9" r="17.5" style="fill: #fff"/>
  </g>
  <g id="_2-3" data-name="2-3">
    <rect x="159.9" y="110.9" width="50" height="50"/>
    <circle cx="184.9" cy="135.9" r="17.5" style="fill: #fff"/>
  </g>
  <g id="_2-2" data-name="2-2">
    <rect x="109.9" y="110.9" width="50" height="50"/>
    <circle cx="134.9" cy="135.9" r="17.5" style="fill: #fff"/>
  </g>
  <g id="_2-1" data-name="2-1">
    <rect x="59.9" y="110.9" width="50" height="50"/>
    <circle cx="84.9" cy="135.9" r="17.5" style="fill: #fff"/>
  </g>
  <g id="_1-8" data-name="1-8">
    <rect x="409.9" y="60.9" width="50" height="50"/>
    <circle cx="434.9" cy="85.9" r="17.5" style="fill: #fff"/>
  </g>
  <g id="_1-7" data-name="1-7">
    <rect x="359.9" y="60.9" width="50" height="50"/>
    <circle cx="384.9" cy="85.9" r="17.5" style="fill: #fff"/>
  </g>
  <g id="_1-6" data-name="1-6">
    <rect x="309.9" y="60.9" width="50" height="50"/>
    <circle cx="334.9" cy="85.9" r="17.5" style="fill: #fff"/>
  </g>
  <g id="_1-5" data-name="1-5">
    <rect x="259.9" y="60.9" width="50" height="50"/>
    <circle cx="284.9" cy="85.9" r="17.5" style="fill: #fff"/>
  </g>
  <g id="_1-4" data-name="1-4">
    <rect x="209.9" y="60.9" width="50" height="50"/>
    <circle cx="234.9" cy="85.9" r="17.5" style="fill: #fff"/>
  </g>
  <g id="_1-3" data-name="1-3">
    <rect x="159.9" y="60.9" width="50" height="50"/>
    <circle cx="184.9" cy="85.9" r="17.5" style="fill: #fff"/>
  </g>
  <g id="_1-2" data-name="1-2">
    <rect x="109.9" y="60.9" width="50" height="50"/>
    <circle cx="134.9" cy="85.9" r="17.5" style="fill: #fff"/>
  </g>
  <g id="_1-1" data-name="1-1">
    <rect x="59.9" y="60.9" width="50" height="50"/>
    <circle cx="84.9" cy="85.9" r="17.5" style="fill: #fff"/>
  </g>
  <g id="NUMBERS">
    <text transform="translate(37.59 92.94)" style="font-size: 24px;font-family: ArialRoundedMTBold, Arial Rounded MT Bold">1</text>
    <text transform="translate(78.74 49.9)" style="font-size: 24px;font-family: ArialRoundedMTBold, Arial Rounded MT Bold">1</text>
    <text transform="translate(128.74 49.9)" style="font-size: 24px;font-family: ArialRoundedMTBold, Arial Rounded MT Bold">2</text>
    <text transform="translate(178.74 49.9)" style="font-size: 24px;font-family: ArialRoundedMTBold, Arial Rounded MT Bold">3</text>
    <text transform="translate(228.74 49.9)" style="font-size: 24px;font-family: ArialRoundedMTBold, Arial Rounded MT Bold">4</text>
    <text transform="translate(279.15 49.9) scale(0.93 1)" style="font-size: 24px;font-family: ArialRoundedMTBold, Arial Rounded MT Bold">5</text>
    <text transform="translate(329.14 49.9) scale(0.93 1)" style="font-size: 24px;font-family: ArialRoundedMTBold, Arial Rounded MT Bold">6</text>
    <text transform="translate(379.14 49.9) scale(0.93 1)" style="font-size: 24px;font-family: ArialRoundedMTBold, Arial Rounded MT Bold">7</text>
    <text transform="translate(429.15 49.9) scale(0.93 1)" style="font-size: 24px;font-family: ArialRoundedMTBold, Arial Rounded MT Bold">8</text>
    <text transform="translate(37.59 142.94)" style="font-size: 24px;font-family: ArialRoundedMTBold, Arial Rounded MT Bold">2</text>
    <text transform="translate(37.59 192.94)" style="font-size: 24px;font-family: ArialRoundedMTBold, Arial Rounded MT Bold">3</text>
    <text transform="translate(37.59 242.94)" style="font-size: 24px;font-family: ArialRoundedMTBold, Arial Rounded MT Bold">4</text>
    <text transform="translate(37.59 292.94)" style="font-size: 24px;font-family: ArialRoundedMTBold, Arial Rounded MT Bold">5</text>
    <text transform="translate(38.39 342.94) scale(0.93 1)" style="font-size: 24px;font-family: ArialRoundedMTBold, Arial Rounded MT Bold">6</text>
    <text transform="translate(38.39 392.94) scale(0.93 1)" style="font-size: 24px;font-family: ArialRoundedMTBold, Arial Rounded MT Bold">7</text>
    <text transform="translate(38.39 442.94) scale(0.93 1)" style="font-size: 24px;font-family: ArialRoundedMTBold, Arial Rounded MT Bold">8</text>
    <text transform="translate(198.63 20.74)" style="font-size: 24px;font-family: ArialRoundedMTBold, Arial Rounded MT Bold">CO<tspan x="36.77" y="0" style="letter-spacing: -0.0498046875em">L</tspan><tspan x="50.07" y="0">UMNS</tspan></text>
    <text transform="translate(20.74 298.44) rotate(-90)" style="font-size: 24px;font-family: ArialRoundedMTBold, Arial Rounded MT Bold">R<tspan x="17.26" y="0" style="letter-spacing: 0.01220703125em">O</tspan><tspan x="36.56" y="0">WS</tspan></text>
  </g>
</svg>
