<svg xmlns="http://www.w3.org/2000/svg" width="397" height="364.87" viewBox="0 0 397 364.87">
  <title>soil-sensor</title>
  <g id="sensor">
    <rect x="301.5" y="89.37" width="95" height="190" fill="#ffd6a4" stroke="#000" stroke-miterlimit="10"/>
    <path d="M400.14,121.77c16-87.35-214.61,14.26-212.64,71.73" transform="translate(-63 -17.13)" fill="none" stroke="#0071bc" stroke-miterlimit="10" stroke-width="3"/>
    <path d="M420,122C447.66.71,160.5,135.5,160.5,195.5" transform="translate(-63 -17.13)" fill="none" stroke="#0071bc" stroke-miterlimit="10" stroke-width="3"/>
    <g>
      <polygon points="124.5 312.8 124.5 205.37 99.5 205.37 99.5 312.78 93.28 328.37 88.5 312.8 88.5 205.37 76.5 205.37 76.5 176.37 150.5 176.37 150.5 205.37 135.5 205.37 135.5 312.78 129.28 328.37 124.5 312.8" fill="#f15a24"/>
      <path d="M213,194v28H198V329.81L192.34,344,188,329.85V222H162V329.81L156.34,344,152,329.85V222H140V194h73m1-1H139v30h12V330l5.22,17L163,330V223h24V330l5.22,17L199,330V223h15V193Z" transform="translate(-63 -17.13)"/>
    </g>
    <rect x="321.5" y="104.37" width="49" height="24" fill="#1f911f" stroke="#000" stroke-miterlimit="10"/>
    <g id="wires">
      <path id="DO" d="M334,279.87h7a0,0,0,0,1,0,0v26a3,3,0,0,1-3,3h-1a3,3,0,0,1-3-3v-26A0,0,0,0,1,334,279.87Z" fill="#97aa9c"/>
      <path id="GND" d="M357,279.87h7a0,0,0,0,1,0,0v26a3,3,0,0,1-3,3h-1a3,3,0,0,1-3-3v-26A0,0,0,0,1,357,279.87Z" fill="#97aa9c"/>
      <path id="POWER" d="M378,279.87h7a0,0,0,0,1,0,0v26a3,3,0,0,1-3,3h-1a3,3,0,0,1-3-3v-26A0,0,0,0,1,378,279.87Z" fill="#97aa9c"/>
      <path id="PIN" d="M310,279.87h7a0,0,0,0,1,0,0v26a3,3,0,0,1-3,3h-1a3,3,0,0,1-3-3v-26A0,0,0,0,1,310,279.87Z" fill="#97aa9c"/>
      <text transform="translate(341.32 276.47) rotate(-90)" font-size="12" font-family="ArialRoundedMTBold, Arial Rounded MT Bold">DO (Digital Pin)</text>
      <text transform="translate(364.32 276.47) rotate(-90)" font-size="12" font-family="ArialRoundedMTBold, Arial Rounded MT Bold">GND</text>
      <text transform="translate(386.32 276.47) rotate(-90)" font-size="12" font-family="ArialRoundedMTBold, Arial Rounded MT Bold"><tspan letter-spacing="-0.01em">V</tspan><tspan x="8.1" y="0">CC</tspan></text>
      <text id="PIN_TEXT" transform="translate(317.32 276.47) rotate(-90)" font-size="12" font-family="ArialRoundedMTBold, Arial Rounded MT Bold">A0 (Analog Pin)</text>
    </g>
  </g>
  <g id="sensor_text">
    <text id="READING_VALUE" transform="translate(42.43 25.92)" font-size="30" font-family="ArialRoundedMTBold, Arial Rounded MT Bold">Humidity L<tspan x="154.97" y="0" letter-spacing="-0.02em">e</tspan><tspan x="172.05" y="0" letter-spacing="-0.01em">v</tspan><tspan x="187.91" y="0">el: 80</tspan></text>
  </g>
  <g id="plant">
    <rect x="33.5" y="158.37" width="17" height="75" fill="#70522b" stroke="#000" stroke-miterlimit="10"/>
    <path d="M226.5,241.5H63.5v27h17v98a15,15,0,0,0,15,15h95a15,15,0,0,0,15-15v-98h21Z" transform="translate(-63 -17.13)" fill="#70522b" stroke="#000" stroke-miterlimit="10"/>
    <ellipse cx="43" cy="157.87" rx="29.5" ry="22.5" fill="#2b6d3c" stroke="#000" stroke-miterlimit="10"/>
  </g>
</svg>
