<svg xmlns="http://www.w3.org/2000/svg" width="427.57" height="372.87" viewBox="0 0 427.57 372.87">
  <title>soil-sensor</title>
  <g id="sensor">
    <rect x="332.07" y="97.37" width="95" height="190" style="fill: #ffd6a4;stroke: #000;stroke-miterlimit: 10"/>
    <path d="M400.14,121.77c16-87.35-214.61,14.26-212.64,71.73" transform="translate(-32.43 -9.13)" style="fill: none;stroke: #0071bc;stroke-miterlimit: 10;stroke-width: 3px"/>
    <path d="M420,122C447.66.71,160.5,135.5,160.5,195.5" transform="translate(-32.43 -9.13)" style="fill: none;stroke: #0071bc;stroke-miterlimit: 10;stroke-width: 3px"/>
    <g>
      <polygon points="155.07 320.8 155.07 213.37 130.07 213.37 130.07 320.78 123.85 336.37 119.07 320.8 119.07 213.37 107.07 213.37 107.07 184.37 181.07 184.37 181.07 213.37 166.07 213.37 166.07 320.78 159.85 336.37 155.07 320.8" style="fill: #f15a24"/>
      <path d="M213,194v28H198V329.81L192.34,344,188,329.85V222H162V329.81L156.34,344,152,329.85V222H140V194h73m1-1H139v30h12V330l5.22,17L163,330V223h24V330l5.22,17L199,330V223h15V193Z" transform="translate(-32.43 -9.13)"/>
    </g>
    <rect x="352.07" y="112.37" width="49" height="24" style="fill: #1f911f;stroke: #000;stroke-miterlimit: 10"/>
    <g id="wires">
      <rect id="DO" x="364.57" y="287.87" width="7" height="29" style="fill: #97aa9c"/>
      <rect id="GND" x="387.57" y="287.87" width="7" height="29" style="fill: #97aa9c"/>
      <rect id="VCC" x="408.57" y="287.87" width="7" height="29" style="fill: #97aa9c"/>
      <rect id="A0" x="340.57" y="287.87" width="7" height="29" style="fill: #97aa9c"/>
      <text transform="matrix(0, -1, 1, 0, 371.98, 284.39)" style="font-size: 12px;font-family: ArialRoundedMTBold, Arial Rounded MT Bold">DO (Digital Pin)</text>
      <text transform="matrix(0, -1, 1, 0, 394.98, 284.39)" style="font-size: 12px;font-family: ArialRoundedMTBold, Arial Rounded MT Bold">GND</text>
      <text transform="matrix(0, -1, 1, 0, 416.98, 284.39)" style="font-size: 12px;font-family: ArialRoundedMTBold, Arial Rounded MT Bold"><tspan style="letter-spacing: -0.01318359375em">V</tspan><tspan x="8.1" y="0">CC</tspan></text>
      <text transform="matrix(0, -1, 1, 0, 347.98, 284.39)" style="font-size: 12px;font-family: ArialRoundedMTBold, Arial Rounded MT Bold">A0 (Analog Pin)</text>
    </g>
  </g>
  <g id="sensor_text">
    <text id="temperator_text" transform="translate(0 89.92)" style="font-size: 30px;font-family: ArialRoundedMTBold, Arial Rounded MT Bold"><tspan style="letter-spacing: -0.06298828125em">T</tspan><tspan x="16.86" y="0">empe</tspan><tspan x="97.81" y="0" style="letter-spacing: -0.02490234375em">ra</tspan><tspan x="127.28" y="0">tu</tspan><tspan x="156.02" y="0" style="letter-spacing: -0.02490234375em">r</tspan><tspan x="168.41" y="0">e: 90˚</tspan></text>
    <text id="humidity_text" transform="translate(0 57.92)" style="font-size: 30px;font-family: ArialRoundedMTBold, Arial Rounded MT Bold">Humidity: 80</text>
    <text id="raining_text" transform="translate(0 25.92)" style="font-size: 30px;font-family: ArialRoundedMTBold, Arial Rounded MT Bold">Is <tspan x="33.15" y="0" style="letter-spacing: -0.01318359375em">R</tspan><tspan x="54.33" y="0">aining: </tspan><tspan x="160.3" y="0" style="letter-spacing: -0.06298828125em">Y</tspan><tspan x="177.16" y="0">es</tspan></text>
  </g>
  <g id="plant">
    <rect x="64.07" y="166.37" width="17" height="75" style="fill: #70522b;stroke: #000;stroke-miterlimit: 10"/>
    <path d="M226.5,241.5H63.5v27h17v98a15,15,0,0,0,15,15h95a15,15,0,0,0,15-15v-98h21Z" transform="translate(-32.43 -9.13)" style="fill: #70522b;stroke: #000;stroke-miterlimit: 10"/>
    <ellipse cx="73.57" cy="165.87" rx="29.5" ry="22.5" style="fill: #2b6d3c;stroke: #000;stroke-miterlimit: 10"/>
  </g>
</svg>
