<svg id="Layer_1" data-name="Layer 1" xmlns="http://www.w3.org/2000/svg" width="174.14" height="388.42" viewBox="0 0 174.14 388.42">
  <title>temp-humidity</title>
  <g>
    <rect x="4.61" y="49.92" width="149" height="288" style="fill: #81a4c1"/>
    <path d="M172.88,146V433h-148V146h148m1-1h-150V434h150V145Z" transform="translate(-19.76 -95.58)"/>
  </g>
  <g>
    <rect x="22.49" y="62.92" width="119" height="127" style="fill: #5da8f4"/>
    <path d="M160.75,159V285h-118V159h118m1-1h-120V286h120V158Z" transform="translate(-19.76 -95.58)"/>
  </g>
  <g>
    <g>
      <g>
        <rect x="115.74" y="160.92" width="16" height="16"/>
        <path d="M151,257v15H136V257h15m1-1H135v17h17V256Z" transform="translate(-19.76 -95.58)"/>
      </g>
      <g>
        <rect x="94.74" y="160.92" width="16" height="16"/>
        <path d="M130,257v15H115V257h15m1-1H114v17h17V256Z" transform="translate(-19.76 -95.58)"/>
      </g>
      <g>
        <rect x="73.74" y="160.92" width="16" height="16"/>
        <path d="M109,257v15H94V257h15m1-1H93v17h17V256Z" transform="translate(-19.76 -95.58)"/>
      </g>
      <g>
        <rect x="52.74" y="160.92" width="16" height="16"/>
        <path d="M88,257v15H73V257H88m1-1H72v17H89V256Z" transform="translate(-19.76 -95.58)"/>
      </g>
      <g>
        <rect x="31.74" y="160.92" width="16" height="16"/>
        <path d="M67,257v15H52V257H67m1-1H51v17H68V256Z" transform="translate(-19.76 -95.58)"/>
      </g>
    </g>
    <g>
      <g>
        <rect x="115.74" y="139.92" width="16" height="16"/>
        <path d="M151,236v15H136V236h15m1-1H135v17h17V235Z" transform="translate(-19.76 -95.58)"/>
      </g>
      <g>
        <rect x="94.74" y="139.92" width="16" height="16"/>
        <path d="M130,236v15H115V236h15m1-1H114v17h17V235Z" transform="translate(-19.76 -95.58)"/>
      </g>
      <g>
        <rect x="73.74" y="139.92" width="16" height="16"/>
        <path d="M109,236v15H94V236h15m1-1H93v17h17V235Z" transform="translate(-19.76 -95.58)"/>
      </g>
      <g>
        <rect x="52.74" y="139.92" width="16" height="16"/>
        <path d="M88,236v15H73V236H88m1-1H72v17H89V235Z" transform="translate(-19.76 -95.58)"/>
      </g>
      <g>
        <rect x="31.74" y="139.92" width="16" height="16"/>
        <path d="M67,236v15H52V236H67m1-1H51v17H68V235Z" transform="translate(-19.76 -95.58)"/>
      </g>
    </g>
    <g>
      <g>
        <rect x="115.74" y="118.92" width="16" height="16"/>
        <path d="M151,215v15H136V215h15m1-1H135v17h17V214Z" transform="translate(-19.76 -95.58)"/>
      </g>
      <g>
        <rect x="94.74" y="118.92" width="16" height="16"/>
        <path d="M130,215v15H115V215h15m1-1H114v17h17V214Z" transform="translate(-19.76 -95.58)"/>
      </g>
      <g>
        <rect x="73.74" y="118.92" width="16" height="16"/>
        <path d="M109,215v15H94V215h15m1-1H93v17h17V214Z" transform="translate(-19.76 -95.58)"/>
      </g>
      <g>
        <rect x="52.74" y="118.92" width="16" height="16"/>
        <path d="M88,215v15H73V215H88m1-1H72v17H89V214Z" transform="translate(-19.76 -95.58)"/>
      </g>
      <g>
        <rect x="31.74" y="118.92" width="16" height="16"/>
        <path d="M67,215v15H52V215H67m1-1H51v17H68V214Z" transform="translate(-19.76 -95.58)"/>
      </g>
    </g>
    <g>
      <g>
        <rect x="115.74" y="97.92" width="16" height="16"/>
        <path d="M151,194v15H136V194h15m1-1H135v17h17V193Z" transform="translate(-19.76 -95.58)"/>
      </g>
      <g>
        <rect x="94.74" y="97.92" width="16" height="16"/>
        <path d="M130,194v15H115V194h15m1-1H114v17h17V193Z" transform="translate(-19.76 -95.58)"/>
      </g>
      <g>
        <rect x="73.74" y="97.92" width="16" height="16"/>
        <path d="M109,194v15H94V194h15m1-1H93v17h17V193Z" transform="translate(-19.76 -95.58)"/>
      </g>
      <g>
        <rect x="52.74" y="97.92" width="16" height="16"/>
        <path d="M88,194v15H73V194H88m1-1H72v17H89V193Z" transform="translate(-19.76 -95.58)"/>
      </g>
      <g>
        <rect x="31.74" y="97.92" width="16" height="16"/>
        <path d="M67,194v15H52V194H67m1-1H51v17H68V193Z" transform="translate(-19.76 -95.58)"/>
      </g>
    </g>
    <g>
      <g>
        <rect x="115.74" y="76.92" width="16" height="16"/>
        <path d="M151,173v15H136V173h15m1-1H135v17h17V172Z" transform="translate(-19.76 -95.58)"/>
      </g>
      <g>
        <rect x="94.74" y="76.92" width="16" height="16"/>
        <path d="M130,173v15H115V173h15m1-1H114v17h17V172Z" transform="translate(-19.76 -95.58)"/>
      </g>
      <g>
        <rect x="73.74" y="76.92" width="16" height="16"/>
        <path d="M109,173v15H94V173h15m1-1H93v17h17V172Z" transform="translate(-19.76 -95.58)"/>
      </g>
      <g>
        <rect x="52.74" y="76.92" width="16" height="16"/>
        <path d="M88,173v15H73V173H88m1-1H72v17H89V172Z" transform="translate(-19.76 -95.58)"/>
      </g>
      <g>
        <rect x="31.74" y="76.92" width="16" height="16"/>
        <path d="M67,173v15H52V173H67m1-1H51v17H68V172Z" transform="translate(-19.76 -95.58)"/>
      </g>
    </g>
  </g>
  <line x1="30.74" y1="337.92" x2="30.74" y2="387.92" style="fill: none;stroke: #000;stroke-miterlimit: 10;stroke-width: 6px"/>
  <line x1="79.11" y1="338.42" x2="79.11" y2="388.42" style="fill: none;stroke: #000;stroke-miterlimit: 10;stroke-width: 6px"/>
  <line x1="125.24" y1="338.42" x2="125.24" y2="388.42" style="fill: none;stroke: #000;stroke-miterlimit: 10;stroke-width: 6px"/>
  <text transform="translate(0 18.14)" style="font-size: 21px;font-family: ArialRoundedMTBold, Arial Rounded MT Bold"><tspan style="letter-spacing: -0.06298828125em">T</tspan><tspan x="11.8" y="0">empe</tspan><tspan x="68.47" y="0" style="letter-spacing: -0.02487909226190476em">ra</tspan><tspan x="89.1" y="0" style="letter-spacing: 0.00004650297619047619em">tu</tspan><tspan x="109.21" y="0" style="letter-spacing: -0.02487909226190476em">r</tspan><tspan x="117.89" y="0" style="letter-spacing: 0.00004650297619047619em">e: 90˚</tspan></text>
  <text transform="translate(16.41 42.14)" style="font-size: 21px;font-family: ArialRoundedMTBold, Arial Rounded MT Bold">Humidity: 50</text>
  <text transform="translate(23.88 332.51)" style="font-size: 24px;font-family: ArialRoundedMTBold, Arial Rounded MT Bold">+ </text>
  <text transform="translate(120.88 331.51)" style="font-size: 24px;font-family: ArialRoundedMTBold, Arial Rounded MT Bold">-</text>
  <text transform="translate(60.68 333.33)" style="font-size: 24px;font-family: ArialRoundedMTBold, Arial Rounded MT Bold">out</text>
</svg>
