<svg xmlns="http://www.w3.org/2000/svg" width="174.14" height="391.42" viewBox="0 0 174.14 391.42">
  <title>temp-humidity</title>
  <g id="WIRE">
    <g id="GND">
      <line x1="34.74" y1="337.92" x2="34.74" y2="387.92" fill="none" stroke="#000" stroke-linecap="round" stroke-miterlimit="10" stroke-width="6"/>
    </g>
    <g id="SIG">
      <line x1="83.11" y1="338.42" x2="83.11" y2="388.42" fill="none" stroke="#000" stroke-linecap="round" stroke-miterlimit="10" stroke-width="6"/>
    </g>
    <g id="VCC">
      <line x1="129.24" y1="338.42" x2="129.24" y2="388.42" fill="none" stroke="#000" stroke-linecap="round" stroke-miterlimit="10" stroke-width="6"/>
    </g>
  </g>
  <g id="BASE">
    <g>
      <rect x="8.61" y="49.92" width="149" height="288" fill="#81a4c1"/>
      <path d="M167.88,72V359h-148V72h148m1-1h-150V360h150V71Z" transform="translate(-10.76 -21.58)"/>
    </g>
    <g>
      <rect x="26.49" y="62.92" width="119" height="127" fill="#5da8f4"/>
      <path d="M155.75,85V211h-118V85h118m1-1h-120V212h120V84Z" transform="translate(-10.76 -21.58)"/>
    </g>
    <g>
      <g>
        <g>
          <rect x="119.74" y="160.92" width="16" height="16"/>
          <path d="M146,183v15H131V183h15m1-1H130v17h17V182Z" transform="translate(-10.76 -21.58)"/>
        </g>
        <g>
          <rect x="98.74" y="160.92" width="16" height="16"/>
          <path d="M125,183v15H110V183h15m1-1H109v17h17V182Z" transform="translate(-10.76 -21.58)"/>
        </g>
        <g>
          <rect x="77.74" y="160.92" width="16" height="16"/>
          <path d="M104,183v15H89V183h15m1-1H88v17h17V182Z" transform="translate(-10.76 -21.58)"/>
        </g>
        <g>
          <rect x="56.74" y="160.92" width="16" height="16"/>
          <path d="M83,183v15H68V183H83m1-1H67v17H84V182Z" transform="translate(-10.76 -21.58)"/>
        </g>
        <g>
          <rect x="35.74" y="160.92" width="16" height="16"/>
          <path d="M62,183v15H47V183H62m1-1H46v17H63V182Z" transform="translate(-10.76 -21.58)"/>
        </g>
      </g>
      <g>
        <g>
          <rect x="119.74" y="139.92" width="16" height="16"/>
          <path d="M146,162v15H131V162h15m1-1H130v17h17V161Z" transform="translate(-10.76 -21.58)"/>
        </g>
        <g>
          <rect x="98.74" y="139.92" width="16" height="16"/>
          <path d="M125,162v15H110V162h15m1-1H109v17h17V161Z" transform="translate(-10.76 -21.58)"/>
        </g>
        <g>
          <rect x="77.74" y="139.92" width="16" height="16"/>
          <path d="M104,162v15H89V162h15m1-1H88v17h17V161Z" transform="translate(-10.76 -21.58)"/>
        </g>
        <g>
          <rect x="56.74" y="139.92" width="16" height="16"/>
          <path d="M83,162v15H68V162H83m1-1H67v17H84V161Z" transform="translate(-10.76 -21.58)"/>
        </g>
        <g>
          <rect x="35.74" y="139.92" width="16" height="16"/>
          <path d="M62,162v15H47V162H62m1-1H46v17H63V161Z" transform="translate(-10.76 -21.58)"/>
        </g>
      </g>
      <g>
        <g>
          <rect x="119.74" y="118.92" width="16" height="16"/>
          <path d="M146,141v15H131V141h15m1-1H130v17h17V140Z" transform="translate(-10.76 -21.58)"/>
        </g>
        <g>
          <rect x="98.74" y="118.92" width="16" height="16"/>
          <path d="M125,141v15H110V141h15m1-1H109v17h17V140Z" transform="translate(-10.76 -21.58)"/>
        </g>
        <g>
          <rect x="77.74" y="118.92" width="16" height="16"/>
          <path d="M104,141v15H89V141h15m1-1H88v17h17V140Z" transform="translate(-10.76 -21.58)"/>
        </g>
        <g>
          <rect x="56.74" y="118.92" width="16" height="16"/>
          <path d="M83,141v15H68V141H83m1-1H67v17H84V140Z" transform="translate(-10.76 -21.58)"/>
        </g>
        <g>
          <rect x="35.74" y="118.92" width="16" height="16"/>
          <path d="M62,141v15H47V141H62m1-1H46v17H63V140Z" transform="translate(-10.76 -21.58)"/>
        </g>
      </g>
      <g>
        <g>
          <rect x="119.74" y="97.92" width="16" height="16"/>
          <path d="M146,120v15H131V120h15m1-1H130v17h17V119Z" transform="translate(-10.76 -21.58)"/>
        </g>
        <g>
          <rect x="98.74" y="97.92" width="16" height="16"/>
          <path d="M125,120v15H110V120h15m1-1H109v17h17V119Z" transform="translate(-10.76 -21.58)"/>
        </g>
        <g>
          <rect x="77.74" y="97.92" width="16" height="16"/>
          <path d="M104,120v15H89V120h15m1-1H88v17h17V119Z" transform="translate(-10.76 -21.58)"/>
        </g>
        <g>
          <rect x="56.74" y="97.92" width="16" height="16"/>
          <path d="M83,120v15H68V120H83m1-1H67v17H84V119Z" transform="translate(-10.76 -21.58)"/>
        </g>
        <g>
          <rect x="35.74" y="97.92" width="16" height="16"/>
          <path d="M62,120v15H47V120H62m1-1H46v17H63V119Z" transform="translate(-10.76 -21.58)"/>
        </g>
      </g>
      <g>
        <g>
          <rect x="119.74" y="76.92" width="16" height="16"/>
          <path d="M146,99v15H131V99h15m1-1H130v17h17V98Z" transform="translate(-10.76 -21.58)"/>
        </g>
        <g>
          <rect x="98.74" y="76.92" width="16" height="16"/>
          <path d="M125,99v15H110V99h15m1-1H109v17h17V98Z" transform="translate(-10.76 -21.58)"/>
        </g>
        <g>
          <rect x="77.74" y="76.92" width="16" height="16"/>
          <path d="M104,99v15H89V99h15m1-1H88v17h17V98Z" transform="translate(-10.76 -21.58)"/>
        </g>
        <g>
          <rect x="56.74" y="76.92" width="16" height="16"/>
          <path d="M83,99v15H68V99H83m1-1H67v17H84V98Z" transform="translate(-10.76 -21.58)"/>
        </g>
        <g>
          <rect x="35.74" y="76.92" width="16" height="16"/>
          <path d="M62,99v15H47V99H62m1-1H46v17H63V98Z" transform="translate(-10.76 -21.58)"/>
        </g>
      </g>
    </g>
  </g>
  <g id="TEXT">
    <text id="TEMP_TEXT" transform="translate(0 18.14)" font-size="21" font-family="ArialRoundedMTBold, Arial Rounded MT Bold"><tspan letter-spacing="-0.06em">T</tspan><tspan x="11.8" y="0">empe</tspan><tspan x="68.47" y="0" letter-spacing="-0.02em">ra</tspan><tspan x="89.1" y="0" letter-spacing="0em">tu</tspan><tspan x="109.21" y="0" letter-spacing="-0.02em">r</tspan><tspan x="117.89" y="0" letter-spacing="0em">e: 90˚</tspan></text>
    <text id="HUMIDITY_TEXT" transform="translate(26.41 42.14)" font-size="21" font-family="ArialRoundedMTBold, Arial Rounded MT Bold">Humidity: 50</text>
    <text transform="translate(27.88 332.51)" font-size="24" font-family="ArialRoundedMTBold, Arial Rounded MT Bold">+ </text>
    <text transform="translate(124.88 331.51)" font-size="24" font-family="ArialRoundedMTBold, Arial Rounded MT Bold">-</text>
    <text transform="translate(64.68 333.33)" font-size="24" font-family="ArialRoundedMTBold, Arial Rounded MT Bold">out</text>
  </g>
</svg>
