<svg xmlns="http://www.w3.org/2000/svg" width="390.56" height="482.84" viewBox="0 0 390.56 482.84">
  <title>touch-sensor</title>
  <g id="text">
    <text id="READING_VALUE" transform="translate(0 31.1)" font-size="36" font-family="ArialRoundedMTBold, Arial Rounded MT Bold">Sensing a tou<tspan x="236.29" y="0" letter-spacing="-0.02em">c</tspan><tspan x="256.78" y="0">h? YES</tspan></text>
  </g>
  <g id="touch">
    <g id="base">
      <rect x="29.06" y="49.34" width="318" height="390" fill="#235577"/>
      <path d="M359,87V476H42V87H359m1-1H41V477H360V86Z" transform="translate(-12.44 -37.16)"/>
    </g>
    <g id="_1-circle" data-name="1-circle">
      <path d="M194,107a97,97,0,1,1-97,97,97.1,97.1,0,0,1,97-97m0-3A100,100,0,1,0,294,204,100,100,0,0,0,194,104Z" transform="translate(-12.44 -37.16)" fill="#fff"/>
    </g>
    <g id="_2-circle" data-name="2-circle">
      <path d="M193,128.67a72,72,0,1,1-72,72,72.08,72.08,0,0,1,72-72m0-3a75,75,0,1,0,75,75,75,75,0,0,0-75-75Z" transform="translate(-12.44 -37.16)" fill="#fff"/>
    </g>
    <g id="_3-circle" data-name="3-circle">
      <path d="M193,153.67a47,47,0,1,1-47,47,47,47,0,0,1,47-47m0-3a50,50,0,1,0,50,50,50,50,0,0,0-50-50Z" transform="translate(-12.44 -37.16)" fill="#fff"/>
    </g>
    <g id="_4-circle" data-name="4-circle">
      <path d="M193,178.67a22,22,0,1,1-22,22,22,22,0,0,1,22-22m0-3a25,25,0,1,0,25,25,25,25,0,0,0-25-25Z" transform="translate(-12.44 -37.16)" fill="#fff"/>
    </g>
  </g>
  <g id="wires">
    <path id="PIN" d="M63.06,439.84h10a0,0,0,0,1,0,0v39a4,4,0,0,1-4,4h-2a4,4,0,0,1-4-4v-39A0,0,0,0,1,63.06,439.84Z" fill="#bdccd4"/>
    <path id="POWER" d="M184.06,439.84h10a0,0,0,0,1,0,0v39a4,4,0,0,1-4,4h-2a4,4,0,0,1-4-4v-39A0,0,0,0,1,184.06,439.84Z" fill="#bdccd4"/>
    <path id="GND" d="M302.06,439.84h10a0,0,0,0,1,0,0v39a4,4,0,0,1-4,4h-2a4,4,0,0,1-4-4v-39A0,0,0,0,1,302.06,439.84Z" fill="#bdccd4"/>
    <text id="PIN_TEXT" transform="translate(76.48 433.88) rotate(-90)" font-size="24" fill="#fff" font-family="ArialRoundedMTBold, Arial Rounded MT Bold">SIG</text>
    <text id="VCC_TEXT" transform="translate(196.48 433.88) rotate(-90)" font-size="24" fill="#fff" font-family="ArialRoundedMTBold, Arial Rounded MT Bold"><tspan letter-spacing="-0.01em">V</tspan><tspan x="16.2" y="0">CC</tspan></text>
    <text id="GND_TEXT" transform="translate(316.48 432.88) rotate(-90)" font-size="24" fill="#fff" font-family="ArialRoundedMTBold, Arial Rounded MT Bold">GND</text>
  </g>
  <g id="finger">
    <g>
      <path d="M185,255.5A46.55,46.55,0,0,1,138.5,209,61.57,61.57,0,0,1,200,147.5H402.5v108Z" transform="translate(-12.44 -37.16)" fill="#b26742"/>
      <path d="M402,148V255H185a46.06,46.06,0,0,1-46-46,61.06,61.06,0,0,1,61-61H402m1-1H200a62,62,0,0,0-62,62h0a47,47,0,0,0,47,47H403V147Z" transform="translate(-12.44 -37.16)"/>
    </g>
    <path d="M214.5,243.61s-52.28,8-55.14-10.56,2.14-40,1.14-53.29,46-27.29,53-18.77S214.5,243.61,214.5,243.61Z" transform="translate(-12.44 -37.16)" fill="#ffe3fe" stroke="#000" stroke-miterlimit="10"/>
  </g>
</svg>
