<svg xmlns="http://www.w3.org/2000/svg" width="53.97" height="92.54" viewBox="0 0 53.97 92.54">
  <title>digital_analog_write</title>
  <g id="WIRES">
    <line id="POWER" x1="16.69" y1="78.93" x2="16.69" y2="91.54" fill="none" stroke="#f73939" stroke-linecap="round" stroke-miterlimit="10" stroke-width="2"/>
    <line id="GND" x1="31.81" y1="78.93" x2="31.81" y2="91.54" fill="none" stroke="#000" stroke-linecap="round" stroke-miterlimit="10" stroke-width="2"/>
    <text id="STATE_TEXT" transform="translate(0 20.75)" font-size="10" font-family="ArialRoundedMTBold, Arial Rounded MT Bold"><tspan letter-spacing="-0.04em">P</tspan><tspan x="6.29" y="0">o</tspan><tspan x="12.33" y="0" letter-spacing="-0.01em">w</tspan><tspan x="20.33" y="0" letter-spacing="0em">e</tspan><tspan x="26.27" y="0" letter-spacing="-0.01em">r</tspan><tspan x="30.52" y="0" letter-spacing="0em">: 150</tspan></text>
    <text id="PIN_TEXT" transform="translate(9.74 8.64)" font-size="10" font-family="ArialRoundedMTBold, Arial Rounded MT Bold">PIN A0</text>
  </g>
  <g id="LIGHT">
    <path id="LIGHT_BULB" d="M47.14,36.73A17.41,17.41,0,0,0,29.73,54.14c0,7.53,4.79,14,13.66,16.37v5.38h7.5V70.51c8.86-2.42,13.66-8.84,13.66-16.37A17.42,17.42,0,0,0,47.14,36.73Z" transform="translate(-22.85 -2.49)" fill="#f9f9f9"/>
    <path id="LIGHT_BULB_OUTLINE" d="M47.14,36.73A17.41,17.41,0,0,0,29.73,54.14c0,7.53,4.79,14,13.66,16.37v5.38h7.5V70.51c8.86-2.42,13.66-8.84,13.66-16.37A17.42,17.42,0,0,0,47.14,36.73Z" transform="translate(-22.85 -2.49)" fill="none" stroke="#0c0c0c" stroke-miterlimit="10"/>
    <path id="BASE" d="M35.78,74.6H58.5v6.82H35.78Z" transform="translate(-22.85 -2.49)" fill="#73ddd3"/>
  </g>
</svg>
