<svg xmlns="http://www.w3.org/2000/svg" width="1248.5" height="286" viewBox="0 0 1248.5 286">
  <title>LCD</title>
  <g id="background">
    <rect id="wire-base" x="116" y="22" width="113" height="234" style="fill: #d4f4ef"/>
    <rect id="base" x="228.5" width="1020" height="286" style="fill: #39b54a"/>
    <text transform="translate(124.11 123.7)" style="font-size: 20px;font-family: ArialRoundedMTBold, Arial Rounded MT Bold">GND</text>
    <text transform="translate(124.11 175.2)" style="font-size: 20px;font-family: ArialRoundedMTBold, Arial Rounded MT Bold">S<tspan x="13.34" y="0" style="letter-spacing: -0.0380859375em">D</tspan><tspan x="27.38" y="0">A (A4)</tspan></text>
    <text transform="translate(124.11 229.7)" style="font-size: 20px;font-family: ArialRoundedMTBold, Arial Rounded MT Bold">SCL (A5)</text>
    <text transform="translate(124.11 66.7)" style="font-size: 20px;font-family: ArialRoundedMTBold, Arial Rounded MT Bold"><tspan style="letter-spacing: -0.01318359375em">V</tspan><tspan x="13.5" y="0">CC</tspan></text>
  </g>
  <g id="wires">
    <line id="SCL" x1="116" y1="223.17" y2="223.17" style="fill: none;stroke: #f0f;stroke-miterlimit: 10;stroke-width: 4px"/>
    <line id="SDA" x1="116" y1="168.67" y2="168.67" style="fill: none;stroke: #f15a24;stroke-miterlimit: 10;stroke-width: 4px"/>
    <line id="GND" x1="116" y1="117.17" y2="117.17" style="fill: none;stroke: #000;stroke-miterlimit: 10;stroke-width: 4px"/>
    <line id="VCC" x1="116" y1="60.17" y2="60.17" style="fill: none;stroke: red;stroke-miterlimit: 10;stroke-width: 4px"/>
  </g>
  <g id="col-20">
    <g id="space-20-1">
      <rect x="1184.5" y="52.5" width="49" height="49" style="fill: #fff"/>
      <path d="M1251.5,76.5v48h-48v-48h48m1-1h-50v50h50v-50Z" transform="translate(-18.5 -23.5)"/>
    </g>
    <text id="letter-20-1" transform="translate(1191.55 92.15)" style="font-size: 37.21169662475586px;font-family: ArialRoundedMTBold, Arial Rounded MT Bold">W</text>
    <g id="space-20-2">
      <rect x="1184.5" y="101.5" width="49" height="49" style="fill: #fff"/>
      <path d="M1251.5,125.5v48h-48v-48h48m1-1h-50v50h50v-50Z" transform="translate(-18.5 -23.5)"/>
    </g>
    <text id="letter-20-2" transform="translate(1191.55 141.15)" style="font-size: 37.21169662475586px;font-family: ArialRoundedMTBold, Arial Rounded MT Bold">W</text>
    <g id="space-20-3">
      <rect x="1184.5" y="150.5" width="49" height="49" style="fill: #fff"/>
      <path d="M1251.5,174.5v48h-48v-48h48m1-1h-50v50h50v-50Z" transform="translate(-18.5 -23.5)"/>
    </g>
    <text id="letter-20-3" transform="translate(1191.55 190.15)" style="font-size: 37.21169662475586px;font-family: ArialRoundedMTBold, Arial Rounded MT Bold">W</text>
    <g id="space-20-4">
      <rect x="1184.5" y="199.5" width="49" height="49" style="fill: #fff"/>
      <path d="M1251.5,223.5v48h-48v-48h48m1-1h-50v50h50v-50Z" transform="translate(-18.5 -23.5)"/>
    </g>
    <text id="letter-20-4" transform="translate(1191.55 239.15)" style="font-size: 37.21169662475586px;font-family: ArialRoundedMTBold, Arial Rounded MT Bold">W</text>
  </g>
  <g id="col-19">
    <g>
      <rect x="1135.5" y="52.5" width="49" height="49" style="fill: #fff"/>
      <path d="M1202.5,76.5v48h-48v-48h48m1-1h-50v50h50v-50Z" transform="translate(-18.5 -23.5)"/>
    </g>
    <text transform="translate(1142.55 92.15)" style="font-size: 37.21169662475586px;font-family: ArialRoundedMTBold, Arial Rounded MT Bold">W</text>
    <g>
      <rect x="1135.5" y="101.5" width="49" height="49" style="fill: #fff"/>
      <path d="M1202.5,125.5v48h-48v-48h48m1-1h-50v50h50v-50Z" transform="translate(-18.5 -23.5)"/>
    </g>
    <text transform="translate(1142.55 141.15)" style="font-size: 37.21169662475586px;font-family: ArialRoundedMTBold, Arial Rounded MT Bold">W</text>
    <g>
      <rect x="1135.5" y="150.5" width="49" height="49" style="fill: #fff"/>
      <path d="M1202.5,174.5v48h-48v-48h48m1-1h-50v50h50v-50Z" transform="translate(-18.5 -23.5)"/>
    </g>
    <text transform="translate(1142.55 190.15)" style="font-size: 37.21169662475586px;font-family: ArialRoundedMTBold, Arial Rounded MT Bold">W</text>
    <g>
      <rect x="1135.5" y="199.5" width="49" height="49" style="fill: #fff"/>
      <path d="M1202.5,223.5v48h-48v-48h48m1-1h-50v50h50v-50Z" transform="translate(-18.5 -23.5)"/>
    </g>
    <text transform="translate(1142.55 239.15)" style="font-size: 37.21169662475586px;font-family: ArialRoundedMTBold, Arial Rounded MT Bold">W</text>
  </g>
  <g id="col-18">
    <g id="space-18-1">
      <rect x="1086.5" y="52.5" width="49" height="49" style="fill: #fff"/>
      <path d="M1153.5,76.5v48h-48v-48h48m1-1h-50v50h50v-50Z" transform="translate(-18.5 -23.5)"/>
    </g>
    <text id="letter-18-1" transform="translate(1093.55 92.15)" style="font-size: 37.21169662475586px;font-family: ArialRoundedMTBold, Arial Rounded MT Bold">W</text>
    <g id="space-18-2">
      <rect x="1086.5" y="101.5" width="49" height="49" style="fill: #fff"/>
      <path d="M1153.5,125.5v48h-48v-48h48m1-1h-50v50h50v-50Z" transform="translate(-18.5 -23.5)"/>
    </g>
    <text id="letter-18-2" transform="translate(1093.55 141.15)" style="font-size: 37.21169662475586px;font-family: ArialRoundedMTBold, Arial Rounded MT Bold">W</text>
    <g id="space-18-3">
      <rect x="1086.5" y="150.5" width="49" height="49" style="fill: #fff"/>
      <path d="M1153.5,174.5v48h-48v-48h48m1-1h-50v50h50v-50Z" transform="translate(-18.5 -23.5)"/>
    </g>
    <text id="letter-18-3" transform="translate(1093.55 190.15)" style="font-size: 37.21169662475586px;font-family: ArialRoundedMTBold, Arial Rounded MT Bold">W</text>
    <g id="space-18-4">
      <rect x="1086.5" y="199.5" width="49" height="49" style="fill: #fff"/>
      <path d="M1153.5,223.5v48h-48v-48h48m1-1h-50v50h50v-50Z" transform="translate(-18.5 -23.5)"/>
    </g>
    <text id="letter-18-4" transform="translate(1093.55 239.15)" style="font-size: 37.21169662475586px;font-family: ArialRoundedMTBold, Arial Rounded MT Bold">W</text>
  </g>
  <g id="col-17">
    <g id="space-17-1">
      <rect x="1037.5" y="52.5" width="49" height="49" style="fill: #fff"/>
      <path d="M1104.5,76.5v48h-48v-48h48m1-1h-50v50h50v-50Z" transform="translate(-18.5 -23.5)"/>
    </g>
    <text id="letter-17-1" transform="translate(1044.55 92.15)" style="font-size: 37.21169662475586px;font-family: ArialRoundedMTBold, Arial Rounded MT Bold">W</text>
    <g id="space-17-2">
      <rect x="1037.5" y="101.5" width="49" height="49" style="fill: #fff"/>
      <path d="M1104.5,125.5v48h-48v-48h48m1-1h-50v50h50v-50Z" transform="translate(-18.5 -23.5)"/>
    </g>
    <text id="letter-17-2" transform="translate(1044.55 141.15)" style="font-size: 37.21169662475586px;font-family: ArialRoundedMTBold, Arial Rounded MT Bold">W</text>
    <g id="space-17-3">
      <rect x="1037.5" y="150.5" width="49" height="49" style="fill: #fff"/>
      <path d="M1104.5,174.5v48h-48v-48h48m1-1h-50v50h50v-50Z" transform="translate(-18.5 -23.5)"/>
    </g>
    <text id="letter-17-3" transform="translate(1044.55 190.15)" style="font-size: 37.21169662475586px;font-family: ArialRoundedMTBold, Arial Rounded MT Bold">W</text>
    <g id="space-17-4">
      <rect x="1037.5" y="199.5" width="49" height="49" style="fill: #fff"/>
      <path d="M1104.5,223.5v48h-48v-48h48m1-1h-50v50h50v-50Z" transform="translate(-18.5 -23.5)"/>
    </g>
    <text id="letter-17-4" transform="translate(1044.55 239.15)" style="font-size: 37.21169662475586px;font-family: ArialRoundedMTBold, Arial Rounded MT Bold">W</text>
  </g>
  <g id="col-16">
    <g id="space-16-1">
      <rect x="988.5" y="52.5" width="49" height="49" style="fill: #fff"/>
      <path d="M1055.5,76.5v48h-48v-48h48m1-1h-50v50h50v-50Z" transform="translate(-18.5 -23.5)"/>
    </g>
    <text id="letter-16-1" transform="translate(995.55 92.15)" style="font-size: 37.21169662475586px;font-family: ArialRoundedMTBold, Arial Rounded MT Bold">W</text>
    <g id="space-16-2">
      <rect x="988.5" y="101.5" width="49" height="49" style="fill: #fff"/>
      <path d="M1055.5,125.5v48h-48v-48h48m1-1h-50v50h50v-50Z" transform="translate(-18.5 -23.5)"/>
    </g>
    <text id="letter-16-2" transform="translate(995.55 141.15)" style="font-size: 37.21169662475586px;font-family: ArialRoundedMTBold, Arial Rounded MT Bold">W</text>
    <g id="space-16-3">
      <rect x="988.5" y="150.5" width="49" height="49" style="fill: #fff"/>
      <path d="M1055.5,174.5v48h-48v-48h48m1-1h-50v50h50v-50Z" transform="translate(-18.5 -23.5)"/>
    </g>
    <text id="letter-16-3" transform="translate(995.55 190.15)" style="font-size: 37.21169662475586px;font-family: ArialRoundedMTBold, Arial Rounded MT Bold">W</text>
    <g id="space-16-4">
      <rect x="988.5" y="199.5" width="49" height="49" style="fill: #fff"/>
      <path d="M1055.5,223.5v48h-48v-48h48m1-1h-50v50h50v-50Z" transform="translate(-18.5 -23.5)"/>
    </g>
    <text id="letter-16-4" transform="translate(995.55 239.15)" style="font-size: 37.21169662475586px;font-family: ArialRoundedMTBold, Arial Rounded MT Bold">W</text>
  </g>
  <g id="col-15">
    <g id="space-15-1">
      <rect x="939.5" y="52.5" width="49" height="49" style="fill: #fff"/>
      <path d="M1006.5,76.5v48h-48v-48h48m1-1h-50v50h50v-50Z" transform="translate(-18.5 -23.5)"/>
    </g>
    <text id="letter-15-1" transform="translate(946.54 92.15)" style="font-size: 37.21169662475586px;font-family: ArialRoundedMTBold, Arial Rounded MT Bold">W</text>
    <g id="space-15-2">
      <rect x="939.5" y="101.5" width="49" height="49" style="fill: #fff"/>
      <path d="M1006.5,125.5v48h-48v-48h48m1-1h-50v50h50v-50Z" transform="translate(-18.5 -23.5)"/>
    </g>
    <text id="letter-15-2" transform="translate(946.54 141.15)" style="font-size: 37.21169662475586px;font-family: ArialRoundedMTBold, Arial Rounded MT Bold">W</text>
    <g id="space-15-3">
      <rect x="939.5" y="150.5" width="49" height="49" style="fill: #fff"/>
      <path d="M1006.5,174.5v48h-48v-48h48m1-1h-50v50h50v-50Z" transform="translate(-18.5 -23.5)"/>
    </g>
    <text id="letter-15-3" transform="translate(946.54 190.15)" style="font-size: 37.21169662475586px;font-family: ArialRoundedMTBold, Arial Rounded MT Bold">W</text>
    <g id="space-15-4">
      <rect x="939.5" y="199.5" width="49" height="49" style="fill: #fff"/>
      <path d="M1006.5,223.5v48h-48v-48h48m1-1h-50v50h50v-50Z" transform="translate(-18.5 -23.5)"/>
    </g>
    <text id="letter-15-4" transform="translate(946.54 239.15)" style="font-size: 37.21169662475586px;font-family: ArialRoundedMTBold, Arial Rounded MT Bold">W</text>
  </g>
  <g id="col-14">
    <g id="space-14-1">
      <rect x="890.49" y="52.5" width="49" height="49" style="fill: #fff"/>
      <path d="M957.49,76.5v48h-48v-48h48m1-1h-50v50h50v-50Z" transform="translate(-18.5 -23.5)"/>
    </g>
    <text id="letter-14-1" transform="translate(897.53 92.15)" style="font-size: 37.21169662475586px;font-family: ArialRoundedMTBold, Arial Rounded MT Bold">W</text>
    <g id="space-14-2">
      <rect x="890.49" y="101.5" width="49" height="49" style="fill: #fff"/>
      <path d="M957.49,125.5v48h-48v-48h48m1-1h-50v50h50v-50Z" transform="translate(-18.5 -23.5)"/>
    </g>
    <text id="letter-14-2" transform="translate(897.53 141.15)" style="font-size: 37.21169662475586px;font-family: ArialRoundedMTBold, Arial Rounded MT Bold">W</text>
    <g id="space-14-3">
      <rect x="890.49" y="150.5" width="49" height="49" style="fill: #fff"/>
      <path d="M957.49,174.5v48h-48v-48h48m1-1h-50v50h50v-50Z" transform="translate(-18.5 -23.5)"/>
    </g>
    <text id="letter-14-3" transform="translate(897.53 190.15)" style="font-size: 37.21169662475586px;font-family: ArialRoundedMTBold, Arial Rounded MT Bold">W</text>
    <g id="space-14-4">
      <rect x="890.49" y="199.5" width="49" height="49" style="fill: #fff"/>
      <path d="M957.49,223.5v48h-48v-48h48m1-1h-50v50h50v-50Z" transform="translate(-18.5 -23.5)"/>
    </g>
    <text id="letter-14-4" transform="translate(897.53 239.15)" style="font-size: 37.21169662475586px;font-family: ArialRoundedMTBold, Arial Rounded MT Bold">W</text>
  </g>
  <g id="col-13">
    <g id="space-13-1">
      <rect x="841.46" y="52.5" width="49" height="49" style="fill: #fff"/>
      <path d="M908.46,76.5v48h-48v-48h48m1-1h-50v50h50v-50Z" transform="translate(-18.5 -23.5)"/>
    </g>
    <text id="letter-13-1" transform="translate(848.51 92.15)" style="font-size: 37.21169662475586px;font-family: ArialRoundedMTBold, Arial Rounded MT Bold">W</text>
    <g id="space-13-2">
      <rect x="841.46" y="101.5" width="49" height="49" style="fill: #fff"/>
      <path d="M908.46,125.5v48h-48v-48h48m1-1h-50v50h50v-50Z" transform="translate(-18.5 -23.5)"/>
    </g>
    <text id="letter-13-2" transform="translate(848.51 141.15)" style="font-size: 37.21169662475586px;font-family: ArialRoundedMTBold, Arial Rounded MT Bold">W</text>
    <g id="space-13-3">
      <rect x="841.46" y="150.5" width="49" height="49" style="fill: #fff"/>
      <path d="M908.46,174.5v48h-48v-48h48m1-1h-50v50h50v-50Z" transform="translate(-18.5 -23.5)"/>
    </g>
    <text id="letter-13-3" transform="translate(848.51 190.15)" style="font-size: 37.21169662475586px;font-family: ArialRoundedMTBold, Arial Rounded MT Bold">W</text>
    <g id="space-13-4">
      <rect x="841.46" y="199.5" width="49" height="49" style="fill: #fff"/>
      <path d="M908.46,223.5v48h-48v-48h48m1-1h-50v50h50v-50Z" transform="translate(-18.5 -23.5)"/>
    </g>
    <text id="letter-13-4" transform="translate(848.51 239.15)" style="font-size: 37.21169662475586px;font-family: ArialRoundedMTBold, Arial Rounded MT Bold">W</text>
  </g>
  <g id="col-12">
    <g id="space-12-2">
      <rect x="792.37" y="52.5" width="49" height="49" style="fill: #fff"/>
      <path d="M859.37,76.5v48h-48v-48h48m1-1h-50v50h50v-50Z" transform="translate(-18.5 -23.5)"/>
    </g>
    <text id="letter-12-1" transform="translate(799.42 92.15)" style="font-size: 37.21169662475586px;font-family: ArialRoundedMTBold, Arial Rounded MT Bold">W</text>
    <g id="space-12-2-2" data-name="space-12-2">
      <rect x="792.37" y="101.5" width="49" height="49" style="fill: #fff"/>
      <path d="M859.37,125.5v48h-48v-48h48m1-1h-50v50h50v-50Z" transform="translate(-18.5 -23.5)"/>
    </g>
    <text id="letter-12-2" transform="translate(799.42 141.15)" style="font-size: 37.21169662475586px;font-family: ArialRoundedMTBold, Arial Rounded MT Bold">W</text>
    <g id="space-12-3">
      <rect x="792.37" y="150.5" width="49" height="49" style="fill: #fff"/>
      <path d="M859.37,174.5v48h-48v-48h48m1-1h-50v50h50v-50Z" transform="translate(-18.5 -23.5)"/>
    </g>
    <text id="letter-12-3" transform="translate(799.42 190.15)" style="font-size: 37.21169662475586px;font-family: ArialRoundedMTBold, Arial Rounded MT Bold">W</text>
    <g id="space-12-4">
      <rect x="792.37" y="199.5" width="49" height="49" style="fill: #fff"/>
      <path d="M859.37,223.5v48h-48v-48h48m1-1h-50v50h50v-50Z" transform="translate(-18.5 -23.5)"/>
    </g>
    <text id="letter-12-4" transform="translate(799.42 239.15)" style="font-size: 37.21169662475586px;font-family: ArialRoundedMTBold, Arial Rounded MT Bold">W</text>
  </g>
  <g id="col-11">
    <g id="space-11-1">
      <rect x="743.12" y="52.5" width="49" height="49" style="fill: #fff"/>
      <path d="M810.12,76.5v48h-48v-48h48m1-1h-50v50h50v-50Z" transform="translate(-18.5 -23.5)"/>
    </g>
    <text id="letter-11-1" transform="translate(750.17 92.15)" style="font-size: 37.21169662475586px;font-family: ArialRoundedMTBold, Arial Rounded MT Bold">W</text>
    <g id="space-11-2">
      <rect x="743.12" y="101.5" width="49" height="49" style="fill: #fff"/>
      <path d="M810.12,125.5v48h-48v-48h48m1-1h-50v50h50v-50Z" transform="translate(-18.5 -23.5)"/>
    </g>
    <text id="letter-11-2" transform="translate(750.17 141.15)" style="font-size: 37.21169662475586px;font-family: ArialRoundedMTBold, Arial Rounded MT Bold">W</text>
    <g id="space-11-3">
      <rect x="743.12" y="150.5" width="49" height="49" style="fill: #fff"/>
      <path d="M810.12,174.5v48h-48v-48h48m1-1h-50v50h50v-50Z" transform="translate(-18.5 -23.5)"/>
    </g>
    <text id="letter-11-3" transform="translate(750.17 190.15)" style="font-size: 37.21169662475586px;font-family: ArialRoundedMTBold, Arial Rounded MT Bold">W</text>
    <g id="space-11-4">
      <rect x="743.12" y="199.5" width="49" height="49" style="fill: #fff"/>
      <path d="M810.12,223.5v48h-48v-48h48m1-1h-50v50h50v-50Z" transform="translate(-18.5 -23.5)"/>
    </g>
    <text id="letter-11-4" transform="translate(750.17 239.15)" style="font-size: 37.21169662475586px;font-family: ArialRoundedMTBold, Arial Rounded MT Bold">W</text>
  </g>
  <g id="col-10">
    <g id="space-10-1">
      <rect x="694.12" y="52.5" width="49" height="49" style="fill: #fff"/>
      <path d="M761.12,76.5v48h-48v-48h48m1-1h-50v50h50v-50Z" transform="translate(-18.5 -23.5)"/>
    </g>
    <text id="letter-10-1" transform="translate(701.17 92.15)" style="font-size: 37.21169662475586px;font-family: ArialRoundedMTBold, Arial Rounded MT Bold">W</text>
    <g id="space-10-2">
      <rect x="694.12" y="101.5" width="49" height="49" style="fill: #fff"/>
      <path d="M761.12,125.5v48h-48v-48h48m1-1h-50v50h50v-50Z" transform="translate(-18.5 -23.5)"/>
    </g>
    <text id="letter-10-2" transform="translate(701.17 141.15)" style="font-size: 37.21169662475586px;font-family: ArialRoundedMTBold, Arial Rounded MT Bold">W</text>
    <g id="space-10-3">
      <rect x="694.12" y="150.5" width="49" height="49" style="fill: #fff"/>
      <path d="M761.12,174.5v48h-48v-48h48m1-1h-50v50h50v-50Z" transform="translate(-18.5 -23.5)"/>
    </g>
    <text id="letter-10-3" transform="translate(701.17 190.15)" style="font-size: 37.21169662475586px;font-family: ArialRoundedMTBold, Arial Rounded MT Bold">W</text>
    <g id="space-10-4">
      <rect x="694.12" y="199.5" width="49" height="49" style="fill: #fff"/>
      <path d="M761.12,223.5v48h-48v-48h48m1-1h-50v50h50v-50Z" transform="translate(-18.5 -23.5)"/>
    </g>
    <text id="letter-10-4" transform="translate(701.17 239.15)" style="font-size: 37.21169662475586px;font-family: ArialRoundedMTBold, Arial Rounded MT Bold">W</text>
  </g>
  <g id="col-9">
    <g id="space-9-1">
      <rect x="646.31" y="52.5" width="49" height="49" style="fill: #fff"/>
      <path d="M713.31,76.5v48h-48v-48h48m1-1h-50v50h50v-50Z" transform="translate(-18.5 -23.5)"/>
    </g>
    <text id="letter-9-1" transform="translate(653.36 92.15)" style="font-size: 37.21169662475586px;font-family: ArialRoundedMTBold, Arial Rounded MT Bold">W</text>
    <g id="space-9-2">
      <rect x="646.31" y="101.5" width="49" height="49" style="fill: #fff"/>
      <path d="M713.31,125.5v48h-48v-48h48m1-1h-50v50h50v-50Z" transform="translate(-18.5 -23.5)"/>
    </g>
    <text id="letter-9-2" transform="translate(653.36 141.15)" style="font-size: 37.21169662475586px;font-family: ArialRoundedMTBold, Arial Rounded MT Bold">W</text>
    <g id="space-9-3">
      <rect x="646.31" y="150.5" width="49" height="49" style="fill: #fff"/>
      <path d="M713.31,174.5v48h-48v-48h48m1-1h-50v50h50v-50Z" transform="translate(-18.5 -23.5)"/>
    </g>
    <text id="letter-9-3" transform="translate(653.36 190.15)" style="font-size: 37.21169662475586px;font-family: ArialRoundedMTBold, Arial Rounded MT Bold">W</text>
    <g id="space-9-4">
      <rect x="646.31" y="199.5" width="49" height="49" style="fill: #fff"/>
      <path d="M713.31,223.5v48h-48v-48h48m1-1h-50v50h50v-50Z" transform="translate(-18.5 -23.5)"/>
    </g>
    <text id="letter-9-4" transform="translate(653.36 239.15)" style="font-size: 37.21169662475586px;font-family: ArialRoundedMTBold, Arial Rounded MT Bold">W</text>
  </g>
  <g id="col-8">
    <g id="space-8-1">
      <rect x="597.31" y="52.5" width="49" height="49" style="fill: #fff"/>
      <path d="M664.31,76.5v48h-48v-48h48m1-1h-50v50h50v-50Z" transform="translate(-18.5 -23.5)"/>
    </g>
    <text id="letter-8-1" transform="translate(604.36 92.15)" style="font-size: 37.21169662475586px;font-family: ArialRoundedMTBold, Arial Rounded MT Bold">W</text>
    <g id="space-8-2">
      <rect x="597.31" y="101.5" width="49" height="49" style="fill: #fff"/>
      <path d="M664.31,125.5v48h-48v-48h48m1-1h-50v50h50v-50Z" transform="translate(-18.5 -23.5)"/>
    </g>
    <text id="letter-8-2" transform="translate(604.36 141.15)" style="font-size: 37.21169662475586px;font-family: ArialRoundedMTBold, Arial Rounded MT Bold">W</text>
    <g id="space-8-3">
      <rect x="597.31" y="150.5" width="49" height="49" style="fill: #fff"/>
      <path d="M664.31,174.5v48h-48v-48h48m1-1h-50v50h50v-50Z" transform="translate(-18.5 -23.5)"/>
    </g>
    <text id="letter-8-3" transform="translate(604.36 190.15)" style="font-size: 37.21169662475586px;font-family: ArialRoundedMTBold, Arial Rounded MT Bold">W</text>
    <g id="space-8-4">
      <rect x="597.31" y="199.5" width="49" height="49" style="fill: #fff"/>
      <path d="M664.31,223.5v48h-48v-48h48m1-1h-50v50h50v-50Z" transform="translate(-18.5 -23.5)"/>
    </g>
    <text id="letter-8-4" transform="translate(604.36 239.15)" style="font-size: 37.21169662475586px;font-family: ArialRoundedMTBold, Arial Rounded MT Bold">W</text>
  </g>
  <g id="col-7">
    <g id="space-7-1">
      <rect x="548.31" y="52.5" width="49" height="49" style="fill: #fff"/>
      <path d="M615.31,76.5v48h-48v-48h48m1-1h-50v50h50v-50Z" transform="translate(-18.5 -23.5)"/>
    </g>
    <text id="letter-7-1" transform="translate(555.36 92.15)" style="font-size: 37.21169662475586px;font-family: ArialRoundedMTBold, Arial Rounded MT Bold">W</text>
    <g id="space-7-2">
      <rect x="548.31" y="101.5" width="49" height="49" style="fill: #fff"/>
      <path d="M615.31,125.5v48h-48v-48h48m1-1h-50v50h50v-50Z" transform="translate(-18.5 -23.5)"/>
    </g>
    <text id="letter-7-2" transform="translate(555.36 141.15)" style="font-size: 37.21169662475586px;font-family: ArialRoundedMTBold, Arial Rounded MT Bold">W</text>
    <g id="space-7-3">
      <rect x="548.31" y="150.5" width="49" height="49" style="fill: #fff"/>
      <path d="M615.31,174.5v48h-48v-48h48m1-1h-50v50h50v-50Z" transform="translate(-18.5 -23.5)"/>
    </g>
    <text id="letter-7-3" transform="translate(555.36 190.15)" style="font-size: 37.21169662475586px;font-family: ArialRoundedMTBold, Arial Rounded MT Bold">W</text>
    <g id="space-7-4">
      <rect x="548.31" y="199.5" width="49" height="49" style="fill: #fff"/>
      <path d="M615.31,223.5v48h-48v-48h48m1-1h-50v50h50v-50Z" transform="translate(-18.5 -23.5)"/>
    </g>
    <text id="letter-7-4" transform="translate(555.36 239.15)" style="font-size: 37.21169662475586px;font-family: ArialRoundedMTBold, Arial Rounded MT Bold">W</text>
  </g>
  <g id="col-6">
    <g id="space-6-1">
      <rect x="499.31" y="52.5" width="49" height="49" style="fill: #fff"/>
      <path d="M566.31,76.5v48h-48v-48h48m1-1h-50v50h50v-50Z" transform="translate(-18.5 -23.5)"/>
    </g>
    <text id="letter-6-1" transform="translate(506.36 92.15)" style="font-size: 37.21169662475586px;font-family: ArialRoundedMTBold, Arial Rounded MT Bold">W</text>
    <g id="space-6-2">
      <rect x="499.31" y="101.5" width="49" height="49" style="fill: #fff"/>
      <path d="M566.31,125.5v48h-48v-48h48m1-1h-50v50h50v-50Z" transform="translate(-18.5 -23.5)"/>
    </g>
    <text id="letter-6-2" transform="translate(506.36 141.15)" style="font-size: 37.21169662475586px;font-family: ArialRoundedMTBold, Arial Rounded MT Bold">W</text>
    <g id="space-6-3">
      <rect x="499.31" y="150.5" width="49" height="49" style="fill: #fff"/>
      <path d="M566.31,174.5v48h-48v-48h48m1-1h-50v50h50v-50Z" transform="translate(-18.5 -23.5)"/>
    </g>
    <text id="letter-6-3" transform="translate(506.36 190.15)" style="font-size: 37.21169662475586px;font-family: ArialRoundedMTBold, Arial Rounded MT Bold">W</text>
    <g id="space-6-4">
      <rect x="499.31" y="199.5" width="49" height="49" style="fill: #fff"/>
      <path d="M566.31,223.5v48h-48v-48h48m1-1h-50v50h50v-50Z" transform="translate(-18.5 -23.5)"/>
    </g>
    <text id="letter-6-4" transform="translate(506.36 239.15)" style="font-size: 37.21169662475586px;font-family: ArialRoundedMTBold, Arial Rounded MT Bold">W</text>
  </g>
  <g id="col-5">
    <g id="space-5-1">
      <rect x="450.31" y="52.5" width="49" height="49" style="fill: #fff"/>
      <path d="M517.31,76.5v48h-48v-48h48m1-1h-50v50h50v-50Z" transform="translate(-18.5 -23.5)"/>
    </g>
    <text id="letter-5-1" transform="translate(457.36 92.15)" style="font-size: 37.21169662475586px;font-family: ArialRoundedMTBold, Arial Rounded MT Bold">W</text>
    <g id="space-5-2">
      <rect x="450.31" y="101.5" width="49" height="49" style="fill: #fff"/>
      <path d="M517.31,125.5v48h-48v-48h48m1-1h-50v50h50v-50Z" transform="translate(-18.5 -23.5)"/>
    </g>
    <text id="letter-5-2" transform="translate(457.36 141.15)" style="font-size: 37.21169662475586px;font-family: ArialRoundedMTBold, Arial Rounded MT Bold">W</text>
    <g id="space-5-3">
      <rect x="450.31" y="150.5" width="49" height="49" style="fill: #fff"/>
      <path d="M517.31,174.5v48h-48v-48h48m1-1h-50v50h50v-50Z" transform="translate(-18.5 -23.5)"/>
    </g>
    <text id="letter-5-3" transform="translate(457.36 190.15)" style="font-size: 37.21169662475586px;font-family: ArialRoundedMTBold, Arial Rounded MT Bold">W</text>
    <g id="space-5-4">
      <rect x="450.31" y="199.5" width="49" height="49" style="fill: #fff"/>
      <path d="M517.31,223.5v48h-48v-48h48m1-1h-50v50h50v-50Z" transform="translate(-18.5 -23.5)"/>
    </g>
    <text id="letter-5-4" transform="translate(457.36 239.15)" style="font-size: 37.21169662475586px;font-family: ArialRoundedMTBold, Arial Rounded MT Bold">W</text>
  </g>
  <g id="col-4">
    <g id="space-4-1">
      <rect x="401.72" y="52.5" width="49" height="49" style="fill: #fff"/>
      <path d="M468.72,76.5v48h-48v-48h48m1-1h-50v50h50v-50Z" transform="translate(-18.5 -23.5)"/>
    </g>
    <text id="letter-4-1" transform="translate(409.55 92.15)" style="font-size: 37.21169662475586px;font-family: ArialRoundedMTBold, Arial Rounded MT Bold">W</text>
    <g id="space-4-2">
      <rect x="401.72" y="101.5" width="49" height="49" style="fill: #fff"/>
      <path d="M468.72,125.5v48h-48v-48h48m1-1h-50v50h50v-50Z" transform="translate(-18.5 -23.5)"/>
    </g>
    <text id="letter-4-2" transform="translate(409.55 141.15)" style="font-size: 37.21169662475586px;font-family: ArialRoundedMTBold, Arial Rounded MT Bold">W</text>
    <g id="space-4-3">
      <rect x="401.72" y="150.5" width="49" height="49" style="fill: #fff"/>
      <path d="M468.72,174.5v48h-48v-48h48m1-1h-50v50h50v-50Z" transform="translate(-18.5 -23.5)"/>
    </g>
    <text id="letter-4-3" transform="translate(409.55 190.15)" style="font-size: 37.21169662475586px;font-family: ArialRoundedMTBold, Arial Rounded MT Bold">W</text>
    <g id="space-4-1-2" data-name="space-4-1">
      <rect x="401.72" y="199.5" width="49" height="49" style="fill: #fff"/>
      <path d="M468.72,223.5v48h-48v-48h48m1-1h-50v50h50v-50Z" transform="translate(-18.5 -23.5)"/>
    </g>
    <text id="letter-4-1-2" data-name="letter-4-1" transform="translate(409.55 239.15)" style="font-size: 37.21169662475586px;font-family: ArialRoundedMTBold, Arial Rounded MT Bold">W</text>
  </g>
  <g id="col-3">
    <g id="space-3-1">
      <rect x="352.72" y="52.5" width="49" height="49" style="fill: #fff"/>
      <path d="M419.72,76.5v48h-48v-48h48m1-1h-50v50h50v-50Z" transform="translate(-18.5 -23.5)"/>
    </g>
    <text id="letter-3-1" transform="translate(360.55 92.15)" style="font-size: 37.21169662475586px;font-family: ArialRoundedMTBold, Arial Rounded MT Bold">W</text>
    <g id="space-3-2">
      <rect x="352.72" y="101.5" width="49" height="49" style="fill: #fff"/>
      <path d="M419.72,125.5v48h-48v-48h48m1-1h-50v50h50v-50Z" transform="translate(-18.5 -23.5)"/>
    </g>
    <text id="letter-3-2" transform="translate(360.55 141.15)" style="font-size: 37.21169662475586px;font-family: ArialRoundedMTBold, Arial Rounded MT Bold">W</text>
    <g id="space-3-3">
      <rect x="352.72" y="150.5" width="49" height="49" style="fill: #fff"/>
      <path d="M419.72,174.5v48h-48v-48h48m1-1h-50v50h50v-50Z" transform="translate(-18.5 -23.5)"/>
    </g>
    <text id="letter-3-3" transform="translate(360.55 190.15)" style="font-size: 37.21169662475586px;font-family: ArialRoundedMTBold, Arial Rounded MT Bold">W</text>
    <g id="space-3-4">
      <rect x="352.72" y="199.5" width="49" height="49" style="fill: #fff"/>
      <path d="M419.72,223.5v48h-48v-48h48m1-1h-50v50h50v-50Z" transform="translate(-18.5 -23.5)"/>
    </g>
    <text id="letter-3-4" transform="translate(360.55 239.15)" style="font-size: 37.21169662475586px;font-family: ArialRoundedMTBold, Arial Rounded MT Bold">W</text>
  </g>
  <g id="col-2">
    <g id="space-2-1">
      <rect x="304.5" y="52.5" width="49" height="49" style="fill: #fff"/>
      <path d="M371.5,76.5v48h-48v-48h48m1-1h-50v50h50v-50Z" transform="translate(-18.5 -23.5)"/>
    </g>
    <text id="letter-2-1" transform="translate(311.33 91.83) rotate(1.04)" style="font-size: 37.21169662475586px;font-family: ArialRoundedMTBold, Arial Rounded MT Bold">W</text>
    <g id="space-2-2">
      <rect x="304.5" y="101.5" width="49" height="49" style="fill: #fff"/>
      <path d="M371.5,125.5v48h-48v-48h48m1-1h-50v50h50v-50Z" transform="translate(-18.5 -23.5)"/>
    </g>
    <text id="letter-2-2" transform="translate(311.33 140.83) rotate(1.04)" style="font-size: 37.21169662475586px;font-family: ArialRoundedMTBold, Arial Rounded MT Bold">W</text>
    <g id="space-2-3">
      <rect x="304.5" y="150.5" width="49" height="49" style="fill: #fff"/>
      <path d="M371.5,174.5v48h-48v-48h48m1-1h-50v50h50v-50Z" transform="translate(-18.5 -23.5)"/>
    </g>
    <text id="letter-2-3" transform="translate(311.33 189.83) rotate(1.04)" style="font-size: 37.21169662475586px;font-family: ArialRoundedMTBold, Arial Rounded MT Bold">W</text>
    <g id="space-2-4">
      <rect x="304.5" y="199.5" width="49" height="49" style="fill: #fff"/>
      <path d="M371.5,223.5v48h-48v-48h48m1-1h-50v50h50v-50Z" transform="translate(-18.5 -23.5)"/>
    </g>
    <text id="letter-2-4" transform="translate(311.33 238.83) rotate(1.04)" style="font-size: 37.21169662475586px;font-family: ArialRoundedMTBold, Arial Rounded MT Bold">W</text>
  </g>
  <g id="col-1">
    <g id="space-1-1">
      <rect x="255.5" y="52.5" width="49" height="49" style="fill: #fff"/>
      <path d="M322.5,76.5v48h-48v-48h48m1-1h-50v50h50v-50Z" transform="translate(-18.5 -23.5)"/>
    </g>
    <text id="letter-1-1" transform="translate(262.55 92.15)" style="font-size: 37.21169662475586px;font-family: ArialRoundedMTBold, Arial Rounded MT Bold">W</text>
    <g id="space-1-2">
      <rect x="255.5" y="101.5" width="49" height="49" style="fill: #fff"/>
      <path d="M322.5,125.5v48h-48v-48h48m1-1h-50v50h50v-50Z" transform="translate(-18.5 -23.5)"/>
    </g>
    <text id="letter-1-2" transform="translate(262.55 141.15)" style="font-size: 37.21169662475586px;font-family: ArialRoundedMTBold, Arial Rounded MT Bold">W</text>
    <g id="space-1-3">
      <rect x="255.5" y="150.5" width="49" height="49" style="fill: #fff"/>
      <path d="M322.5,174.5v48h-48v-48h48m1-1h-50v50h50v-50Z" transform="translate(-18.5 -23.5)"/>
    </g>
    <text id="letter-1-3" transform="translate(262.55 190.15)" style="font-size: 37.21169662475586px;font-family: ArialRoundedMTBold, Arial Rounded MT Bold">W</text>
    <g id="space-1-4">
      <rect x="255.5" y="199.5" width="49" height="49" style="fill: #fff"/>
      <path d="M322.5,223.5v48h-48v-48h48m1-1h-50v50h50v-50Z" transform="translate(-18.5 -23.5)"/>
    </g>
    <text id="letter-1-4" transform="translate(262.55 239.15)" style="font-size: 37.21169662475586px;font-family: ArialRoundedMTBold, Arial Rounded MT Bold">W</text>
  </g>
  <g id="row">
    <text id="num-row-2" transform="translate(236.95 84.84)" style="font-size: 24px;font-family: ArialRoundedMTBold, Arial Rounded MT Bold">1</text>
    <text id="num-row-2-2" data-name="num-row-2" transform="translate(236.95 136.84)" style="font-size: 24px;font-family: ArialRoundedMTBold, Arial Rounded MT Bold">2</text>
    <text id="num-row-3" transform="translate(236.95 185.84)" style="font-size: 24px;font-family: ArialRoundedMTBold, Arial Rounded MT Bold">3</text>
    <text id="num-row-4" transform="translate(236.95 234.84)" style="font-size: 24px;font-family: ArialRoundedMTBold, Arial Rounded MT Bold">4</text>
  </g>
  <g id="coloumns">
    <text id="num-col-1" transform="translate(272.87 43.62)" style="font-size: 24px;font-family: ArialRoundedMTBold, Arial Rounded MT Bold">1</text>
    <text id="num-col-2" transform="translate(321.87 43.62)" style="font-size: 24px;font-family: ArialRoundedMTBold, Arial Rounded MT Bold">2</text>
    <text id="num-col-3" transform="translate(370.09 43.62)" style="font-size: 24px;font-family: ArialRoundedMTBold, Arial Rounded MT Bold">3</text>
    <text id="num-col-4" transform="translate(419.09 43.62)" style="font-size: 24px;font-family: ArialRoundedMTBold, Arial Rounded MT Bold">4</text>
    <text id="num-col-5" transform="translate(467.68 43.62)" style="font-size: 24px;font-family: ArialRoundedMTBold, Arial Rounded MT Bold">5</text>
    <text id="num-col-6" transform="translate(516.68 43.62)" style="font-size: 24px;font-family: ArialRoundedMTBold, Arial Rounded MT Bold">6</text>
    <text id="num-col-7" transform="translate(565.68 43.62)" style="font-size: 24px;font-family: ArialRoundedMTBold, Arial Rounded MT Bold">7</text>
    <text id="num-col-8" transform="translate(614.68 43.62)" style="font-size: 24px;font-family: ArialRoundedMTBold, Arial Rounded MT Bold">8</text>
    <text id="num-col-9" transform="translate(663.68 43.62)" style="font-size: 24px;font-family: ArialRoundedMTBold, Arial Rounded MT Bold">9</text>
    <text id="num-col-10" transform="translate(704.36 43.62)" style="font-size: 24px;font-family: ArialRoundedMTBold, Arial Rounded MT Bold">10</text>
    <text id="num-col-11" transform="translate(753.36 43.62)" style="font-size: 24px;font-family: ArialRoundedMTBold, Arial Rounded MT Bold">11</text>
    <text id="num-col-12" transform="translate(802.61 43.62)" style="font-size: 24px;font-family: ArialRoundedMTBold, Arial Rounded MT Bold">12</text>
    <text id="num-col-13" transform="translate(851.7 43.62)" style="font-size: 24px;font-family: ArialRoundedMTBold, Arial Rounded MT Bold">13</text>
    <text id="num-col-14" transform="translate(900.72 43.62)" style="font-size: 24px;font-family: ArialRoundedMTBold, Arial Rounded MT Bold">14</text>
    <text id="num-col-15" transform="translate(949.73 43.62)" style="font-size: 24px;font-family: ArialRoundedMTBold, Arial Rounded MT Bold">15</text>
    <text id="num-col-16" transform="translate(998.74 43.62)" style="font-size: 24px;font-family: ArialRoundedMTBold, Arial Rounded MT Bold">16</text>
    <text id="num-col-17" transform="translate(1047.74 43.62)" style="font-size: 24px;font-family: ArialRoundedMTBold, Arial Rounded MT Bold">17</text>
    <text id="num-col-18" transform="translate(1096.74 43.62)" style="font-size: 24px;font-family: ArialRoundedMTBold, Arial Rounded MT Bold">18</text>
    <text id="num-col-19" transform="translate(1145.74 43.62)" style="font-size: 24px;font-family: ArialRoundedMTBold, Arial Rounded MT Bold">19</text>
    <text id="num-col-20" transform="translate(1194.74 43.62)" style="font-size: 24px;font-family: ArialRoundedMTBold, Arial Rounded MT Bold">20</text>
  </g>
</svg>
