<svg xmlns="http://www.w3.org/2000/svg" viewBox="0 0 111.35 278.03"><defs><style>.cls-1{fill:#2a90ff;}.cls-2{fill:#c69c6d;}.cls-2,.cls-3,.cls-4,.cls-5,.cls-8,.cls-9{stroke:#000;stroke-miterlimit:10;}.cls-4{fill:#fbb03b;}.cls-5{fill:orange;}.cls-6{font-size:7.03px;}.cls-10,.cls-6{font-family:ArialRoundedMTBold, Arial Rounded MT Bold;}.cls-7{letter-spacing:-0.02em;}.cls-8{fill:#ff422a;}.cls-9{fill:#d6ad65;}.cls-10{font-size:18.64px;}.cls-11{letter-spacing:-0.01em;}.cls-12{letter-spacing:0em;}.cls-13{letter-spacing:-0.02em;}.cls-14{letter-spacing:0em;}</style></defs><title>servo</title><g id="base"><rect class="cls-1" x="0.5" y="27.53" width="80" height="219"/><path d="M110,36V254H31V36h79m1-1H30V255h81V35Z" transform="translate(-30 -7.97)"/><path class="cls-2" d="M119.5,43.5" transform="translate(-30 -7.97)"/></g><g id="spinning_part" data-name="spinning part"><rect id="black_fill" class="cls-3" x="32.5" y="118.53" width="25" height="27"/><path id="moving_part" class="cls-4" d="M140.82,141.88c-.4-7.2-5.39-13.31-11.85-13.94L68.11,119.7c-7.34,2.38-12.62,10.19-13,19.15-.42,9.39,4.6,18,12.18,20.72l61.2-1.21C135.81,157.69,141.28,150,140.82,141.88Zm-66.49,9.05c-5.22-.19-9.28-5.22-9.07-11.23S69.88,129,75.1,129.13s9.28,5.22,9.07,11.23S79.55,151.11,74.33,150.93Z" transform="translate(-30 -7.97)"/><path id="CenterOfCicle" class="cls-4" d="M75.5,139.5" transform="translate(-30 -7.97)"/></g><g id="wires"><rect class="cls-5" x="65.5" y="246.53" width="10.33" height="31"/><text class="cls-6" transform="translate(68.44 253.45) rotate(88.43)">D<tspan class="cls-7" x="5.2" y="0">a</tspan><tspan x="9.2" y="0">ta</tspan></text><rect class="cls-8" x="37.5" y="246.53" width="10.33" height="31"/><text class="cls-6" transform="translate(39.44 257.45) rotate(88.43)">5V</text><polygon class="cls-9" points="10.5 246.53 10.5 277.54 15.67 277.54 20.83 277.54 20.83 246.53 10.5 246.53"/><text class="cls-6" transform="translate(12.44 252.45) rotate(88.43)">GND</text></g><g id="Angle_Layer" data-name="Angle Layer"><text class="cls-10" transform="translate(1.68 16.1) scale(0.82 1)">Se<tspan class="cls-11" x="23.51" y="0">rv</tspan><tspan class="cls-12" x="41.28" y="0">o </tspan><tspan class="cls-13" x="57.2" y="0">a</tspan><tspan class="cls-14" x="67.81" y="0">t 0˚</tspan></text></g></svg>